# Blender v2.93.5 OBJ File: ''
# www.blender.org
mtllib hole.mtl
o Cube.001_Cube.004
v 0.000000 0.100000 0.150000
v 0.000000 -0.100000 0.150000
v 0.012390 -0.050000 0.072555
v 0.012390 0.100000 0.072555
v -0.048300 0.100000 0.025515
v -0.150000 0.100000 0.150000
v -0.150000 -0.100000 0.150000
v 0.012390 -0.050000 0.025515
v 0.012390 0.100000 0.025515
v -0.048300 -0.050000 0.025515
vt 0.000000 0.000000
vt 0.000000 0.000000
vt 0.000000 0.000000
vt 0.750000 0.750000
vt 0.000000 0.000000
vt 0.000000 0.000000
vt 0.875000 0.750000
vt 0.250000 0.750000
vt 0.000000 0.000000
vt 0.125000 0.750000
vt 0.363636 0.500000
vt 0.363636 0.000000
vt 0.454545 0.000000
vt 0.454545 0.500000
vt 0.545455 0.000000
vt 0.545455 0.500000
vt 0.000000 0.000000
vt 0.739675 0.646262
vt 0.357143 0.000000
vn 0.9874 -0.0000 0.1580
vn 0.0000 1.0000 0.0000
vn 0.0000 -0.0000 1.0000
vn 0.7218 0.6897 0.0574
vn 0.9936 -0.0991 0.0544
vn 0.6034 -0.4534 -0.6560
vn 0.5774 0.5774 -0.5774
vn -0.3311 -0.4703 -0.8181
vn -0.3355 0.6222 -0.7073
vn 0.5198 -0.7006 0.4889
vn -0.7172 -0.6244 0.3094
vn 0.5257 0.5861 0.6166
vn -0.7548 0.5497 0.3580
usemtl None
s off
f 1/1/1 2/2/1 3/3/1
f 1/4/2 4/5/2 5/6/2 6/7/2
f 2/8/3 1/1/3 6/9/3 7/10/3
s 1
f 4/11/4 3/12/5 8/13/6 9/14/7
f 8/13/6 10/15/8 5/16/9 9/14/7
f 10/17/8 8/13/6 2/8/10 7/10/11
f 5/6/9 4/5/4 9/18/7
f 1/1/12 3/3/5 4/11/4
f 3/3/5 2/2/10 8/19/6
f 6/9/13 5/6/9 10/17/8 7/10/11
o Cube.002_Cube.003
v 0.008260 0.100000 -0.022470
v 0.007980 0.100000 -0.022470
v -0.013860 0.100000 0.004690
v 0.008260 0.100000 0.004690
v 0.008260 -0.050000 0.004690
v 0.008260 -0.050000 -0.022470
v 0.007980 -0.050000 -0.022470
v -0.013860 -0.050000 0.004690
vt 0.739675 0.596913
vt 0.740025 0.596913
vt 0.767325 0.630862
vt 0.739675 0.630863
vt 0.000000 0.500000
vt 0.000000 0.000000
vt 0.250000 0.000000
vt 0.250000 0.500000
vt 0.500000 0.000000
vt 0.500000 0.500000
vt 0.750000 0.000000
vt 0.750000 0.500000
vt 1.000000 0.000000
vt 1.000000 0.500000
vn 0.0000 1.0000 0.0000
vn 0.5774 0.5773 0.5774
vn 0.7071 -0.0000 0.7071
vn 0.7071 0.0000 -0.7071
vn 0.5775 0.5773 -0.5773
vn -0.4321 0.0000 -0.9018
vn -0.3383 0.6215 -0.7065
vn -0.9018 -0.0000 0.4321
vn -0.7533 0.5498 0.3609
usemtl None
s off
f 11/20/14 12/21/14 13/22/14 14/23/14
s 1
f 14/24/15 15/25/16 16/26/17 11/27/18
f 16/26/17 17/28/19 12/29/20 11/27/18
f 17/28/19 18/30/21 13/31/22 12/29/20
f 13/31/22 18/30/21 15/32/16 14/33/15
o Cube.004_Cube.006
v 0.032970 0.100000 0.072555
v 0.012390 0.100000 0.072555
v 0.000000 0.100000 0.150000
v 0.150000 0.100000 0.150000
v 0.150000 -0.100000 0.150000
v 0.032970 -0.050000 0.072555
v 0.000000 -0.100000 0.150000
v 0.012390 -0.050000 0.072555
vt 0.272727 0.500000
vt 0.363636 0.500000
vt 0.000000 0.000000
vt 0.625000 0.750000
vt 0.000000 0.000000
vt 0.272727 0.000000
vt 0.000000 0.000000
vt 0.214286 0.000000
vt 0.375000 0.750000
vt 0.250000 0.750000
vt 0.363636 0.000000
vn 0.0000 1.0000 0.0000
vn 0.5519 0.0000 -0.8339
vn -0.9874 0.0000 -0.1580
vn 0.0000 -0.8401 -0.5424
vn 0.0000 -0.0000 1.0000
vn 0.2080 -0.4096 -0.8882
vn -0.5538 -0.3756 -0.7431
vn -0.5257 0.5861 -0.6165
vn 0.2196 0.6476 -0.7296
vn -0.5879 -0.7165 0.3755
usemtl None
s off
f 19/34/23 20/35/23 21/36/23
f 19/34/23 21/36/23 22/37/23
f 19/34/24 22/37/24 23/38/24 24/39/24
f 20/35/25 25/40/25 21/36/25
f 25/40/26 24/41/26 23/38/26
f 23/42/27 22/37/27 21/36/27 25/43/27
s 1
f 24/39/28 26/44/29 20/35/30 19/34/31
f 20/35/30 26/44/29 25/40/32
f 25/40/32 26/44/29 24/41/28
o Cube.005_Cube.007
v 0.032970 0.100000 0.072555
v 0.150000 0.100000 0.150000
v 0.150000 0.100000 0.075000
v 0.032970 0.100000 0.025515
v 0.032970 -0.050000 0.072555
v 0.150000 -0.100000 0.150000
v 0.150000 -0.100000 0.075000
v 0.048300 -0.050000 0.025515
v 0.048300 0.100000 0.025515
v 0.032970 -0.050000 0.025515
vt 0.722525 0.685462
vt 0.625000 0.750000
vt 0.000000 0.000000
vt 0.722525 0.646263
vt 0.272727 0.000000
vt 0.375000 0.750000
vt 0.000000 0.000000
vt 0.090909 0.000000
vt 0.090909 0.500000
vt 0.214286 0.000000
vt 0.142857 0.000000
vt 0.625000 0.687500
vt 0.181818 0.000000
vt 0.181818 0.500000
vt 0.272727 0.500000
vn -0.0000 1.0000 0.0000
vn -0.5519 -0.0000 0.8339
vn 0.4375 0.0000 -0.8992
vn -0.3929 -0.9196 0.0000
vn 1.0000 0.0000 0.0000
vn 0.1572 -0.3227 -0.9333
vn -0.6395 -0.4648 -0.6124
vn -0.5773 0.5774 -0.5774
vn 0.1687 0.6599 -0.7322
vn -0.8085 -0.4552 0.3729
vn -0.6949 0.6145 0.3734
vn 0.5253 -0.7322 -0.4335
vn 0.6750 0.6050 -0.4222
usemtl None
s off
f 27/45/33 28/46/33 29/47/33 30/48/33
f 31/49/34 32/50/34 28/46/34 27/45/34
f 29/47/35 33/51/35 34/52/35 35/53/35
f 33/51/36 32/50/36 31/54/36 36/55/36
f 28/46/37 32/50/37 33/51/37 29/56/37
s 1
f 34/52/38 36/57/39 30/58/40 35/53/41
f 36/57/39 31/49/42 27/59/43 30/58/40
f 36/57/39 34/52/38 33/51/44
f 29/47/45 35/53/41 30/48/40
o Cube.006_Cube.008
v 0.150000 0.100000 0.075000
v 0.150000 0.100000 0.000000
v 0.048300 0.100000 0.007035
v 0.048300 0.100000 0.025515
v 0.150000 -0.100000 -0.000000
v 0.048300 -0.050000 0.007035
v 0.150000 -0.100000 0.075000
v 0.048300 -0.050000 0.025515
vt 0.000000 0.000000
vt 0.625000 0.625000
vt 0.709750 0.630862
vt 0.709750 0.646263
vt 0.000000 0.500000
vt 0.000000 0.000000
vt 0.000000 0.000000
vt 0.000000 0.000000
vt 0.090909 0.500000
vt 0.090909 0.000000
vt 0.375000 0.625000
vt 0.375000 0.687500
vn -0.0000 1.0000 0.0000
vn -0.0690 0.0000 -0.9976
vn -0.4375 -0.0000 0.8992
vn 1.0000 -0.0000 0.0000
vn -0.4412 -0.8974 -0.0000
vn -0.6976 -0.4204 -0.5802
vn -0.7959 -0.4272 0.4290
vn -0.6750 0.6050 0.4223
vn -0.5950 0.5810 -0.5553
usemtl None
s off
f 37/60/46 38/61/46 39/62/46 40/63/46
f 39/64/47 38/61/47 41/65/47 42/66/47
f 43/67/48 37/60/48 40/68/48 44/69/48
f 41/70/49 38/61/49 37/60/49 43/71/49
f 42/66/50 41/65/50 43/67/50 44/69/50
s 1
f 42/66/51 44/69/52 40/68/53 39/64/54
o Cube.007_Cube.009
v 0.150000 0.100000 0.000000
v 0.150000 -0.100000 -0.000000
v 0.150000 -0.100000 -0.150000
v 0.150000 0.100000 -0.150000
v 0.032970 0.100000 -0.072555
v 0.048300 0.100000 0.007035
v 0.048300 -0.050000 0.007035
v 0.032970 -0.050000 0.007035
v 0.032970 -0.050000 -0.072555
v 0.032970 0.100000 0.007035
vt 0.625000 0.625000
vt 0.000000 0.000000
vt 0.000000 0.000000
vt 0.625000 0.500000
vt 0.722525 0.564537
vt 0.000000 0.000000
vt 0.000000 0.000000
vt 1.000000 0.000000
vt 0.375000 0.625000
vt 0.714286 0.000000
vt 0.000000 0.000000
vt 0.375000 0.500000
vt 0.818182 0.000000
vt 0.909091 0.000000
vt 0.909091 0.500000
vt 0.818182 0.500000
vt 1.000000 0.500000
vt 0.000000 0.000000
vt 0.722525 0.630863
vn 1.0000 0.0000 0.0000
vn 0.0000 1.0000 0.0000
vn 0.0247 0.6994 0.7143
vn 0.0223 -0.0597 0.9980
vn 0.4687 -0.6981 0.5412
vn 0.5950 0.5810 0.5553
vn -0.6624 -0.4435 0.6037
vn -0.8085 -0.4552 -0.3730
vn 0.3324 -0.6383 -0.6943
vn -0.5774 0.5774 0.5774
vn -0.6949 0.6145 -0.3734
vn 0.3945 0.5527 -0.7341
usemtl None
s off
f 45/72/55 46/73/55 47/74/55 48/75/55
f 48/75/56 49/76/56 50/77/56 45/78/56
s 1
f 50/77/57 51/79/58 46/73/59 45/78/60
f 46/80/59 52/81/61 53/82/62 47/83/63
f 53/84/62 52/85/61 54/86/64 49/87/65
f 54/86/64 52/85/61 51/79/58 50/88/57
f 46/80/59 51/89/58 52/81/61
f 50/77/57 49/76/65 54/90/64
f 47/74/63 53/82/62 49/76/65 48/75/66
o Cube.008_Cube.010
v -0.150000 0.100000 -0.150000
v -0.150000 -0.100000 -0.150000
v 0.024150 -0.050000 -0.072555
v 0.024150 0.100000 -0.072555
v 0.150000 -0.100000 -0.150000
v 0.032970 -0.050000 -0.072555
v 0.150000 0.100000 -0.150000
v 0.032970 0.100000 -0.072555
vt 0.000000 0.000000
vt 0.000000 0.000000
vt 0.727273 0.000000
vt 0.727273 0.500000
vt 0.000000 0.000000
vt 0.571429 0.000000
vt 0.818182 0.000000
vt 0.625000 0.500000
vt 0.722525 0.564537
vt 0.818182 0.500000
vt 0.000000 0.000000
vt 0.642857 0.000000
vn -0.4063 -0.0000 0.9137
vn 0.0000 -0.8401 0.5424
vn 0.5519 -0.0000 0.8339
vn 0.0000 1.0000 0.0000
vn 0.0000 0.0000 -1.0000
vn -0.1554 0.6632 0.7321
vn -0.1418 -0.4258 0.8936
vn 0.2080 -0.4096 0.8882
vn 0.2196 0.6476 0.7296
vn 0.7543 -0.6237 -0.2051
usemtl None
s off
f 55/91/67 56/92/67 57/93/67 58/94/67
f 59/95/68 57/96/68 56/92/68
f 60/97/69 59/95/69 61/98/69 62/99/69
f 58/94/70 62/100/70 61/98/70
f 58/94/70 61/98/70 55/91/70
f 59/95/71 56/92/71 55/91/71 61/101/71
s 1
f 58/94/72 57/93/73 60/97/74 62/100/75
f 59/95/76 60/102/74 57/96/73
o Cube.009_Cube.011
v -0.048300 0.100000 0.016065
v 0.024150 0.100000 -0.072555
v -0.150000 0.100000 -0.150000
v -0.150000 0.100000 0.000000
v -0.150000 -0.100000 -0.150000
v -0.150000 -0.100000 -0.000000
v 0.024150 -0.050000 -0.072555
v -0.048300 -0.050000 0.016065
vt 0.000000 0.000000
vt 0.727273 0.500000
vt 0.625000 0.250000
vt 0.625000 0.125000
vt 0.000000 0.000000
vt 0.125000 0.500000
vt 0.125000 0.625000
vt 0.571429 0.000000
vt 0.000000 0.000000
vt 0.636364 0.500000
vt 0.636364 0.000000
vt 0.727273 0.000000
vt 0.000000 0.000000
vt 0.000000 0.000000
vt 0.000000 0.000000
vt 0.000000 0.000000
vn -0.0000 1.0000 0.0000
vn -1.0000 0.0000 0.0000
vn 0.3109 -0.9458 0.0944
vn 0.2823 0.6103 0.7401
vn 0.3811 -0.4793 0.7906
vn 0.8672 -0.4550 -0.2021
vn 0.8030 0.5646 -0.1909
vn -0.4519 0.5585 -0.6956
vn -0.3985 -0.6523 -0.6448
vn -0.6160 0.5860 0.5264
vn -0.5084 -0.6782 0.5307
usemtl None
s off
f 63/103/77 64/104/77 65/105/77 66/106/77
f 66/107/78 65/105/78 67/108/78 68/109/78
f 68/109/79 67/108/79 69/110/79 70/111/79
s 1
f 63/112/80 70/113/81 69/114/82 64/104/83
f 65/115/84 64/104/83 69/116/82 67/117/85
f 70/111/81 63/112/80 66/107/86 68/118/87
o Cube.010_Cube.012
v -0.048300 0.100000 0.025515
v -0.150000 0.100000 0.000000
v -0.150000 0.100000 0.150000
v -0.150000 -0.100000 0.150000
v -0.048300 -0.050000 0.025515
v -0.048300 0.100000 0.016065
v -0.048300 -0.050000 0.016065
v -0.150000 -0.100000 -0.000000
vt 0.545455 0.500000
vt 0.000000 0.000000
vt 0.875000 0.750000
vt 0.000000 0.000000
vt 0.125000 0.750000
vt 0.545455 0.000000
vt 0.636364 0.500000
vt 0.636364 0.000000
vt 0.000000 0.000000
vt 0.875000 0.625000
vt 0.428571 0.000000
vt 0.500000 0.000000
vn 0.0000 1.0000 0.0000
vn 0.7744 -0.0000 0.6327
vn 0.1560 0.0000 -0.9878
vn -1.0000 -0.0000 0.0000
vn 0.4412 -0.8974 -0.0000
vn 0.7247 0.6388 0.2584
vn 0.8564 -0.4525 0.2486
vn 0.7235 -0.4207 -0.5473
vn 0.6160 0.5860 -0.5264
vn -0.4118 -0.6905 -0.5947
usemtl None
s off
f 71/119/88 72/120/88 73/121/88
f 73/122/89 74/123/89 75/124/89 71/119/89
f 71/119/88 76/125/88 72/120/88
f 77/126/90 78/127/90 72/120/90 76/125/90
f 78/127/91 74/123/91 73/121/91 72/128/91
f 78/127/92 75/129/92 74/123/92
s 1
f 71/119/93 75/124/94 77/126/95 76/125/96
f 78/127/97 77/130/95 75/129/94
o Cube.011_Cube.013
v 0.024150 -0.050000 -0.072555
v 0.032970 -0.050000 0.072555
v 0.048300 -0.050000 0.025515
v -0.048300 -0.050000 0.016065
v -0.150000 -0.100000 0.150000
v -0.150000 -0.100000 -0.150000
v 0.150000 -0.100000 0.150000
v 0.150000 -0.100000 -0.150000
vt 0.571429 0.000000
vt 0.000000 0.000000
vt 0.000000 0.000000
vt 0.000000 0.000000
vt 0.000000 0.000000
vt 0.000000 0.000000
vt 0.000000 0.000000
vt 0.500000 0.000000
vt 0.000000 0.000000
vt 0.000000 0.000000
vn -0.0000 1.0000 0.0000
vn -0.1628 0.9585 0.2342
vn -0.4412 0.8974 0.0000
vn 0.0000 0.8401 0.5424
vn 0.3296 0.9380 0.1074
vn 0.3251 0.9423 -0.0801
vn -0.2032 0.9649 -0.1661
vn 0.0000 0.8401 -0.5424
vn 0.0000 -1.0000 -0.0000
vn 0.4412 0.8974 0.0000
usemtl None
s off
f 79/131/98 80/132/98 81/133/98
f 82/134/99 83/135/99 80/132/99
f 83/135/100 82/134/100 84/136/100
f 80/132/101 83/135/101 85/137/101
f 79/131/98 82/138/98 80/132/98
f 80/132/102 85/137/102 81/133/102
f 79/139/103 81/133/103 86/140/103
f 82/138/104 79/131/104 84/136/104
f 84/136/105 79/139/105 86/140/105
f 84/136/106 86/140/106 85/137/106 83/135/106
f 81/133/107 85/137/107 86/140/107
l 81 82
