# Blender v2.93.5 OBJ File: 'sim4.blend'
# www.blender.org
mtllib hole.mtl
o Cube.002_Cube.004
v 0.004000 -0.050000 -0.011000
v 0.004000 0.050000 -0.011000
v -0.006000 -0.050000 0.002000
v -0.006000 0.050000 0.002000
v 0.004000 -0.050000 0.002000
v 0.004000 0.050000 0.002000
vt 0.235000 0.630000
vt 0.260000 0.597500
vt 0.260000 0.630000
vt 0.765000 0.630000
vt 0.740000 0.630000
vt 0.740000 0.597500
vt 0.000000 0.000000
vt 0.250000 0.000000
vt 0.250000 1.000000
vt 0.000000 0.000000
vt 0.750000 0.000000
vn 0.0000 -1.0000 0.0000
vn 0.0000 1.0000 0.0000
vn 1.0000 -0.0000 0.0000
vn -0.7490 0.5505 0.3688
vn 0.2702 0.5439 -0.7944
vn 0.2702 -0.5439 -0.7944
vn -0.7490 -0.5505 0.3688
vn 0.5773 -0.5773 0.5773
vn 0.5773 0.5773 0.5773
usemtl None
s off
f 3/1/1 1/2/1 5/3/1
f 4/4/2 6/5/2 2/6/2
f 6/5/3 5/7/3 1/8/3 2/9/3
s 1
f 4/10/4 2/9/5 1/8/6 3/11/7
f 4/4/4 3/11/7 5/7/8 6/5/9
o Cube.003_Cube.005
v -0.050000 -0.050000 0.050000
v -0.050000 0.050000 0.050000
v -0.050000 -0.050000 -0.050000
v -0.050000 0.050000 -0.050000
v -0.019000 0.050000 0.006000
v -0.019000 -0.050000 0.006000
v -0.019000 -0.050000 0.011000
v -0.019000 0.050000 0.011000
vt 0.375000 0.000000
vt 0.625000 0.000000
vt 0.625000 0.250000
vt 0.375000 0.250000
vt 0.545455 1.000000
vt 0.875000 0.750000
vt 0.125000 0.750000
vt 0.202500 0.652500
vt 0.202500 0.640000
vt 0.797500 0.640000
vt 0.000000 0.000000
vt 0.636364 1.000000
vt 0.636364 0.000000
vt 0.545455 0.000000
vt 0.797500 0.652500
vn -1.0000 0.0000 0.0000
vn 0.7828 0.0000 0.6222
vn 0.0000 -1.0000 0.0000
vn 0.0000 1.0000 0.0000
vn 0.8749 0.0000 -0.4843
vn 0.7317 -0.6549 -0.1890
vn 0.7255 -0.6399 0.2532
vn -0.2764 -0.5442 0.7920
vn 0.7255 0.6399 0.2532
vn 0.7317 0.6549 -0.1890
vn -0.2764 0.5442 0.7920
usemtl None
s off
f 7/12/10 8/13/10 10/14/10 9/15/10
f 14/16/11 8/17/11 7/18/11 13/19/11
f 12/20/12 7/18/12 9/15/12
f 8/17/13 11/21/13 10/14/13
f 9/22/14 10/14/14 11/23/14 12/24/14
s 1
f 12/20/15 13/19/16 7/18/17
f 14/16/18 13/25/16 12/24/15 11/23/19
f 8/17/20 14/26/18 11/21/19
o Cube.004_Cube.006
v -0.050000 -0.050000 -0.050000
v -0.050000 0.050000 -0.050000
v -0.019000 0.050000 0.006000
v -0.019000 -0.050000 0.006000
v 0.008000 -0.050000 -0.029000
v 0.008000 0.050000 -0.029000
vt 0.000000 0.000000
vt 0.636364 1.000000
vt 0.625000 0.250000
vt 0.375000 0.250000
vt 0.727273 1.000000
vt 0.636364 0.000000
vt 0.727273 0.000000
vt 0.000000 0.000000
vt 0.797500 0.640000
vt 0.730000 0.552500
vn -0.0627 -0.5589 0.8269
vn -0.0627 0.5589 0.8269
vn -0.6377 0.5453 -0.5440
vn -0.6377 -0.5453 -0.5440
vn 0.7937 0.5628 -0.2309
vn 0.7937 -0.5628 -0.2309
usemtl None
s 1
f 18/27/21 17/28/22 16/29/23 15/30/24
f 20/31/25 17/28/22 18/32/21 19/33/26
f 18/27/21 15/30/24 19/34/26
f 16/29/23 20/31/25 19/34/26 15/30/24
f 16/29/23 17/35/22 20/36/25
o Cube.005_Cube.007
v -0.050000 -0.050000 -0.050000
v -0.050000 0.050000 -0.050000
v 0.050000 -0.050000 -0.050000
v 0.050000 0.050000 -0.050000
v 0.008000 -0.050000 -0.029000
v 0.008000 0.050000 -0.029000
v 0.014000 -0.050000 -0.029000
v 0.014000 0.050000 -0.029000
vt 0.375000 0.250000
vt 0.625000 0.250000
vt 0.625000 0.500000
vt 0.375000 0.500000
vt 0.270000 0.552500
vt 0.285000 0.552500
vt 0.727273 1.000000
vt 0.727273 0.000000
vt 0.730000 0.552500
vt 0.818182 1.000000
vt 0.818182 0.000000
vt 0.715000 0.552500
vn 0.0000 0.0000 -1.0000
vn 0.0000 -1.0000 0.0000
vn -0.3404 -0.0000 0.9403
vn 0.0000 1.0000 0.0000
vn 0.1977 0.6528 0.7313
vn 0.1977 -0.6528 0.7313
vn 0.8115 -0.5415 -0.2194
vn 0.8115 0.5415 -0.2194
vn -0.1282 0.6702 0.7310
vn -0.1282 -0.6702 0.7310
usemtl None
s off
f 21/37/27 22/38/27 24/39/27 23/40/27
f 23/40/28 25/41/28 21/37/28
f 23/40/28 27/42/28 25/41/28
f 26/43/29 22/38/29 21/37/29 25/44/29
f 26/45/30 24/39/30 22/38/30
s 1
f 28/46/31 27/47/32 23/40/33 24/39/34
f 26/45/35 28/48/31 24/39/34
f 26/43/35 25/44/36 27/47/32 28/46/31
o Cube.006_Cube.008
v 0.050000 -0.050000 -0.050000
v 0.050000 0.050000 -0.050000
v 0.014000 -0.050000 -0.029000
v 0.014000 0.050000 -0.029000
v 0.019000 -0.050000 0.002000
v 0.019000 0.050000 0.002000
v 0.014000 -0.050000 0.002000
v 0.014000 0.050000 0.002000
v 0.050000 0.050000 -0.025000
v 0.050000 -0.050000 -0.025000
vt 0.000000 0.000000
vt 0.000000 0.000000
vt 0.625000 0.500000
vt 0.285000 0.552500
vt 0.000000 0.000000
vt 0.285000 0.630000
vt 0.715000 0.552500
vt 0.625000 0.562500
vt 0.000000 0.000000
vt 0.375000 0.500000
vt 0.375000 0.562500
vt 0.715000 0.630000
vt 0.145768 0.000000
vt 0.702500 0.630000
vt 0.526646 1.000000
vt 0.818182 1.000000
vt 0.000000 0.000000
vn 0.0000 1.0000 0.0000
vn 0.0000 -1.0000 0.0000
vn 1.0000 0.0000 0.0000
vn 0.6568 0.0000 0.7541
vn -0.5039 0.0000 -0.8638
vn -0.5773 0.5773 0.5773
vn -0.5773 -0.5773 0.5773
vn 0.2706 -0.6360 0.7226
vn 0.2706 0.6360 0.7226
vn -0.6869 0.6103 -0.3945
vn -0.6869 -0.6103 -0.3945
usemtl None
s off
f 34/49/37 37/50/37 30/51/37
f 31/52/38 33/53/38 35/54/38
f 34/49/37 30/51/37 32/55/37
f 37/56/39 38/57/39 29/58/39 30/51/39
f 31/52/38 38/59/38 33/53/38
f 31/52/38 29/58/38 38/59/38
f 34/49/40 33/53/40 38/57/40 37/50/40
f 29/58/41 31/52/41 32/55/41 30/51/41
s 1
f 36/60/42 35/61/43 33/53/44 34/62/45
f 34/49/45 32/55/46 36/60/42
f 36/63/42 32/64/46 31/65/47 35/61/43
o Cube.007_Cube.009
v 0.019000 -0.050000 0.002000
v 0.019000 0.050000 0.002000
v 0.019000 -0.050000 0.011000
v 0.019000 0.050000 0.011000
v 0.050000 0.050000 0.025000
v 0.050000 0.050000 -0.025000
v 0.050000 -0.050000 -0.025000
v 0.050000 -0.050000 0.025000
vt 0.000000 0.000000
vt 0.702500 0.630000
vt 0.702500 0.652500
vt 0.000000 0.000000
vt 0.000000 0.000000
vt 0.000000 0.000000
vt 0.000000 0.000000
vt 0.000000 0.000000
vt 0.000000 0.000000
vt 0.297500 0.652500
vt 0.297500 0.630000
vn 0.0000 1.0000 0.0000
vn 1.0000 0.0000 0.0000
vn -0.4116 0.0000 0.9114
vn -0.6568 0.0000 -0.7541
vn -1.0000 0.0000 0.0000
vn 0.0000 -1.0000 0.0000
usemtl None
s off
f 44/66/48 40/67/48 42/68/48
f 43/69/49 46/70/49 45/71/49 44/66/49
f 44/66/48 42/68/48 43/69/48
f 41/72/50 46/70/50 43/69/50 42/73/50
f 44/66/51 45/71/51 39/74/51 40/67/51
f 39/74/52 41/75/52 42/68/52 40/67/52
f 41/75/53 45/71/53 46/70/53
f 41/75/53 39/76/53 45/71/53
o Cube.008_Cube.010
v 0.050000 -0.050000 0.050000
v 0.050000 0.050000 0.050000
v 0.014000 -0.050000 0.029000
v 0.014000 0.050000 0.029000
v 0.019000 -0.050000 0.011000
v 0.019000 0.050000 0.011000
v 0.014000 -0.050000 0.011000
v 0.014000 0.050000 0.011000
v 0.025000 0.050000 0.050000
v 0.025000 -0.050000 0.050000
v 0.050000 0.050000 0.025000
v 0.050000 -0.050000 0.025000
vt 0.625000 0.750000
vt 0.625000 0.687500
vt 0.000000 0.000000
vt 0.375000 0.750000
vt 0.000000 0.000000
vt 0.285000 0.697500
vt 0.297500 0.652500
vt 0.715000 0.652500
vt 0.715000 0.697500
vt 0.000000 0.000000
vt 0.272727 0.000000
vt 0.375000 0.812500
vt 0.272727 1.000000
vt 0.625000 0.812500
vt 0.000000 0.000000
vt 0.188088 0.000000
vt 0.285000 0.652500
vt 0.442006 1.000000
vn 0.0000 1.0000 0.0000
vn 1.0000 0.0000 0.0000
vn 0.0000 -1.0000 0.0000
vn -0.8858 0.0000 0.4640
vn 0.0000 0.0000 1.0000
vn -0.0000 0.0000 -1.0000
vn 0.4116 0.0000 -0.9114
vn -0.7320 -0.6571 0.1801
vn -0.5773 -0.5773 -0.5773
vn 0.1576 -0.6626 -0.7321
vn 0.5773 0.5773 0.5773
vn -0.5773 0.5773 -0.5773
vn -0.7320 0.6571 0.1801
usemtl None
s off
f 48/77/54 57/78/54 52/79/54
f 48/77/55 47/80/55 58/81/55 57/78/55
f 49/82/56 51/83/56 58/81/56
f 48/77/54 52/79/54 54/84/54
f 48/77/54 50/85/54 55/86/54
f 49/87/57 56/88/57 55/86/57 50/89/57
f 55/90/58 56/88/58 47/80/58 48/77/58
f 47/80/56 56/88/56 49/82/56 58/81/56
f 52/79/59 51/91/59 53/92/59 54/84/59
f 57/78/60 58/81/60 51/91/60 52/79/60
s 1
f 49/82/61 53/93/62 51/83/63
f 48/77/64 54/84/65 50/85/66
f 49/87/61 50/89/66 54/94/65 53/92/62
o Cube.009_Cube.011
v 0.014000 -0.050000 0.029000
v 0.014000 0.050000 0.029000
v 0.004000 -0.050000 0.029000
v 0.004000 0.050000 0.029000
v 0.000000 0.050000 0.050000
v 0.025000 0.050000 0.050000
v 0.000000 -0.050000 0.050000
v 0.025000 -0.050000 0.050000
vt 0.000000 0.000000
vt 0.625000 0.812500
vt 0.715000 0.697500
vt 0.740000 0.697500
vt 0.375000 0.812500
vt 0.375000 0.875000
vt 0.260000 0.697500
vt 0.285000 0.697500
vt 0.000000 0.000000
vt 0.272727 0.000000
vt 0.363636 1.000000
vt 0.272727 1.000000
vt 0.363636 0.000000
vn 0.0000 1.0000 -0.0000
vn 0.0000 0.0000 1.0000
vn -0.9823 -0.0000 -0.1871
vn 0.0000 -1.0000 0.0000
vn 0.7111 -0.5561 0.4302
vn 0.4114 -0.6070 -0.6799
vn 0.4114 0.6070 -0.6799
vn 0.7111 0.5561 0.4302
vn -0.5157 0.5879 -0.6232
vn -0.5157 -0.5879 -0.6232
usemtl None
s off
f 63/95/67 64/96/67 60/97/67 62/98/67
f 66/99/68 64/96/68 63/95/68 65/100/68
f 61/101/69 65/100/69 63/95/69 62/98/69
f 59/102/70 66/99/70 65/103/70 61/101/70
s 1
f 66/99/71 59/104/72 60/97/73 64/96/74
f 62/105/75 60/106/73 59/104/72 61/107/76
o Cube.010_Cube.012
v -0.050000 -0.050000 0.050000
v -0.050000 0.050000 0.050000
v 0.004000 -0.050000 0.011000
v 0.004000 0.050000 0.011000
v -0.019000 -0.050000 0.011000
v -0.019000 0.050000 0.011000
v 0.004000 -0.050000 0.029000
v 0.004000 0.050000 0.029000
v 0.000000 0.050000 0.050000
v 0.000000 -0.050000 0.050000
vt 0.000000 0.000000
vt 0.363636 1.000000
vt 0.000000 0.000000
vt 0.000000 0.000000
vt 0.375000 1.000000
vt 0.625000 1.000000
vt 0.545455 1.000000
vt 0.000000 0.000000
vt 0.000000 0.000000
vt 0.000000 0.000000
vt 0.000000 0.000000
vt 0.740000 0.652500
vt 0.000000 0.000000
vt 0.260000 0.652500
vt 0.363636 0.000000
vt 0.202500 0.652500
vn 0.9823 0.0000 0.1871
vn -0.7828 0.0000 -0.6222
vn 0.0000 1.0000 0.0000
vn 0.0000 -1.0000 -0.0000
vn 1.0000 0.0000 0.0000
vn 0.0000 0.0000 1.0000
vn -0.3406 0.6211 -0.7058
vn 0.5773 0.5773 -0.5773
vn 0.5773 -0.5773 -0.5773
vn -0.3406 -0.6211 -0.7058
usemtl None
s off
f 73/108/77 74/109/77 75/110/77 76/111/77
f 67/112/78 68/113/78 72/114/78 71/115/78
f 75/110/79 74/116/79 72/117/79 68/118/79
f 72/117/79 74/116/79 70/119/79
f 67/120/80 71/115/80 73/108/80 76/111/80
f 73/108/80 71/115/80 69/121/80
f 69/121/81 70/119/81 74/109/81 73/122/81
f 76/111/82 75/110/82 68/113/82 67/112/82
s 1
f 72/114/83 70/119/84 69/121/85 71/123/86
o bottom.001_Cube.013
v -0.050000 -0.100000 0.050000
v -0.050000 -0.050000 0.050000
v -0.050000 -0.100000 -0.050000
v -0.050000 -0.050000 -0.050000
v 0.050000 -0.100000 0.050000
v 0.050000 -0.050000 0.050000
v 0.050000 -0.100000 -0.050000
v 0.050000 -0.050000 -0.050000
vt 0.375000 0.000000
vt 0.625000 0.000000
vt 0.625000 0.250000
vt 0.375000 0.250000
vt 0.625000 0.500000
vt 0.375000 0.500000
vt 0.625000 0.750000
vt 0.375000 0.750000
vt 0.625000 1.000000
vt 0.375000 1.000000
vt 0.125000 0.500000
vt 0.125000 0.750000
vt 0.875000 0.500000
vt 0.875000 0.750000
vn -1.0000 0.0000 0.0000
vn 0.0000 0.0000 -1.0000
vn 1.0000 0.0000 0.0000
vn 0.0000 0.0000 1.0000
vn 0.0000 -1.0000 0.0000
vn 0.0000 1.0000 0.0000
usemtl None
s off
f 77/124/87 78/125/87 80/126/87 79/127/87
f 79/127/88 80/126/88 84/128/88 83/129/88
f 83/129/89 84/128/89 82/130/89 81/131/89
f 81/131/90 82/130/90 78/132/90 77/133/90
f 79/134/91 83/129/91 81/131/91 77/135/91
f 84/128/92 80/136/92 78/137/92 82/130/92
