# Blender v2.93.5 OBJ File: 'sim4.blend'
# www.blender.org
mtllib hole_large.mtl
o bottom.002_Cube.023
v -0.050000 -0.100000 0.050000
v -0.050000 -0.050000 0.050000
v -0.050000 -0.100000 -0.050000
v -0.050000 -0.050000 -0.050000
v 0.050000 -0.100000 0.050000
v 0.050000 -0.050000 0.050000
v 0.050000 -0.100000 -0.050000
v 0.050000 -0.050000 -0.050000
vt 0.375000 0.000000
vt 0.625000 0.000000
vt 0.625000 0.250000
vt 0.375000 0.250000
vt 0.625000 0.500000
vt 0.375000 0.500000
vt 0.625000 0.750000
vt 0.375000 0.750000
vt 0.625000 1.000000
vt 0.375000 1.000000
vt 0.125000 0.500000
vt 0.125000 0.750000
vt 0.875000 0.500000
vt 0.875000 0.750000
vn -1.0000 0.0000 0.0000
vn 0.0000 0.0000 -1.0000
vn 1.0000 0.0000 0.0000
vn 0.0000 0.0000 1.0000
vn 0.0000 -1.0000 0.0000
vn 0.0000 1.0000 0.0000
usemtl None
s off
f 1/1/1 2/2/1 4/3/1 3/4/1
f 3/4/2 4/3/2 8/5/2 7/6/2
f 7/6/3 8/5/3 6/7/3 5/8/3
f 5/8/4 6/7/4 2/9/4 1/10/4
f 3/11/5 7/6/5 5/8/5 1/12/5
f 8/5/6 4/13/6 2/14/6 6/7/6
o Cube.018_Cube.022
v 0.003000 -0.050000 -0.009000
v 0.003000 0.050000 -0.009000
v -0.004000 -0.050000 0.001000
v -0.004000 0.050000 0.001000
v 0.003000 -0.050000 0.001000
v 0.003000 0.050000 0.001000
vt 0.235000 0.630000
vt 0.260000 0.597500
vt 0.260000 0.630000
vt 0.765000 0.630000
vt 0.740000 0.630000
vt 0.740000 0.597500
vt 0.000000 0.000000
vt 0.250000 0.000000
vt 0.250000 1.000000
vt 0.000000 0.000000
vt 0.750000 0.000000
vn 0.0000 -1.0000 0.0000
vn 0.0000 1.0000 0.0000
vn 1.0000 0.0000 0.0000
vn -0.7397 0.5518 0.3851
vn 0.2524 0.5430 -0.8009
vn 0.2524 -0.5430 -0.8009
vn -0.7397 -0.5518 0.3851
vn 0.5773 -0.5773 0.5773
vn 0.5773 0.5773 0.5773
usemtl None
s off
f 11/15/7 9/16/7 13/17/7
f 12/18/8 14/19/8 10/20/8
f 14/19/9 13/21/9 9/22/9 10/23/9
s 1
f 12/24/10 10/23/11 9/22/12 11/25/13
f 12/18/10 11/25/13 13/21/14 14/19/15
o Cube.001_Cube.024
v -0.020000 0.050000 0.005000
v -0.020000 -0.050000 0.005000
v -0.050000 0.050000 -0.050000
v 0.007000 -0.050000 -0.030000
v 0.007000 0.050000 -0.030000
v -0.050000 -0.050000 -0.050000
vt 0.000000 0.000000
vt 0.625000 0.250000
vt 0.636364 1.000000
vt 0.636364 0.000000
vt 0.727273 1.000000
vt 0.727273 0.000000
vt 0.000000 0.000000
vt 0.375000 0.250000
vt 0.000000 0.000000
vt 0.797500 0.640000
vt 0.730000 0.552500
vn 0.6282 -0.2428 -0.7392
vn 0.6282 0.2428 -0.7392
vn 0.9126 0.4024 0.0721
vn 0.9126 -0.4024 0.0721
vn 0.7928 0.5624 -0.2350
vn 0.7928 -0.5624 -0.2350
usemtl None
s 1
f 20/26/16 17/27/17 15/28/18 16/29/19
f 19/30/20 15/28/18 16/29/19 18/31/21
f 16/32/19 20/33/16 18/34/21
f 17/27/17 19/30/20 18/34/21 20/33/16
f 17/27/17 15/35/18 19/36/20
o Cube.011_Cube.025
v -0.050000 0.050000 -0.050000
v 0.007000 -0.050000 -0.030000
v 0.007000 0.050000 -0.030000
v -0.050000 -0.050000 -0.050000
v 0.050000 -0.050000 -0.050000
v 0.015000 0.050000 -0.030000
v 0.050000 0.050000 -0.050000
v 0.015000 -0.050000 -0.030000
vt 0.625000 0.250000
vt 0.375000 0.250000
vt 0.727273 0.000000
vt 0.727273 1.000000
vt 0.625000 0.500000
vt 0.375000 0.500000
vt 0.270000 0.552500
vt 0.285000 0.552500
vt 0.730000 0.552500
vt 0.818182 1.000000
vt 0.818182 0.000000
vt 0.715000 0.552500
vn -0.3311 0.0000 0.9436
vn 0.0000 0.0000 -1.0000
vn 0.0000 -1.0000 0.0000
vn 0.0000 1.0000 0.0000
vn 0.1942 0.6536 0.7314
vn 0.1942 -0.6536 0.7314
vn 0.8126 -0.5413 -0.2158
vn 0.8126 0.5413 -0.2158
vn -0.1245 0.6712 0.7307
vn -0.1245 -0.6712 0.7307
usemtl None
s off
f 21/37/22 24/38/22 22/39/22 23/40/22
f 24/38/23 21/37/23 27/41/23 25/42/23
f 25/42/24 22/43/24 24/38/24
f 25/42/24 28/44/24 22/43/24
f 23/45/25 27/41/25 21/37/25
s 1
f 26/46/26 28/47/27 25/42/28 27/41/29
f 23/45/30 26/48/26 27/41/29
f 23/40/30 22/39/31 28/47/27 26/46/26
o Cube.012_Cube.026
v 0.050000 -0.050000 -0.050000
v 0.015000 0.050000 -0.030000
v 0.050000 0.050000 -0.050000
v 0.015000 -0.050000 -0.030000
v 0.020000 -0.050000 0.001000
v 0.020000 0.050000 0.001000
v 0.015000 -0.050000 0.001000
v 0.015000 0.050000 0.001000
v 0.050000 0.050000 -0.025000
v 0.050000 -0.050000 -0.025000
vt 0.375000 0.500000
vt 0.285000 0.552500
vt 0.715000 0.552500
vt 0.625000 0.500000
vt 0.000000 0.000000
vt 0.000000 0.000000
vt 0.000000 0.000000
vt 0.285000 0.630000
vt 0.625000 0.562500
vt 0.000000 0.000000
vt 0.375000 0.562500
vt 0.715000 0.630000
vt 0.145768 0.000000
vt 0.702500 0.630000
vt 0.526646 1.000000
vt 0.818182 1.000000
vt 0.000000 0.000000
vn -0.4961 0.0000 -0.8682
vn 0.0000 1.0000 0.0000
vn 0.0000 -1.0000 0.0000
vn 1.0000 0.0000 0.0000
vn 0.6549 0.0000 0.7557
vn -0.5773 0.5773 0.5773
vn -0.5773 -0.5773 0.5773
vn 0.2696 -0.6362 0.7228
vn 0.2696 0.6362 0.7228
vn -0.6856 0.6097 -0.3978
vn -0.6856 -0.6097 -0.3978
usemtl None
s off
f 29/49/32 32/50/32 30/51/32 31/52/32
f 34/53/33 37/54/33 31/52/33
f 32/50/34 33/55/34 35/56/34
f 34/53/33 31/52/33 30/51/33
f 37/57/35 38/58/35 29/49/35 31/52/35
f 32/50/34 38/59/34 33/55/34
f 32/50/34 29/49/34 38/59/34
f 34/53/36 33/55/36 38/58/36 37/54/36
s 1
f 36/60/37 35/61/38 33/55/39 34/62/40
f 34/53/40 30/51/41 36/60/37
f 36/63/37 30/64/41 32/65/42 35/61/38
o Cube.014_Cube.027
v 0.020000 -0.050000 0.012000
v 0.020000 0.050000 0.012000
v 0.020000 -0.050000 0.001000
v 0.020000 0.050000 0.001000
v 0.050000 0.050000 -0.025000
v 0.050000 -0.050000 -0.025000
v 0.050000 0.050000 0.025000
v 0.050000 -0.050000 0.025000
vt 0.000000 0.000000
vt 0.702500 0.630000
vt 0.702500 0.652500
vt 0.000000 0.000000
vt 0.000000 0.000000
vt 0.000000 0.000000
vt 0.000000 0.000000
vt 0.000000 0.000000
vt 0.000000 0.000000
vt 0.297500 0.652500
vt 0.297500 0.630000
vn 0.0000 1.0000 0.0000
vn 1.0000 0.0000 0.0000
vn -0.3976 0.0000 0.9176
vn -1.0000 0.0000 0.0000
vn 0.0000 -1.0000 0.0000
vn -0.6549 0.0000 -0.7557
usemtl None
s off
f 43/66/43 42/67/43 40/68/43
f 45/69/44 46/70/44 44/71/44 43/66/44
f 43/66/43 40/68/43 45/69/43
f 39/72/45 46/70/45 45/69/45 40/73/45
f 41/74/46 39/75/46 40/68/46 42/67/46
f 39/75/47 44/71/47 46/70/47
f 39/75/47 41/76/47 44/71/47
f 43/66/48 44/71/48 41/74/48 42/67/48
o Cube.015_Cube.028
v 0.020000 -0.050000 0.012000
v 0.020000 0.050000 0.012000
v 0.050000 -0.050000 0.050000
v 0.050000 0.050000 0.050000
v 0.015000 -0.050000 0.030000
v 0.015000 0.050000 0.030000
v 0.015000 -0.050000 0.012000
v 0.015000 0.050000 0.012000
v 0.050000 0.050000 0.025000
v 0.050000 -0.050000 0.025000
v 0.025000 0.050000 0.050000
v 0.025000 -0.050000 0.050000
vt 0.625000 0.687500
vt 0.000000 0.000000
vt 0.000000 0.000000
vt 0.000000 0.000000
vt 0.625000 0.750000
vt 0.375000 0.750000
vt 0.285000 0.697500
vt 0.297500 0.652500
vt 0.715000 0.652500
vt 0.715000 0.697500
vt 0.000000 0.000000
vt 0.625000 0.812500
vt 0.375000 0.812500
vt 0.188088 0.000000
vt 0.285000 0.652500
vt 0.272727 0.000000
vt 0.272727 1.000000
vt 0.442006 1.000000
vn 0.3976 0.0000 -0.9176
vn 0.0000 1.0000 0.0000
vn 1.0000 0.0000 0.0000
vn 0.0000 -1.0000 0.0000
vn 0.0000 0.0000 1.0000
vn 0.0000 0.0000 -1.0000
vn -0.7321 -0.6589 0.1728
vn -0.5773 -0.5773 -0.5773
vn 0.1518 -0.6641 -0.7320
vn -0.4183 -0.6057 0.6768
vn -0.4183 0.6057 0.6768
vn -0.7321 0.6589 0.1728
vn 0.5773 0.5773 0.5773
vn -0.5773 0.5773 -0.5773
usemtl None
s off
f 55/77/49 56/78/49 47/79/49 48/80/49
f 50/81/50 55/77/50 48/80/50
f 50/81/51 49/82/51 56/78/51 55/77/51
f 51/83/52 47/84/52 56/78/52
f 50/81/50 48/80/50 54/85/50
f 50/81/50 52/86/50 57/87/50
f 57/88/53 58/89/53 49/82/53 50/81/53
f 49/82/52 58/89/52 51/83/52 56/78/52
f 48/80/54 47/79/54 53/90/54 54/85/54
s 1
f 51/83/55 53/91/56 47/84/57
f 51/92/55 58/89/58 57/87/59 52/93/60
f 50/81/61 54/85/62 52/86/60
f 51/92/55 52/93/60 54/94/62 53/90/56
o Cube.016_Cube.029
v 0.015000 -0.050000 0.030000
v 0.015000 0.050000 0.030000
v 0.003000 -0.050000 0.030000
v 0.000000 0.050000 0.050000
v 0.025000 0.050000 0.050000
v 0.000000 -0.050000 0.050000
v 0.025000 -0.050000 0.050000
v 0.003000 0.050000 0.030000
vt 0.272727 1.000000
vt 0.625000 0.812500
vt 0.375000 0.812500
vt 0.285000 0.697500
vt 0.000000 0.000000
vt 0.715000 0.697500
vt 0.740000 0.697500
vt 0.375000 0.875000
vt 0.260000 0.697500
vt 0.000000 0.000000
vt 0.363636 1.000000
vt 0.272727 0.000000
vt 0.363636 0.000000
vn 0.8944 0.0000 -0.4472
vn 0.0000 1.0000 -0.0000
vn 0.0000 0.0000 1.0000
vn -0.9889 0.0000 -0.1483
vn 0.0000 -1.0000 -0.0000
vn -0.5289 0.5856 -0.6142
vn 0.4183 0.6057 -0.6768
vn 0.4183 -0.6057 -0.6768
vn -0.5289 -0.5856 -0.6142
usemtl None
s off
f 60/95/63 63/96/63 65/97/63 59/98/63
f 62/99/64 63/96/64 60/100/64 66/101/64
f 65/97/65 63/96/65 62/99/65 64/102/65
f 61/103/66 64/102/66 62/99/66 66/101/66
f 59/98/67 65/97/67 64/104/67 61/103/67
s 1
f 66/105/68 60/95/69 59/106/70 61/107/71
o Cube.017_Cube.030
v -0.050000 0.050000 0.050000
v -0.020000 0.050000 0.012000
v 0.003000 -0.050000 0.030000
v 0.000000 0.050000 0.050000
v 0.000000 -0.050000 0.050000
v -0.050000 -0.050000 0.050000
v 0.003000 -0.050000 0.012000
v 0.003000 0.050000 0.012000
v -0.020000 -0.050000 0.012000
v 0.003000 0.050000 0.030000
vt 0.545455 1.000000
vt 0.875000 0.750000
vt 0.125000 0.750000
vt 0.202500 0.652500
vt 0.000000 0.000000
vt 0.363636 1.000000
vt 0.000000 0.000000
vt 0.000000 0.000000
vt 0.000000 0.000000
vt 0.000000 0.000000
vt 0.000000 0.000000
vt 0.740000 0.652500
vt 0.000000 0.000000
vt 0.000000 0.000000
vt 0.260000 0.652500
vt 0.363636 0.000000
vt 0.625000 1.000000
vt 0.375000 1.000000
vn 0.7849 0.0000 0.6196
vn 0.9889 0.0000 0.1483
vn 0.0000 1.0000 0.0000
vn 0.0000 -1.0000 -0.0000
vn 1.0000 0.0000 0.0000
vn 0.0000 0.0000 1.0000
vn 0.4696 0.8530 -0.2276
vn 0.5773 0.5773 -0.5773
vn 0.5773 -0.5773 -0.5773
vn 0.4696 -0.8530 -0.2276
usemtl None
s off
f 68/108/72 67/109/72 72/110/72 75/111/72
f 69/112/73 76/113/73 70/114/73 71/115/73
f 70/114/74 76/116/74 68/117/74 67/118/74
f 68/117/74 76/116/74 74/119/74
f 72/120/75 75/121/75 69/112/75 71/115/75
f 69/112/75 75/121/75 73/122/75
f 73/122/76 74/119/76 76/113/76 69/123/76
f 71/115/77 70/114/77 67/124/77 72/125/77
s 1
f 68/108/78 74/119/79 73/122/80 75/111/81
o Cube.019_Cube.031
v -0.050000 0.050000 0.050000
v -0.020000 0.050000 0.005000
v -0.020000 -0.050000 0.005000
v -0.020000 0.050000 0.012000
v -0.050000 0.050000 -0.050000
v -0.050000 -0.050000 -0.050000
v -0.050000 -0.050000 0.050000
v -0.020000 -0.050000 0.012000
vt 0.375000 0.000000
vt 0.625000 0.000000
vt 0.625000 0.250000
vt 0.375000 0.250000
vt 0.202500 0.640000
vt 0.125000 0.750000
vt 0.875000 0.750000
vt 0.797500 0.640000
vt 0.636364 1.000000
vt 0.636364 0.000000
vt 0.202500 0.652500
vt 0.545455 1.000000
vt 0.545455 0.000000
vt 0.797500 0.652500
vn -1.0000 0.0000 0.0000
vn 0.0000 -1.0000 0.0000
vn 0.0000 1.0000 0.0000
vn 0.8779 0.0000 -0.4789
vn 0.7318 -0.6555 -0.1866
vn 0.7257 -0.6402 0.2519
vn -0.2751 -0.5441 0.7926
vn 0.7257 0.6402 0.2519
vn 0.7318 0.6555 -0.1866
vn -0.2751 0.5441 0.7926
usemtl None
s off
f 83/126/82 77/127/82 81/128/82 82/129/82
f 79/130/83 83/131/83 82/129/83
f 77/132/84 78/133/84 81/128/84
f 82/129/85 81/128/85 78/134/85 79/135/85
s 1
f 79/130/86 84/136/87 83/131/88
f 80/137/89 84/138/87 79/135/86 78/134/90
f 77/132/91 80/139/89 78/133/90
f 80/137/89 77/132/91 83/131/88 84/136/87
