# Blender v2.93.5 OBJ File: 'sim0.blend'
# www.blender.org
mtllib hole.mtl
o Cube.001_Cube.004
v 0.007000 -0.050000 0.013000
v 0.007000 0.050000 0.013000
v 0.007000 -0.050000 -0.013000
v 0.007000 0.050000 -0.013000
v 0.003000 -0.050000 0.018000
v 0.003000 0.050000 0.018000
v 0.000000 -0.050000 0.020000
v 0.000000 0.050000 0.020000
v -0.003000 0.050000 0.018000
v -0.007000 0.050000 0.013000
v -0.007000 -0.050000 0.013000
v -0.007000 -0.050000 -0.013000
v -0.007000 0.050000 -0.013000
v -0.003000 -0.050000 -0.018000
v -0.003000 0.050000 -0.018000
v 0.000000 -0.050000 -0.020000
v 0.000000 0.050000 -0.020000
v 0.003000 -0.050000 -0.018000
v 0.003000 0.050000 -0.018000
vt 0.750000 0.675000
vt 0.742500 0.670000
vt 0.732500 0.657500
vt 0.732500 0.592500
vt 0.742500 0.580000
vt 0.750000 0.575000
vt 0.757500 0.580000
vt 0.767500 0.592500
vt 0.767500 0.657500
vt 0.757500 0.670000
vt 0.479167 0.000000
vt 0.000000 0.000000
vt 0.000000 0.000000
vt 0.541667 0.000000
vt 0.000000 0.000000
vt 0.000000 0.000000
vt 0.000000 0.000000
vt 0.541667 0.000000
vt 0.000000 0.000000
vt 0.625000 1.000000
vt 0.000000 0.000000
vt 0.000000 0.000000
vt 0.625000 0.000000
vt 0.479167 1.000000
vt 0.000000 0.000000
vt 0.541667 1.000000
vt 0.625000 1.000000
vt 0.000000 0.000000
vt 0.625000 0.000000
vt 0.625000 1.000000
vt 0.000000 0.000000
vt 0.000000 0.000000
vt 0.541667 1.000000
vt 0.479167 1.000000
vt 0.479167 0.000000
vt 0.000000 0.000000
vt 0.541667 1.000000
vt 0.625000 0.000000
vt 0.625000 1.000000
vt 0.000000 0.000000
vt 0.541667 0.000000
vn 0.0000 1.0000 -0.0000
vn -0.5547 0.0000 0.8320
vn 0.1574 -0.9008 0.4046
vn 0.1286 -0.9214 -0.3665
vn -0.4991 -0.6741 -0.5444
vn 0.1286 -0.9214 0.3665
vn 0.7253 -0.6396 0.2544
vn -0.4991 -0.6741 0.5444
vn 0.4991 -0.6741 0.5444
vn -0.0942 -0.5960 0.7974
vn 0.7253 0.6396 0.2544
vn 0.1286 0.9214 0.3665
vn 0.4991 0.6741 0.5444
vn 0.0000 0.6010 0.7992
vn 0.1523 0.9075 0.3915
vn 0.1286 0.9214 -0.3665
vn -0.4991 0.6741 -0.5444
vn -0.6634 0.7483 0.0000
vn -0.6634 -0.7483 0.0000
vn -0.4991 0.6741 0.5444
vn -0.4835 0.6717 0.5612
usemtl None
s off
f 8/1/1 6/2/1 2/3/1 4/4/1 19/5/1 17/6/1 15/7/1 13/8/1 10/9/1 9/10/1
f 8/1/2 9/10/2 7/11/2
s 1
f 11/12/3 12/13/4 14/14/5
f 11/12/3 3/15/6 1/16/7
f 11/12/3 18/17/8 3/15/6
f 11/12/3 5/18/9 7/19/10
f 2/20/11 1/16/7 3/15/6 4/21/12
f 6/22/13 5/18/9 1/23/7 2/20/11
f 8/24/14 7/11/10 5/25/9 6/26/13
f 10/27/15 11/12/3 12/13/4 13/28/16
f 12/29/4 13/30/16 15/31/17 14/14/5
f 14/32/5 15/33/17 17/34/18 16/35/19
f 11/12/3 16/36/19 18/17/8
f 11/12/3 1/16/7 5/18/9
f 17/34/18 16/35/19 18/17/8 19/37/20
f 11/12/3 14/14/5 16/36/19
f 3/38/6 4/39/12 19/40/20 18/41/8
f 10/27/15 11/12/3 7/11/10 9/10/21
o Cube.002_Cube.005
v -0.050000 -0.100000 0.050000
v -0.050000 -0.100000 -0.050000
v 0.050000 -0.100000 0.050000
v 0.050000 -0.100000 -0.050000
v 0.016000 -0.050000 -0.015000
v 0.016000 -0.050000 0.015000
v 0.000000 -0.050000 0.029000
v 0.010000 -0.050000 0.025000
v -0.016000 -0.050000 -0.015000
v -0.016000 -0.050000 0.015000
v 0.000000 -0.050000 -0.029000
v 0.010000 -0.050000 -0.025000
vt 0.125000 0.500000
vt 0.375000 0.500000
vt 0.375000 0.750000
vt 0.125000 0.750000
vt 0.375000 0.250000
vt 0.000000 0.000000
vt 0.979167 0.000000
vt 0.000000 0.000000
vt 0.000000 0.000000
vt 0.000000 0.000000
vt 0.812500 0.000000
vt 0.000000 0.000000
vt 0.000000 0.000000
vt 0.000000 0.000000
vt 0.000000 0.000000
vt 0.375000 1.000000
vt 0.812500 0.000000
vt 0.000000 0.000000
vn 0.0000 -1.0000 0.0000
vn 0.0000 0.3872 -0.9220
vn 0.2955 0.6058 -0.7387
vn 0.6238 0.6862 -0.3743
vn 0.0000 1.0000 0.0000
vn 0.6238 0.6862 0.3743
vn 0.2955 0.6058 0.7387
vn 0.0000 0.3872 0.9220
vn 0.8269 0.5623 0.0000
vn -0.4716 0.6979 -0.5390
vn -0.4716 0.6979 0.5390
vn -0.8269 0.5623 0.0000
vn 0.2895 0.8790 -0.3788
vn -0.0572 0.8250 -0.5622
vn -0.4705 0.8671 -0.1636
vn 0.4792 0.8724 0.0959
vn 0.4792 0.8724 -0.0959
usemtl None
s off
f 21/42/22 23/43/22 22/44/22 20/45/22
f 21/46/23 30/47/23 23/43/23
f 30/48/24 31/49/24 23/43/24
f 31/49/25 24/50/25 23/43/25
f 31/49/26 28/51/26 29/52/26
f 31/49/26 29/52/26 26/53/26
f 31/49/26 26/53/26 27/54/26
f 31/49/26 27/54/26 25/55/26
f 25/55/27 27/54/27 22/56/27
f 27/54/28 26/53/28 22/56/28
f 26/53/29 20/57/29 22/44/29
f 22/56/30 23/43/30 24/50/30 25/58/30
f 28/51/31 30/48/31 21/46/31
f 29/52/32 20/59/32 26/53/32
f 28/51/33 21/46/33 20/59/33 29/52/33
s 1
f 31/49/34 30/48/35 28/51/36
f 31/49/34 25/55/37 24/50/38
o Cube.003_Cube.006
v 0.000000 -0.050000 0.029000
v 0.000000 0.050000 0.029000
v 0.010000 -0.050000 0.025000
v 0.010000 0.050000 0.025000
v 0.000000 0.050000 0.050000
v 0.025000 0.050000 0.050000
v 0.000000 -0.100000 0.050000
v 0.025000 -0.100000 0.050000
vt 0.000000 0.000000
vt 0.000000 0.000000
vt 0.000000 0.000000
vt 0.979167 0.000000
vt 0.000000 0.000000
vt 0.375000 0.875000
vt 0.625000 0.812500
vt 0.000000 0.000000
vt 0.375000 0.812500
vt 0.000000 0.000000
vt 0.625000 0.875000
vt 0.979167 1.000000
vn -0.3714 0.0000 -0.9285
vn -1.0000 0.0000 0.0000
vn 0.8575 0.0000 -0.5145
vn -0.1026 -0.4284 -0.8978
vn 0.0000 1.0000 0.0000
vn 0.0000 0.0000 1.0000
vn -0.5773 0.5773 0.5773
vn -0.6624 0.6000 -0.4485
vn -0.7503 -0.1573 -0.6421
usemtl None
s off
f 33/60/39 35/61/39 34/62/39 32/63/39
f 36/64/40 32/63/40 38/65/40
f 34/62/41 37/66/41 39/67/41
f 34/62/42 39/68/42 38/65/42 32/63/42
f 33/60/43 36/64/43 37/69/43 35/61/43
f 35/61/41 37/69/41 34/62/41
f 36/70/44 38/65/44 39/67/44 37/66/44
s 1
f 36/64/45 33/71/46 32/63/47
o Cube.004_Cube.007
v 0.050000 -0.100000 0.050000
v 0.050000 0.050000 0.050000
v 0.016000 -0.050000 0.015000
v 0.016000 0.050000 0.015000
v 0.010000 -0.050000 0.025000
v 0.010000 0.050000 0.025000
v 0.025000 0.050000 0.050000
v 0.025000 -0.100000 0.050000
vt 0.375000 0.812500
vt 0.812500 0.000000
vt 0.000000 0.000000
vt 0.375000 0.750000
vt 0.625000 0.750000
vt 0.000000 0.000000
vt 0.000000 0.000000
vt 0.000000 0.000000
vt 0.812500 1.000000
vt 0.000000 0.000000
vn 0.0000 -0.5735 -0.8192
vn 0.0000 0.0000 1.0000
vn -0.8575 0.0000 0.5145
vn 0.0000 1.0000 0.0000
vn 0.7173 0.0000 -0.6968
vn -0.7625 -0.4575 -0.4575
vn -0.8575 -0.0000 -0.5145
usemtl None
s off
f 47/72/48 42/73/48 40/74/48
f 40/75/49 41/76/49 46/77/49 47/72/49
f 45/78/50 47/72/50 46/77/50
f 43/79/51 46/77/51 41/76/51
f 43/80/52 41/76/52 40/74/52 42/73/52
f 43/79/51 45/78/51 46/77/51
f 44/81/50 47/72/50 45/78/50
f 44/81/53 42/73/53 47/72/53
f 42/73/54 44/81/54 45/78/54 43/79/54
o Cube.005_Cube.008
v 0.050000 -0.100000 0.050000
v 0.050000 0.050000 0.050000
v 0.016000 -0.050000 0.015000
v 0.016000 0.050000 0.015000
v 0.050000 0.050000 0.000000
v 0.016000 0.050000 0.000000
v 0.050000 -0.100000 0.000000
v 0.016000 -0.050000 0.000000
vt 0.000000 0.000000
vt 0.000000 0.000000
vt 0.710000 0.662500
vt 0.710000 0.625000
vt 0.000000 0.000000
vt 0.375000 0.750000
vt 0.000000 0.000000
vt 0.000000 0.000000
vt 0.625000 0.750000
vt 0.812500 0.000000
vt 0.625000 0.625000
vn -1.0000 0.0000 0.0000
vn -0.8269 -0.5623 0.0000
vn 0.0000 0.0000 -1.0000
vn 0.0000 1.0000 0.0000
vn -0.7173 0.0000 0.6968
vn 1.0000 0.0000 0.0000
vn 0.5773 0.5773 -0.5773
vn -0.5773 0.5773 -0.5773
vn -0.7185 0.6315 0.2915
usemtl None
s off
f 55/82/55 50/83/55 51/84/55 53/85/55
f 54/86/56 48/87/56 50/83/56 55/82/56
f 55/82/57 53/88/57 52/89/57
f 55/82/57 52/89/57 54/86/57
f 52/89/58 51/84/58 49/90/58
f 50/91/59 48/87/59 49/90/59 51/84/59
f 49/90/60 48/87/60 54/86/60 52/92/60
s 1
f 52/89/61 53/88/62 51/84/63
o Cube.008_Cube.011
v 0.000000 -0.050000 -0.029000
v 0.000000 0.050000 -0.029000
v 0.010000 -0.050000 -0.025000
v 0.010000 0.050000 -0.025000
v 0.000000 0.050000 -0.050000
v 0.025000 0.050000 -0.050000
v 0.000000 -0.100000 -0.050000
v 0.025000 -0.100000 -0.050000
vt 0.000000 0.000000
vt 0.979167 0.000000
vt 0.000000 0.000000
vt 0.000000 0.000000
vt 0.000000 0.000000
vt 0.375000 0.875000
vt 0.000000 0.000000
vt 0.625000 0.812500
vt 0.375000 0.812500
vt 0.000000 0.000000
vt 0.625000 0.875000
vt 0.979167 1.000000
vn -0.3714 0.0000 0.9285
vn -1.0000 0.0000 0.0000
vn 0.8575 0.0000 0.5145
vn -0.1026 -0.4284 0.8978
vn 0.0000 1.0000 -0.0000
vn 0.0000 0.0000 -1.0000
vn -0.5773 0.5773 -0.5773
vn -0.7503 -0.1573 0.6421
vn -0.6624 0.6000 0.4485
usemtl None
s off
f 57/93/64 56/94/64 58/95/64 59/96/64
f 60/97/65 62/98/65 56/94/65
f 58/95/66 63/99/66 61/100/66
f 58/95/67 56/94/67 62/98/67 63/101/67
f 57/93/68 59/96/68 61/102/68 60/97/68
f 59/96/66 58/95/66 61/102/66
f 60/103/69 61/100/69 63/99/69 62/98/69
s 1
f 60/97/70 56/94/71 57/104/72
o Cube.007_Cube.010
v 0.050000 -0.100000 -0.050000
v 0.050000 0.050000 -0.050000
v 0.016000 -0.050000 -0.015000
v 0.016000 0.050000 -0.015000
v 0.010000 -0.050000 -0.025000
v 0.010000 0.050000 -0.025000
v 0.025000 0.050000 -0.050000
v 0.025000 -0.100000 -0.050000
vt 0.375000 0.812500
vt 0.000000 0.000000
vt 0.812500 0.000000
vt 0.375000 0.750000
vt 0.000000 0.000000
vt 0.625000 0.750000
vt 0.000000 0.000000
vt 0.000000 0.000000
vt 0.812500 1.000000
vt 0.000000 0.000000
vn 0.0000 -0.5735 0.8192
vn 0.0000 0.0000 -1.0000
vn -0.8575 0.0000 -0.5145
vn 0.0000 1.0000 -0.0000
vn 0.7173 0.0000 0.6968
vn -0.7625 -0.4575 0.4575
vn -0.8575 -0.0000 0.5145
usemtl None
s off
f 71/105/73 64/106/73 66/107/73
f 64/108/74 71/105/74 70/109/74 65/110/74
f 69/111/75 70/109/75 71/105/75
f 67/112/76 65/110/76 70/109/76
f 67/113/77 66/107/77 64/106/77 65/110/77
f 67/112/76 70/109/76 69/111/76
f 68/114/75 69/111/75 71/105/75
f 68/114/78 71/105/78 66/107/78
f 66/107/79 67/112/79 69/111/79 68/114/79
o Cube.006_Cube.009
v 0.050000 -0.100000 -0.050000
v 0.050000 0.050000 -0.050000
v 0.016000 -0.050000 -0.015000
v 0.016000 0.050000 -0.015000
v 0.050000 0.050000 0.000000
v 0.016000 0.050000 0.000000
v 0.050000 -0.100000 0.000000
v 0.016000 -0.050000 0.000000
vt 0.000000 0.000000
vt 0.710000 0.625000
vt 0.710000 0.662500
vt 0.000000 0.000000
vt 0.000000 0.000000
vt 0.375000 0.750000
vt 0.000000 0.000000
vt 0.000000 0.000000
vt 0.625000 0.750000
vt 0.812500 0.000000
vt 0.625000 0.625000
vn -1.0000 0.0000 0.0000
vn -0.8269 -0.5623 0.0000
vn 0.0000 0.0000 1.0000
vn 0.0000 1.0000 0.0000
vn -0.7173 0.0000 -0.6968
vn 1.0000 0.0000 0.0000
vn 0.5773 0.5773 0.5773
vn -0.7185 0.6315 -0.2915
vn -0.5773 0.5773 0.5773
usemtl None
s off
f 79/115/80 77/116/80 75/117/80 74/118/80
f 78/119/81 79/115/81 74/118/81 72/120/81
f 79/115/82 76/121/82 77/122/82
f 79/115/82 78/119/82 76/121/82
f 76/121/83 73/123/83 75/117/83
f 74/124/84 75/117/84 73/123/84 72/120/84
f 73/123/85 76/125/85 78/119/85 72/120/85
s 1
f 76/121/86 75/117/87 77/122/88
o Cube.014_Cube.017
v 0.000000 -0.050000 0.029000
v 0.000000 0.050000 0.029000
v -0.010000 -0.050000 0.025000
v -0.010000 0.050000 0.025000
v 0.000000 0.050000 0.050000
v -0.025000 0.050000 0.050000
v 0.000000 -0.100000 0.050000
v -0.025000 -0.100000 0.050000
vt 0.000000 0.000000
vt 0.979167 0.000000
vt 0.000000 0.000000
vt 0.000000 0.000000
vt 0.000000 0.000000
vt 0.375000 0.875000
vt 0.000000 0.000000
vt 0.625000 0.812500
vt 0.375000 0.812500
vt 0.000000 0.000000
vt 0.625000 0.875000
vt 0.979167 1.000000
vn 0.3714 0.0000 -0.9285
vn 1.0000 0.0000 0.0000
vn -0.8575 0.0000 -0.5145
vn 0.1026 -0.4284 -0.8978
vn 0.0000 1.0000 0.0000
vn 0.0000 0.0000 1.0000
vn 0.5773 0.5773 0.5773
vn 0.7503 -0.1573 -0.6421
vn 0.6624 0.6000 -0.4485
usemtl None
s off
f 81/126/89 80/127/89 82/128/89 83/129/89
f 84/130/90 86/131/90 80/127/90
f 82/128/91 87/132/91 85/133/91
f 82/128/92 80/127/92 86/131/92 87/134/92
f 81/126/93 83/129/93 85/135/93 84/130/93
f 83/129/91 82/128/91 85/135/91
f 84/136/94 85/133/94 87/132/94 86/131/94
s 1
f 84/130/95 80/127/96 81/137/97
o Cube.013_Cube.016
v -0.050000 -0.100000 0.050000
v -0.050000 0.050000 0.050000
v -0.016000 -0.050000 0.015000
v -0.016000 0.050000 0.015000
v -0.010000 -0.050000 0.025000
v -0.010000 0.050000 0.025000
v -0.025000 0.050000 0.050000
v -0.025000 -0.100000 0.050000
vt 0.375000 0.812500
vt 0.000000 0.000000
vt 0.812500 0.000000
vt 0.375000 0.750000
vt 0.000000 0.000000
vt 0.625000 0.750000
vt 0.000000 0.000000
vt 0.000000 0.000000
vt 0.812500 1.000000
vt 0.000000 0.000000
vn 0.0000 -0.5735 -0.8192
vn 0.0000 0.0000 1.0000
vn 0.8575 0.0000 0.5145
vn 0.0000 1.0000 0.0000
vn -0.7173 0.0000 -0.6968
vn 0.7625 -0.4575 -0.4575
vn 0.8575 -0.0000 -0.5145
usemtl None
s off
f 95/138/98 88/139/98 90/140/98
f 88/141/99 95/138/99 94/142/99 89/143/99
f 93/144/100 94/142/100 95/138/100
f 91/145/101 89/143/101 94/142/101
f 91/146/102 90/140/102 88/139/102 89/143/102
f 91/145/101 94/142/101 93/144/101
f 92/147/100 93/144/100 95/138/100
f 92/147/103 95/138/103 90/140/103
f 90/140/104 91/145/104 93/144/104 92/147/104
o Cube.012_Cube.015
v -0.050000 -0.100000 0.050000
v -0.050000 0.050000 0.050000
v -0.016000 -0.050000 0.015000
v -0.016000 0.050000 0.015000
v -0.050000 0.050000 0.000000
v -0.016000 0.050000 0.000000
v -0.050000 -0.100000 0.000000
v -0.016000 -0.050000 0.000000
vt 0.000000 0.000000
vt 0.710000 0.625000
vt 0.710000 0.662500
vt 0.000000 0.000000
vt 0.000000 0.000000
vt 0.375000 0.750000
vt 0.000000 0.000000
vt 0.000000 0.000000
vt 0.625000 0.750000
vt 0.812500 0.000000
vt 0.625000 0.625000
vn 1.0000 0.0000 0.0000
vn 0.8269 -0.5623 0.0000
vn 0.0000 0.0000 -1.0000
vn 0.0000 1.0000 0.0000
vn 0.7173 0.0000 0.6968
vn -1.0000 0.0000 0.0000
vn -0.5773 0.5773 -0.5773
vn 0.7185 0.6315 0.2915
vn 0.5773 0.5773 -0.5773
usemtl None
s off
f 103/148/105 101/149/105 99/150/105 98/151/105
f 102/152/106 103/148/106 98/151/106 96/153/106
f 103/148/107 100/154/107 101/155/107
f 103/148/107 102/152/107 100/154/107
f 100/154/108 97/156/108 99/150/108
f 98/157/109 99/150/109 97/156/109 96/153/109
f 97/156/110 100/158/110 102/152/110 96/153/110
s 1
f 100/154/111 99/150/112 101/155/113
o Cube.011_Cube.014
v -0.050000 -0.100000 -0.050000
v -0.050000 0.050000 -0.050000
v -0.016000 -0.050000 -0.015000
v -0.016000 0.050000 -0.015000
v -0.050000 0.050000 0.000000
v -0.016000 0.050000 0.000000
v -0.050000 -0.100000 0.000000
v -0.016000 -0.050000 0.000000
vt 0.000000 0.000000
vt 0.000000 0.000000
vt 0.710000 0.662500
vt 0.710000 0.625000
vt 0.000000 0.000000
vt 0.375000 0.750000
vt 0.000000 0.000000
vt 0.000000 0.000000
vt 0.625000 0.750000
vt 0.812500 0.000000
vt 0.625000 0.625000
vn 1.0000 0.0000 0.0000
vn 0.8269 -0.5623 0.0000
vn 0.0000 0.0000 1.0000
vn 0.0000 1.0000 0.0000
vn 0.7173 0.0000 -0.6968
vn -1.0000 0.0000 0.0000
vn -0.5773 0.5773 0.5773
vn 0.5773 0.5773 0.5773
vn 0.7185 0.6315 -0.2915
usemtl None
s off
f 111/159/114 106/160/114 107/161/114 109/162/114
f 110/163/115 104/164/115 106/160/115 111/159/115
f 111/159/116 109/165/116 108/166/116
f 111/159/116 108/166/116 110/163/116
f 108/166/117 107/161/117 105/167/117
f 106/168/118 104/164/118 105/167/118 107/161/118
f 105/167/119 104/164/119 110/163/119 108/169/119
s 1
f 108/166/120 109/165/121 107/161/122
o Cube.010_Cube.013
v -0.050000 -0.100000 -0.050000
v -0.050000 0.050000 -0.050000
v -0.016000 -0.050000 -0.015000
v -0.016000 0.050000 -0.015000
v -0.010000 -0.050000 -0.025000
v -0.010000 0.050000 -0.025000
v -0.025000 0.050000 -0.050000
v -0.025000 -0.100000 -0.050000
vt 0.375000 0.812500
vt 0.812500 0.000000
vt 0.000000 0.000000
vt 0.375000 0.750000
vt 0.625000 0.750000
vt 0.000000 0.000000
vt 0.000000 0.000000
vt 0.000000 0.000000
vt 0.812500 1.000000
vt 0.000000 0.000000
vn 0.0000 -0.5735 0.8192
vn 0.0000 0.0000 -1.0000
vn 0.8575 0.0000 -0.5145
vn 0.0000 1.0000 -0.0000
vn -0.7173 0.0000 0.6968
vn 0.7625 -0.4575 0.4575
vn 0.8575 -0.0000 0.5145
usemtl None
s off
f 119/170/123 114/171/123 112/172/123
f 112/173/124 113/174/124 118/175/124 119/170/124
f 117/176/125 119/170/125 118/175/125
f 115/177/126 118/175/126 113/174/126
f 115/178/127 113/174/127 112/172/127 114/171/127
f 115/177/126 117/176/126 118/175/126
f 116/179/125 119/170/125 117/176/125
f 116/179/128 114/171/128 119/170/128
f 114/171/129 116/179/129 117/176/129 115/177/129
o Cube.009_Cube.012
v 0.000000 -0.050000 -0.029000
v 0.000000 0.050000 -0.029000
v -0.010000 -0.050000 -0.025000
v -0.010000 0.050000 -0.025000
v 0.000000 0.050000 -0.050000
v -0.025000 0.050000 -0.050000
v 0.000000 -0.100000 -0.050000
v -0.025000 -0.100000 -0.050000
vt 0.000000 0.000000
vt 0.000000 0.000000
vt 0.000000 0.000000
vt 0.979167 0.000000
vt 0.000000 0.000000
vt 0.375000 0.875000
vt 0.625000 0.812500
vt 0.000000 0.000000
vt 0.375000 0.812500
vt 0.000000 0.000000
vt 0.625000 0.875000
vt 0.979167 1.000000
vn 0.3714 0.0000 0.9285
vn 1.0000 0.0000 0.0000
vn -0.8575 0.0000 0.5145
vn 0.1026 -0.4284 0.8978
vn 0.0000 1.0000 -0.0000
vn 0.0000 0.0000 -1.0000
vn 0.5773 0.5773 -0.5773
vn 0.6624 0.6000 0.4485
vn 0.7503 -0.1573 0.6421
usemtl None
s off
f 121/180/130 123/181/130 122/182/130 120/183/130
f 124/184/131 120/183/131 126/185/131
f 122/182/132 125/186/132 127/187/132
f 122/182/133 127/188/133 126/185/133 120/183/133
f 121/180/134 124/184/134 125/189/134 123/181/134
f 123/181/132 125/189/132 122/182/132
f 124/190/135 126/185/135 127/187/135 125/186/135
s 1
f 124/184/136 121/191/137 120/183/138
