# Blender v2.93.5 OBJ File: 'sim0.blend'
# www.blender.org
mtllib hole_large.mtl
o Text.017_Text.052
v 0.002000 -0.050000 0.017000
v 0.002000 0.050000 0.017000
v 0.006000 -0.050000 0.013000
v 0.006000 0.050000 0.013000
v 0.006000 -0.050000 -0.013000
v 0.006000 0.050000 -0.013000
v 0.002000 -0.050000 -0.017000
v 0.002000 0.050000 -0.017000
v -0.006000 -0.050000 0.013000
v -0.006000 0.050000 0.013000
v 0.000000 -0.050000 0.019000
v 0.000000 0.050000 0.019000
v -0.002000 -0.050000 0.017000
v -0.002000 0.050000 0.017000
v 0.000000 -0.050000 -0.019000
v 0.000000 0.050000 -0.019000
v -0.002000 -0.050000 -0.017000
v -0.002000 0.050000 -0.017000
v -0.006000 -0.050000 -0.013000
v -0.006000 0.050000 -0.013000
vt 0.000000 0.000000
vt 0.000000 0.000000
vt 0.000000 0.000000
vt 0.000000 0.000000
vt 0.000000 0.000000
vt 0.000000 0.000000
vt 0.000000 0.000000
vt 0.625000 1.000000
vt 0.000000 0.000000
vt 0.000000 0.000000
vt 0.000000 0.000000
vt 0.000000 0.000000
vt 0.479167 0.000000
vt 0.479167 1.000000
vt 0.479167 0.000000
vn 0.0000 -1.0000 0.0000
vn 0.0000 1.0000 0.0000
vn -0.7173 0.6302 0.2971
vn -0.7173 -0.6302 0.2971
vn 0.0000 -0.5773 0.8165
vn 0.0000 0.5773 0.8165
vn -0.7173 -0.6302 -0.2971
vn -0.7173 0.6302 -0.2971
vn 0.7173 -0.6302 0.2971
vn 0.7173 0.6302 0.2971
vn 0.0000 -0.5773 -0.8165
vn 0.0000 0.5773 -0.8165
vn 0.7173 -0.6302 -0.2971
vn 0.7173 0.6302 -0.2971
usemtl None
s off
f 19/1/1 15/2/1 5/3/1
f 19/1/1 5/3/1 3/4/1
f 19/1/1 3/4/1 11/5/1
f 19/1/1 11/5/1 9/6/1
f 12/7/2 4/8/2 6/9/2
f 12/7/2 6/9/2 16/10/2
f 12/7/2 16/10/2 20/11/2
f 12/7/2 20/11/2 10/12/2
s 1
f 10/12/3 9/6/4 11/13/5 12/14/6
f 19/1/7 9/6/4 10/12/3 20/11/8
f 12/7/6 11/13/5 3/4/9 4/8/10
f 15/15/11 19/1/7 20/11/8 16/10/12
f 4/8/10 3/4/9 5/3/13 6/9/14
f 5/3/13 15/2/11 16/10/12 6/9/14
l 1 2
l 7 8
l 13 14
l 12 14
l 13 11
l 17 18
l 18 20
l 19 17
o Cube.016_Cube.021
v -0.050000 -0.100000 0.050000
v -0.050000 -0.100000 -0.050000
v 0.050000 -0.100000 0.050000
v 0.050000 -0.100000 -0.050000
v 0.017000 -0.050000 0.015000
v 0.011000 -0.050000 0.026000
v 0.000000 -0.050000 0.030000
v 0.017000 -0.050000 -0.015000
v 0.011000 -0.050000 -0.026000
v 0.000000 -0.050000 -0.030000
v -0.017000 -0.050000 -0.015000
v -0.017000 -0.050000 0.015000
v -0.011000 -0.050000 0.026000
v -0.011000 -0.050000 -0.026000
vt 0.125000 0.500000
vt 0.375000 0.500000
vt 0.375000 0.750000
vt 0.125000 0.750000
vt 0.979167 0.000000
vt 0.000000 0.000000
vt 0.375000 0.250000
vt 0.000000 0.000000
vt 0.000000 0.000000
vt 0.979167 0.000000
vt 0.000000 0.000000
vt 0.812500 0.000000
vt 0.000000 0.000000
vt 0.000000 0.000000
vt 0.000000 0.000000
vt 0.375000 1.000000
vt 0.000000 0.000000
vt 0.812500 0.000000
vt 0.000000 0.000000
vt 0.000000 0.000000
vt 0.000000 0.000000
vn 0.0000 -1.0000 0.0000
vn 0.2776 0.5831 -0.7635
vn 0.0000 0.3714 -0.9285
vn 0.0000 1.0000 0.0000
vn 0.6478 0.6749 0.3534
vn 0.0000 0.3714 0.9285
vn 0.8346 0.5508 0.0000
vn -0.6478 0.6749 -0.3534
vn -0.6478 0.6749 0.3534
vn -0.8346 0.5508 0.0000
vn 0.2977 0.8709 -0.3910
vn 0.0000 0.8197 -0.5728
vn -0.2977 0.8709 -0.3910
vn 0.2977 0.8709 0.3910
vn 0.0000 0.8197 0.5728
vn 0.6973 -0.3286 0.6369
vn 0.4853 0.8698 -0.0883
vn 0.6973 -0.3286 -0.6369
vn 0.4853 0.8698 0.0883
vn -0.4853 0.8698 -0.0883
vn -0.4853 0.8698 0.0883
vn -0.2977 0.8709 0.3910
vn -0.6973 -0.3286 -0.6369
vn -0.6973 -0.3286 0.6369
usemtl None
s off
f 22/16/15 24/17/15 23/18/15 21/19/15
f 30/20/16 29/21/16 24/17/16
f 22/22/17 30/23/17 24/17/17
f 29/21/18 33/24/18 27/25/18
f 29/21/18 31/26/18 32/27/18
f 25/28/19 26/29/19 23/30/19
f 27/25/20 21/31/20 23/18/20
f 29/21/18 27/25/18 26/29/18
f 23/30/21 24/17/21 28/32/21 25/33/21
f 31/26/22 34/34/22 22/22/22
f 33/24/23 32/35/23 21/36/23
f 31/26/24 22/22/24 21/36/24 32/27/24
s 1
f 29/21/25 30/20/26 34/34/27
f 26/29/28 27/25/29 23/30/30
f 29/21/25 28/32/31 24/17/32
f 29/21/25 26/29/28 25/28/33
f 29/21/25 25/28/33 28/32/31
f 29/21/25 34/34/27 31/26/34
f 29/21/25 32/27/35 33/24/36
f 34/34/27 30/20/26 22/22/37
f 33/24/36 21/31/38 27/25/29
o Cube.017_Cube.022
v 0.011000 -0.050000 0.026000
v 0.011000 0.050000 0.026000
v 0.000000 -0.050000 0.030000
v 0.000000 0.050000 0.030000
v 0.000000 0.050000 0.050000
v 0.025000 0.050000 0.050000
v 0.000000 -0.100000 0.050000
v 0.025000 -0.100000 0.050000
vt 0.000000 0.000000
vt 0.979167 0.000000
vt 0.895833 0.000000
vt 0.000000 0.000000
vt 0.000000 0.000000
vt 0.625000 0.812500
vt 0.722500 0.690000
vt 0.750000 0.700000
vt 0.000000 0.000000
vt 0.979167 1.000000
vt 0.375000 0.812500
vt 0.375000 0.875000
vt 0.895833 1.000000
vt 0.000000 0.000000
vn -0.1006 -0.4125 -0.9054
vn 0.0000 1.0000 0.0000
vn 0.8638 0.0000 -0.5039
vn -1.0000 0.0000 0.0000
vn 0.0000 0.0000 1.0000
vn -0.6565 0.5979 -0.4598
vn 0.2752 0.5874 -0.7611
vn 0.3393 -0.1476 -0.9290
vn -0.7463 -0.1507 -0.6483
vn 0.4794 -0.8581 0.1838
vn -0.6295 -0.7573 0.1737
usemtl None
s off
f 41/37/39 37/38/39 35/39/39 42/40/39
f 39/41/40 40/42/40 36/43/40 38/44/40
f 42/40/41 36/45/41 40/42/41
f 38/46/42 41/37/42 39/41/42
f 42/47/43 40/42/43 39/41/43 41/48/43
s 1
f 38/46/44 36/49/45 35/50/46 37/38/47
f 42/40/48 35/39/46 36/45/45
f 38/46/44 37/38/47 41/37/49
o Cube.018_Cube.023
v 0.050000 -0.100000 0.050000
v 0.050000 0.050000 0.050000
v 0.017000 -0.050000 0.015000
v 0.017000 0.050000 0.015000
v 0.011000 -0.050000 0.026000
v 0.011000 0.050000 0.026000
v 0.025000 0.050000 0.050000
v 0.025000 -0.100000 0.050000
vt 0.895833 1.000000
vt 0.000000 0.000000
vt 0.000000 0.000000
vt 0.375000 0.750000
vt 0.625000 0.750000
vt 0.375000 0.812500
vt 0.707500 0.662500
vt 0.812500 0.000000
vt 0.000000 0.000000
vt 0.000000 0.000000
vt 0.000000 0.000000
vt 0.812500 1.000000
vt 0.895833 0.000000
vt 0.722500 0.690000
vt 0.000000 0.000000
vt 0.000000 0.000000
vn -0.8638 0.0000 0.5039
vn 0.0000 0.0000 1.0000
vn 0.0000 1.0000 0.0000
vn 0.0000 -0.5735 -0.8192
vn 0.7276 0.0000 -0.6860
vn -0.7912 0.6114 0.0114
vn -0.1058 0.5625 -0.8199
vn -0.1636 -0.2101 -0.9639
vn -0.9875 -0.1517 -0.0414
vn -0.4707 -0.8386 0.2743
vn -0.3945 0.6103 0.6869
usemtl None
s off
f 48/51/50 50/52/50 49/53/50
f 43/54/51 44/55/51 49/53/51 50/56/51
f 46/57/52 49/53/52 44/55/52
f 50/56/53 45/58/53 43/59/53
f 46/60/54 44/55/54 43/59/54 45/58/54
s 1
f 48/61/55 46/62/56 45/58/57 47/63/58
f 48/51/55 47/63/58 50/52/59
f 46/57/56 48/64/55 49/53/60
f 47/65/58 45/66/57 50/56/59
o Cube.019_Cube.024
v 0.050000 -0.100000 0.050000
v 0.050000 0.050000 0.050000
v 0.017000 -0.050000 0.015000
v 0.017000 0.050000 0.015000
v 0.050000 0.050000 0.000000
v 0.050000 -0.100000 0.000000
v 0.017000 0.050000 0.000000
v 0.017000 -0.050000 0.000000
vt 0.000000 0.000000
vt 0.000000 0.000000
vt 0.812500 1.000000
vt 0.000000 0.000000
vt 0.000000 0.000000
vt 0.625000 0.750000
vt 0.375000 0.750000
vt 0.625000 0.625000
vt 0.812500 0.000000
vt 0.000000 0.000000
vt 0.000000 0.000000
vt 0.729167 1.000000
vn 0.0000 1.0000 0.0000
vn 0.0000 0.0000 -1.0000
vn 1.0000 0.0000 0.0000
vn -0.7276 0.0000 0.6860
vn -0.8346 -0.5508 0.0000
vn -1.0000 0.0000 0.0000
usemtl None
s off
f 55/67/61 57/68/61 54/69/61
f 58/70/62 55/67/62 56/71/62
f 58/70/62 57/68/62 55/67/62
f 52/72/63 51/73/63 56/71/63 55/74/63
f 53/75/64 51/73/64 52/76/64 54/69/64
f 55/67/61 54/69/61 52/76/61
f 56/71/65 51/73/65 53/77/65 58/70/65
f 58/70/66 53/77/66 54/69/66 57/78/66
o Cube.022_Cube.027
v 0.011000 -0.050000 -0.026000
v 0.011000 0.050000 -0.026000
v 0.000000 -0.050000 -0.030000
v 0.000000 0.050000 -0.030000
v 0.000000 0.050000 -0.050000
v 0.025000 0.050000 -0.050000
v 0.000000 -0.100000 -0.050000
v 0.025000 -0.100000 -0.050000
vt 0.000000 0.000000
vt 0.000000 0.000000
vt 0.895833 0.000000
vt 0.979167 0.000000
vt 0.000000 0.000000
vt 0.750000 0.700000
vt 0.722500 0.690000
vt 0.625000 0.812500
vt 0.000000 0.000000
vt 0.979167 1.000000
vt 0.375000 0.812500
vt 0.375000 0.875000
vt 0.000000 0.000000
vt 0.895833 1.000000
vn -0.1006 -0.4125 0.9054
vn 0.0000 1.0000 -0.0000
vn 0.8638 0.0000 0.5039
vn -1.0000 0.0000 0.0000
vn 0.0000 0.0000 -1.0000
vn -0.6565 0.5979 0.4598
vn -0.7463 -0.1507 0.6483
vn 0.3393 -0.1476 0.9290
vn 0.2752 0.5874 0.7611
vn 0.4794 -0.8581 -0.1838
vn -0.6295 -0.7573 -0.1737
usemtl None
s off
f 65/79/67 66/80/67 59/81/67 61/82/67
f 63/83/68 62/84/68 60/85/68 64/86/68
f 66/80/69 64/86/69 60/87/69
f 62/88/70 63/83/70 65/79/70
f 66/89/71 65/90/71 63/83/71 64/86/71
s 1
f 62/88/72 61/82/73 59/91/74 60/92/75
f 66/80/76 60/87/75 59/81/74
f 62/88/72 65/79/77 61/82/73
o Cube.021_Cube.026
v 0.050000 -0.100000 -0.050000
v 0.050000 0.050000 -0.050000
v 0.017000 -0.050000 -0.015000
v 0.017000 0.050000 -0.015000
v 0.011000 -0.050000 -0.026000
v 0.011000 0.050000 -0.026000
v 0.025000 0.050000 -0.050000
v 0.025000 -0.100000 -0.050000
vt 0.895833 1.000000
vt 0.000000 0.000000
vt 0.000000 0.000000
vt 0.375000 0.750000
vt 0.375000 0.812500
vt 0.625000 0.750000
vt 0.707500 0.662500
vt 0.000000 0.000000
vt 0.812500 0.000000
vt 0.000000 0.000000
vt 0.000000 0.000000
vt 0.895833 0.000000
vt 0.812500 1.000000
vt 0.722500 0.690000
vt 0.000000 0.000000
vt 0.000000 0.000000
vn -0.8638 0.0000 -0.5039
vn 0.0000 0.0000 -1.0000
vn 0.0000 1.0000 0.0000
vn 0.0000 -0.5735 0.8192
vn 0.7276 0.0000 0.6860
vn -0.7912 0.6114 -0.0114
vn -0.9875 -0.1517 0.0414
vn -0.1636 -0.2101 0.9639
vn -0.1058 0.5625 0.8199
vn -0.4707 -0.8386 -0.2743
vn -0.3945 0.6103 -0.6869
usemtl None
s off
f 72/93/78 73/94/78 74/95/78
f 67/96/79 74/97/79 73/94/79 68/98/79
f 70/99/80 68/98/80 73/94/80
f 74/97/81 67/100/81 69/101/81
f 70/102/82 69/101/82 67/100/82 68/98/82
s 1
f 72/103/83 71/104/84 69/101/85 70/105/86
f 72/93/83 74/95/87 71/104/84
f 70/99/86 73/94/88 72/106/83
f 71/107/84 74/97/87 69/108/85
o Cube.020_Cube.025
v 0.050000 -0.100000 -0.050000
v 0.050000 0.050000 -0.050000
v 0.017000 -0.050000 -0.015000
v 0.017000 0.050000 -0.015000
v 0.050000 0.050000 0.000000
v 0.050000 -0.100000 0.000000
v 0.017000 0.050000 0.000000
v 0.017000 -0.050000 0.000000
vt 0.000000 0.000000
vt 0.812500 1.000000
vt 0.000000 0.000000
vt 0.000000 0.000000
vt 0.000000 0.000000
vt 0.625000 0.750000
vt 0.625000 0.625000
vt 0.375000 0.750000
vt 0.812500 0.000000
vt 0.000000 0.000000
vt 0.000000 0.000000
vt 0.729167 1.000000
vn 0.0000 1.0000 0.0000
vn 0.0000 0.0000 1.0000
vn 1.0000 0.0000 0.0000
vn -0.7276 0.0000 -0.6860
vn -0.8346 -0.5508 0.0000
vn -1.0000 0.0000 0.0000
usemtl None
s off
f 79/109/89 78/110/89 81/111/89
f 82/112/90 80/113/90 79/109/90
f 82/112/90 79/109/90 81/111/90
f 76/114/91 79/115/91 80/113/91 75/116/91
f 77/117/92 78/110/92 76/118/92 75/116/92
f 79/109/89 76/118/89 78/110/89
f 80/113/93 82/112/93 77/119/93 75/116/93
f 82/112/94 81/120/94 78/110/94 77/119/94
o Cube.028_Cube.033
v -0.011000 -0.050000 0.026000
v -0.011000 0.050000 0.026000
v 0.000000 -0.050000 0.030000
v 0.000000 0.050000 0.030000
v 0.000000 0.050000 0.050000
v -0.025000 0.050000 0.050000
v 0.000000 -0.100000 0.050000
v -0.025000 -0.100000 0.050000
vt 0.000000 0.000000
vt 0.000000 0.000000
vt 0.895833 0.000000
vt 0.979167 0.000000
vt 0.000000 0.000000
vt 0.750000 0.700000
vt 0.722500 0.690000
vt 0.625000 0.812500
vt 0.000000 0.000000
vt 0.979167 1.000000
vt 0.375000 0.812500
vt 0.375000 0.875000
vt 0.000000 0.000000
vt 0.895833 1.000000
vn 0.1006 -0.4125 -0.9054
vn 0.0000 1.0000 0.0000
vn -0.8638 0.0000 -0.5039
vn 1.0000 0.0000 0.0000
vn 0.0000 0.0000 1.0000
vn 0.6565 0.5979 -0.4598
vn 0.7463 -0.1507 -0.6483
vn -0.3393 -0.1476 -0.9290
vn -0.2752 0.5874 -0.7611
vn -0.4794 -0.8581 0.1838
vn 0.6295 -0.7573 0.1737
usemtl None
s off
f 89/121/95 90/122/95 83/123/95 85/124/95
f 87/125/96 86/126/96 84/127/96 88/128/96
f 90/122/97 88/128/97 84/129/97
f 86/130/98 87/125/98 89/121/98
f 90/131/99 89/132/99 87/125/99 88/128/99
s 1
f 86/130/100 85/124/101 83/133/102 84/134/103
f 90/122/104 84/129/103 83/123/102
f 86/130/100 89/121/105 85/124/101
o Cube.027_Cube.032
v -0.050000 -0.100000 0.050000
v -0.050000 0.050000 0.050000
v -0.017000 -0.050000 0.015000
v -0.017000 0.050000 0.015000
v -0.011000 -0.050000 0.026000
v -0.011000 0.050000 0.026000
v -0.025000 0.050000 0.050000
v -0.025000 -0.100000 0.050000
vt 0.895833 1.000000
vt 0.000000 0.000000
vt 0.000000 0.000000
vt 0.375000 0.750000
vt 0.375000 0.812500
vt 0.625000 0.750000
vt 0.707500 0.662500
vt 0.000000 0.000000
vt 0.812500 0.000000
vt 0.000000 0.000000
vt 0.000000 0.000000
vt 0.895833 0.000000
vt 0.812500 1.000000
vt 0.722500 0.690000
vt 0.000000 0.000000
vt 0.000000 0.000000
vn 0.8638 0.0000 0.5039
vn 0.0000 0.0000 1.0000
vn 0.0000 1.0000 0.0000
vn 0.0000 -0.5735 -0.8192
vn -0.7276 0.0000 -0.6860
vn 0.7912 0.6114 0.0114
vn 0.9875 -0.1517 -0.0414
vn 0.1636 -0.2101 -0.9639
vn 0.1058 0.5625 -0.8199
vn 0.4707 -0.8386 0.2743
vn 0.3945 0.6103 0.6869
usemtl None
s off
f 96/135/106 97/136/106 98/137/106
f 91/138/107 98/139/107 97/136/107 92/140/107
f 94/141/108 92/140/108 97/136/108
f 98/139/109 91/142/109 93/143/109
f 94/144/110 93/143/110 91/142/110 92/140/110
s 1
f 96/145/111 95/146/112 93/143/113 94/147/114
f 96/135/111 98/137/115 95/146/112
f 94/141/114 97/136/116 96/148/111
f 95/149/112 98/139/115 93/150/113
o Cube.026_Cube.031
v -0.050000 -0.100000 0.050000
v -0.050000 0.050000 0.050000
v -0.017000 -0.050000 0.015000
v -0.017000 0.050000 0.015000
v -0.050000 0.050000 0.000000
v -0.050000 -0.100000 0.000000
v -0.017000 0.050000 0.000000
v -0.017000 -0.050000 0.000000
vt 0.000000 0.000000
vt 0.812500 1.000000
vt 0.000000 0.000000
vt 0.000000 0.000000
vt 0.000000 0.000000
vt 0.625000 0.750000
vt 0.625000 0.625000
vt 0.375000 0.750000
vt 0.812500 0.000000
vt 0.000000 0.000000
vt 0.000000 0.000000
vt 0.729167 1.000000
vn 0.0000 1.0000 0.0000
vn 0.0000 0.0000 -1.0000
vn -1.0000 0.0000 0.0000
vn 0.7276 0.0000 0.6860
vn 0.8346 -0.5508 0.0000
vn 1.0000 0.0000 0.0000
usemtl None
s off
f 103/151/117 102/152/117 105/153/117
f 106/154/118 104/155/118 103/151/118
f 106/154/118 103/151/118 105/153/118
f 100/156/119 103/157/119 104/155/119 99/158/119
f 101/159/120 102/152/120 100/160/120 99/158/120
f 103/151/117 100/160/117 102/152/117
f 104/155/121 106/154/121 101/161/121 99/158/121
f 106/154/122 105/162/122 102/152/122 101/161/122
o Cube.025_Cube.030
v -0.050000 -0.100000 -0.050000
v -0.050000 0.050000 -0.050000
v -0.017000 -0.050000 -0.015000
v -0.017000 0.050000 -0.015000
v -0.050000 0.050000 0.000000
v -0.050000 -0.100000 0.000000
v -0.017000 0.050000 0.000000
v -0.017000 -0.050000 0.000000
vt 0.000000 0.000000
vt 0.000000 0.000000
vt 0.812500 1.000000
vt 0.000000 0.000000
vt 0.000000 0.000000
vt 0.625000 0.750000
vt 0.375000 0.750000
vt 0.625000 0.625000
vt 0.812500 0.000000
vt 0.000000 0.000000
vt 0.000000 0.000000
vt 0.729167 1.000000
vn 0.0000 1.0000 0.0000
vn 0.0000 0.0000 1.0000
vn -1.0000 0.0000 0.0000
vn 0.7276 0.0000 -0.6860
vn 0.8346 -0.5508 0.0000
vn 1.0000 0.0000 0.0000
usemtl None
s off
f 111/163/123 113/164/123 110/165/123
f 114/166/124 111/163/124 112/167/124
f 114/166/124 113/164/124 111/163/124
f 108/168/125 107/169/125 112/167/125 111/170/125
f 109/171/126 107/169/126 108/172/126 110/165/126
f 111/163/123 110/165/123 108/172/123
f 112/167/127 107/169/127 109/173/127 114/166/127
f 114/166/128 109/173/128 110/165/128 113/174/128
o Cube.024_Cube.029
v -0.050000 -0.100000 -0.050000
v -0.050000 0.050000 -0.050000
v -0.017000 -0.050000 -0.015000
v -0.017000 0.050000 -0.015000
v -0.011000 -0.050000 -0.026000
v -0.011000 0.050000 -0.026000
v -0.025000 0.050000 -0.050000
v -0.025000 -0.100000 -0.050000
vt 0.895833 1.000000
vt 0.000000 0.000000
vt 0.000000 0.000000
vt 0.375000 0.750000
vt 0.625000 0.750000
vt 0.375000 0.812500
vt 0.707500 0.662500
vt 0.812500 0.000000
vt 0.000000 0.000000
vt 0.000000 0.000000
vt 0.000000 0.000000
vt 0.812500 1.000000
vt 0.895833 0.000000
vt 0.722500 0.690000
vt 0.000000 0.000000
vt 0.000000 0.000000
vn 0.8638 0.0000 -0.5039
vn 0.0000 0.0000 -1.0000
vn 0.0000 1.0000 0.0000
vn 0.0000 -0.5735 0.8192
vn -0.7276 0.0000 0.6860
vn 0.7912 0.6114 -0.0114
vn 0.1058 0.5625 0.8199
vn 0.1636 -0.2101 0.9639
vn 0.9875 -0.1517 0.0414
vn 0.4707 -0.8386 -0.2743
vn 0.3945 0.6103 -0.6869
usemtl None
s off
f 120/175/129 122/176/129 121/177/129
f 115/178/130 116/179/130 121/177/130 122/180/130
f 118/181/131 121/177/131 116/179/131
f 122/180/132 117/182/132 115/183/132
f 118/184/133 116/179/133 115/183/133 117/182/133
s 1
f 120/185/134 118/186/135 117/182/136 119/187/137
f 120/175/134 119/187/137 122/176/138
f 118/181/135 120/188/134 121/177/139
f 119/189/137 117/190/136 122/180/138
o Cube.023_Cube.028
v -0.011000 -0.050000 -0.026000
v -0.011000 0.050000 -0.026000
v 0.000000 -0.050000 -0.030000
v 0.000000 0.050000 -0.030000
v 0.000000 0.050000 -0.050000
v -0.025000 0.050000 -0.050000
v 0.000000 -0.100000 -0.050000
v -0.025000 -0.100000 -0.050000
vt 0.000000 0.000000
vt 0.979167 0.000000
vt 0.895833 0.000000
vt 0.000000 0.000000
vt 0.000000 0.000000
vt 0.625000 0.812500
vt 0.722500 0.690000
vt 0.750000 0.700000
vt 0.000000 0.000000
vt 0.979167 1.000000
vt 0.375000 0.812500
vt 0.375000 0.875000
vt 0.895833 1.000000
vt 0.000000 0.000000
vn 0.1006 -0.4125 0.9054
vn 0.0000 1.0000 -0.0000
vn -0.8638 0.0000 0.5039
vn 1.0000 0.0000 0.0000
vn 0.0000 0.0000 -1.0000
vn 0.6565 0.5979 0.4598
vn -0.2752 0.5874 0.7611
vn -0.3393 -0.1476 0.9290
vn 0.7463 -0.1507 0.6483
vn -0.4794 -0.8581 -0.1838
vn 0.6295 -0.7573 -0.1737
usemtl None
s off
f 129/191/140 125/192/140 123/193/140 130/194/140
f 127/195/141 128/196/141 124/197/141 126/198/141
f 130/194/142 124/199/142 128/196/142
f 126/200/143 129/191/143 127/195/143
f 130/201/144 128/196/144 127/195/144 129/202/144
s 1
f 126/200/145 124/203/146 123/204/147 125/192/148
f 130/194/149 123/193/147 124/199/146
f 126/200/145 125/192/148 129/191/150
