# Blender v2.93.5 OBJ File: 'sim0.blend'
# www.blender.org
mtllib peg.mtl
o Text.009_Text.012
v 0.015000 -0.050000 -0.015000
v 0.015000 0.050000 -0.015000
v 0.015000 -0.050000 0.015000
v 0.015000 0.050000 0.015000
v 0.008000 -0.050000 0.013000
v 0.008000 0.050000 0.013000
v 0.008000 -0.050000 -0.013000
v 0.008000 0.050000 -0.013000
vt 0.000000 0.000000
vt 0.000000 0.000000
vt 0.000000 0.000000
vt 0.000000 0.000000
vt 0.000000 0.000000
vt 0.645833 1.000000
vt 0.000000 0.000000
vt 0.000000 0.000000
vt 0.812500 1.000000
vt 0.812500 0.000000
vt 0.625000 1.000000
vt 0.625000 0.000000
vt 0.833333 1.000000
vt 0.833333 0.000000
vn 0.0000 -1.0000 0.0000
vn 0.0000 1.0000 0.0000
vn 0.4972 -0.5641 -0.6592
vn 0.4972 0.5641 -0.6592
vn 0.4972 0.5641 0.6592
vn 0.4972 -0.5641 0.6592
vn -0.6426 0.5934 0.4847
vn -0.6426 0.5934 -0.4847
vn -0.6426 -0.5934 -0.4847
vn -0.6426 -0.5934 0.4847
usemtl None
s off
f 7/1/1 1/2/1 3/3/1 5/4/1
f 4/5/2 2/6/2 8/7/2 6/8/2
s 1
f 1/2/3 2/6/4 4/9/5 3/10/6
f 6/11/7 8/7/8 7/1/9 5/4/10
f 3/3/6 4/9/5 6/11/7 5/12/10
f 8/13/8 2/6/4 1/2/3 7/14/9
o Text.008_Text.014
v 0.015000 -0.050000 0.015000
v 0.015000 0.050000 0.015000
v 0.009000 -0.050000 0.024000
v 0.009000 0.050000 0.024000
v 0.004000 -0.050000 0.019000
v 0.004000 0.050000 0.019000
v 0.008000 -0.050000 0.013000
v 0.008000 0.050000 0.013000
vt 0.000000 0.000000
vt 0.000000 0.000000
vt 0.000000 0.000000
vt 0.000000 0.000000
vt 0.000000 0.000000
vt 0.541667 0.000000
vt 0.000000 0.000000
vt 0.000000 0.000000
vt 0.812500 0.000000
vt 0.895833 0.000000
vt 0.812500 1.000000
vt 0.895833 1.000000
vt 0.625000 0.000000
vt 0.625000 1.000000
vn 0.0000 1.0000 0.0000
vn 0.0000 -1.0000 -0.0000
vn 0.7758 -0.5628 -0.2852
vn -0.2772 -0.5954 -0.7541
vn -0.2772 0.5954 -0.7541
vn 0.7758 0.5628 -0.2852
vn 0.0811 0.5676 0.8192
vn 0.0811 -0.5676 0.8192
vn -0.8046 0.5884 0.0797
vn -0.8046 -0.5884 0.0797
usemtl None
s off
f 16/15/11 14/16/11 12/17/11 10/18/11
f 11/19/12 13/20/12 15/21/12 9/22/12
s 1
f 9/23/13 15/21/14 16/15/15 10/18/16
f 12/17/17 11/24/18 9/23/13 10/25/16
f 14/16/19 13/20/20 11/24/18 12/26/17
f 15/27/14 13/20/20 14/16/19 16/28/15
o Text.007_Text.013
v 0.009000 -0.050000 0.024000
v 0.009000 0.050000 0.024000
v 0.000000 -0.050000 0.028000
v 0.000000 0.050000 0.028000
v 0.000000 -0.050000 0.021000
v 0.000000 0.050000 0.021000
v 0.004000 -0.050000 0.019000
v 0.004000 0.050000 0.019000
vt 0.000000 0.000000
vt 0.541667 1.000000
vt 0.000000 0.000000
vt 0.000000 0.000000
vt 0.000000 0.000000
vt 0.000000 0.000000
vt 0.000000 0.000000
vt 0.000000 0.000000
vt 0.895833 1.000000
vt 0.979167 1.000000
vt 0.979167 0.000000
vt 0.895833 0.000000
vt 0.479167 1.000000
vt 0.479167 0.000000
vn 0.0000 1.0000 0.0000
vn 0.0000 -1.0000 0.0000
vn 0.8142 -0.5604 0.1512
vn 0.8142 0.5604 0.1512
vn -0.4520 0.5585 0.6955
vn -0.4520 -0.5585 0.6955
vn 0.1286 -0.5962 -0.7925
vn 0.1286 0.5962 -0.7925
vn -0.6768 0.6057 -0.4183
vn -0.6768 -0.6057 -0.4183
usemtl None
s off
f 18/29/21 24/30/21 22/31/21 20/32/21
f 21/33/22 23/34/22 17/35/22 19/36/22
s 1
f 17/35/23 18/37/24 20/38/25 19/39/26
f 23/34/27 24/30/28 18/37/24 17/40/23
f 22/41/29 24/30/28 23/34/27 21/42/30
f 20/38/25 22/31/29 21/33/30 19/36/26
o Text.011_Text.016
v 0.009000 -0.050000 -0.024000
v 0.009000 0.050000 -0.024000
v 0.000000 -0.050000 -0.028000
v 0.000000 0.050000 -0.028000
v 0.000000 -0.050000 -0.021000
v 0.000000 0.050000 -0.021000
v 0.004000 -0.050000 -0.019000
v 0.004000 0.050000 -0.019000
vt 0.000000 0.000000
vt 0.000000 0.000000
vt 0.000000 0.000000
vt 0.541667 1.000000
vt 0.000000 0.000000
vt 0.000000 0.000000
vt 0.000000 0.000000
vt 0.000000 0.000000
vt 0.979167 0.000000
vt 0.979167 1.000000
vt 0.895833 1.000000
vt 0.895833 0.000000
vt 0.479167 1.000000
vt 0.479167 0.000000
vn 0.0000 1.0000 0.0000
vn 0.0000 -1.0000 0.0000
vn 0.8142 -0.5604 -0.1512
vn -0.4520 -0.5585 -0.6955
vn -0.4520 0.5585 -0.6955
vn 0.8142 0.5604 -0.1512
vn 0.1286 -0.5962 0.7925
vn 0.1286 0.5962 0.7925
vn -0.6768 0.6057 0.4183
vn -0.6768 -0.6057 0.4183
usemtl None
s off
f 26/43/31 28/44/31 30/45/31 32/46/31
f 29/47/32 27/48/32 25/49/32 31/50/32
s 1
f 25/49/33 27/51/34 28/52/35 26/53/36
f 31/50/37 25/54/33 26/53/36 32/46/38
f 30/55/39 29/56/40 31/50/37 32/46/38
f 28/52/35 27/48/34 29/47/40 30/45/39
o Text.010_Text.015
v 0.015000 -0.050000 -0.015000
v 0.015000 0.050000 -0.015000
v 0.009000 -0.050000 -0.024000
v 0.009000 0.050000 -0.024000
v 0.004000 -0.050000 -0.019000
v 0.004000 0.050000 -0.019000
v 0.008000 -0.050000 -0.013000
v 0.008000 0.050000 -0.013000
vt 0.000000 0.000000
vt 0.000000 0.000000
vt 0.000000 0.000000
vt 0.000000 0.000000
vt 0.000000 0.000000
vt 0.000000 0.000000
vt 0.000000 0.000000
vt 0.541667 0.000000
vt 0.812500 0.000000
vt 0.812500 1.000000
vt 0.895833 0.000000
vt 0.895833 1.000000
vt 0.625000 0.000000
vt 0.625000 1.000000
vn 0.0000 1.0000 0.0000
vn 0.0000 -1.0000 0.0000
vn 0.7758 -0.5628 0.2852
vn 0.7758 0.5628 0.2852
vn -0.2772 0.5954 0.7541
vn -0.2772 -0.5954 0.7541
vn 0.0811 0.5676 -0.8192
vn 0.0811 -0.5676 -0.8192
vn -0.8046 0.5884 -0.0797
vn -0.8046 -0.5884 -0.0797
usemtl None
s off
f 40/57/41 34/58/41 36/59/41 38/60/41
f 35/61/42 33/62/42 39/63/42 37/64/42
s 1
f 33/65/43 34/58/44 40/57/45 39/63/46
f 36/59/47 34/66/44 33/65/43 35/67/48
f 38/60/49 36/68/47 35/67/48 37/64/50
f 39/69/46 40/70/45 38/60/49 37/64/50
o Text.016_Text.021
v -0.009000 -0.050000 0.024000
v -0.009000 0.050000 0.024000
v 0.000000 -0.050000 0.028000
v 0.000000 0.050000 0.028000
v 0.000000 -0.050000 0.021000
v 0.000000 0.050000 0.021000
v -0.004000 -0.050000 0.019000
v -0.004000 0.050000 0.019000
vt 0.000000 0.000000
vt 0.000000 0.000000
vt 0.000000 0.000000
vt 0.541667 1.000000
vt 0.000000 0.000000
vt 0.000000 0.000000
vt 0.000000 0.000000
vt 0.000000 0.000000
vt 0.979167 0.000000
vt 0.979167 1.000000
vt 0.895833 1.000000
vt 0.895833 0.000000
vt 0.479167 1.000000
vt 0.479167 0.000000
vn 0.0000 1.0000 0.0000
vn 0.0000 -1.0000 0.0000
vn -0.8142 -0.5604 0.1512
vn 0.4520 -0.5585 0.6955
vn 0.4520 0.5585 0.6955
vn -0.8142 0.5604 0.1512
vn -0.1286 -0.5962 -0.7925
vn -0.1286 0.5962 -0.7925
vn 0.6768 0.6057 -0.4183
vn 0.6768 -0.6057 -0.4183
usemtl None
s off
f 42/71/51 44/72/51 46/73/51 48/74/51
f 45/75/52 43/76/52 41/77/52 47/78/52
s 1
f 41/77/53 43/79/54 44/80/55 42/81/56
f 47/78/57 41/82/53 42/81/56 48/74/58
f 46/83/59 45/84/60 47/78/57 48/74/58
f 44/80/55 43/76/54 45/75/60 46/73/59
o Text.015_Text.020
v -0.015000 -0.050000 0.015000
v -0.015000 0.050000 0.015000
v -0.009000 -0.050000 0.024000
v -0.009000 0.050000 0.024000
v -0.004000 -0.050000 0.019000
v -0.004000 0.050000 0.019000
v -0.008000 -0.050000 0.013000
v -0.008000 0.050000 0.013000
vt 0.000000 0.000000
vt 0.000000 0.000000
vt 0.000000 0.000000
vt 0.000000 0.000000
vt 0.000000 0.000000
vt 0.000000 0.000000
vt 0.000000 0.000000
vt 0.541667 0.000000
vt 0.812500 0.000000
vt 0.812500 1.000000
vt 0.895833 0.000000
vt 0.895833 1.000000
vt 0.625000 0.000000
vt 0.625000 1.000000
vn 0.0000 1.0000 0.0000
vn 0.0000 -1.0000 -0.0000
vn -0.7758 -0.5628 -0.2852
vn -0.7758 0.5628 -0.2852
vn 0.2772 0.5954 -0.7541
vn 0.2772 -0.5954 -0.7541
vn -0.0811 0.5676 0.8192
vn -0.0811 -0.5676 0.8192
vn 0.8046 0.5884 0.0797
vn 0.8046 -0.5884 0.0797
usemtl None
s off
f 56/85/61 50/86/61 52/87/61 54/88/61
f 51/89/62 49/90/62 55/91/62 53/92/62
s 1
f 49/93/63 50/86/64 56/85/65 55/91/66
f 52/87/67 50/94/64 49/93/63 51/95/68
f 54/88/69 52/96/67 51/95/68 53/92/70
f 55/97/66 56/98/65 54/88/69 53/92/70
o Text.014_Text.019
v -0.015000 -0.050000 -0.015000
v -0.015000 0.050000 -0.015000
v -0.015000 -0.050000 0.015000
v -0.015000 0.050000 0.015000
v -0.008000 -0.050000 0.013000
v -0.008000 0.050000 0.013000
v -0.008000 -0.050000 -0.013000
v -0.008000 0.050000 -0.013000
vt 0.000000 0.000000
vt 0.000000 0.000000
vt 0.000000 0.000000
vt 0.000000 0.000000
vt 0.000000 0.000000
vt 0.000000 0.000000
vt 0.000000 0.000000
vt 0.645833 1.000000
vt 0.812500 0.000000
vt 0.812500 1.000000
vt 0.625000 1.000000
vt 0.625000 0.000000
vt 0.833333 1.000000
vt 0.833333 0.000000
vn 0.0000 -1.0000 0.0000
vn 0.0000 1.0000 0.0000
vn -0.4972 -0.5641 -0.6592
vn -0.4972 -0.5641 0.6592
vn -0.4972 0.5641 0.6592
vn -0.4972 0.5641 -0.6592
vn 0.6426 0.5934 0.4847
vn 0.6426 -0.5934 0.4847
vn 0.6426 -0.5934 -0.4847
vn 0.6426 0.5934 -0.4847
usemtl None
s off
f 63/99/71 61/100/71 59/101/71 57/102/71
f 60/103/72 62/104/72 64/105/72 58/106/72
s 1
f 57/102/73 59/107/74 60/108/75 58/106/76
f 62/109/77 61/100/78 63/99/79 64/105/80
f 59/101/74 61/110/78 62/109/77 60/108/75
f 64/111/80 63/112/79 57/102/73 58/106/76
o Text.013_Text.018
v -0.015000 -0.050000 -0.015000
v -0.015000 0.050000 -0.015000
v -0.009000 -0.050000 -0.024000
v -0.009000 0.050000 -0.024000
v -0.004000 -0.050000 -0.019000
v -0.004000 0.050000 -0.019000
v -0.008000 -0.050000 -0.013000
v -0.008000 0.050000 -0.013000
vt 0.000000 0.000000
vt 0.000000 0.000000
vt 0.000000 0.000000
vt 0.000000 0.000000
vt 0.000000 0.000000
vt 0.541667 0.000000
vt 0.000000 0.000000
vt 0.000000 0.000000
vt 0.812500 0.000000
vt 0.895833 0.000000
vt 0.812500 1.000000
vt 0.895833 1.000000
vt 0.625000 0.000000
vt 0.625000 1.000000
vn 0.0000 1.0000 0.0000
vn 0.0000 -1.0000 0.0000
vn -0.7758 -0.5628 0.2852
vn 0.2772 -0.5954 0.7541
vn 0.2772 0.5954 0.7541
vn -0.7758 0.5628 0.2852
vn -0.0811 0.5676 -0.8192
vn -0.0811 -0.5676 -0.8192
vn 0.8046 0.5884 -0.0797
vn 0.8046 -0.5884 -0.0797
usemtl None
s off
f 72/113/81 70/114/81 68/115/81 66/116/81
f 67/117/82 69/118/82 71/119/82 65/120/82
s 1
f 65/121/83 71/119/84 72/113/85 66/116/86
f 68/115/87 67/122/88 65/121/83 66/123/86
f 70/114/89 69/118/90 67/122/88 68/124/87
f 71/125/84 69/118/90 70/114/89 72/126/85
o Text.012_Text.017
v -0.009000 -0.050000 -0.024000
v -0.009000 0.050000 -0.024000
v 0.000000 -0.050000 -0.028000
v 0.000000 0.050000 -0.028000
v 0.000000 -0.050000 -0.021000
v 0.000000 0.050000 -0.021000
v -0.004000 -0.050000 -0.019000
v -0.004000 0.050000 -0.019000
vt 0.000000 0.000000
vt 0.541667 1.000000
vt 0.000000 0.000000
vt 0.000000 0.000000
vt 0.000000 0.000000
vt 0.000000 0.000000
vt 0.000000 0.000000
vt 0.000000 0.000000
vt 0.895833 1.000000
vt 0.979167 1.000000
vt 0.979167 0.000000
vt 0.895833 0.000000
vt 0.479167 1.000000
vt 0.479167 0.000000
vn 0.0000 1.0000 0.0000
vn 0.0000 -1.0000 0.0000
vn -0.8142 -0.5604 -0.1512
vn -0.8142 0.5604 -0.1512
vn 0.4520 0.5585 -0.6955
vn 0.4520 -0.5585 -0.6955
vn -0.1286 -0.5962 0.7925
vn -0.1286 0.5962 0.7925
vn 0.6768 0.6057 0.4183
vn 0.6768 -0.6057 0.4183
usemtl None
s off
f 74/127/91 80/128/91 78/129/91 76/130/91
f 77/131/92 79/132/92 73/133/92 75/134/92
s 1
f 73/133/93 74/135/94 76/136/95 75/137/96
f 79/132/97 80/128/98 74/135/94 73/138/93
f 78/139/99 80/128/98 79/132/97 77/140/100
f 76/136/95 78/129/99 77/131/100 75/134/96
