# Blender v2.93.5 OBJ File: '0_new.blend'
# www.blender.org
mtllib peg.mtl
o Text.005
v 0.000000 -0.080000 -0.070000
v 0.000000 0.080000 -0.070000
v 0.024000 -0.080000 -0.062000
v 0.024000 0.080000 -0.062000
v 0.010000 -0.080000 -0.048000
v 0.010000 0.080000 -0.048000
v 0.000000 -0.080000 -0.051400
v 0.000000 0.080000 -0.051400
vt 0.000000 0.000000
vt 0.562500 1.000000
vt 0.000000 0.000000
vt 0.000000 0.000000
vt 0.000000 0.000000
vt 0.000000 0.000000
vt 0.000000 0.000000
vt 0.979167 0.000000
vt 0.916667 1.000000
vt 0.916667 0.000000
vt 0.479167 1.000000
vt 0.479167 0.000000
vt 0.979167 1.000000
vn 0.0000 1.0000 0.0000
vn 0.0000 -1.0000 0.0000
vn 0.8084 -0.5568 -0.1908
vn 0.8084 0.5568 -0.1908
vn 0.1805 0.6053 0.7752
vn 0.1805 -0.6053 0.7752
vn -0.4835 0.5623 -0.6708
vn -0.4835 -0.5623 -0.6708
vn -0.6525 0.5965 0.4673
vn -0.6525 -0.5965 0.4673
usemtl None
s off
f 6/1/1 4/2/1 2/3/1 8/4/1
f 1/5/2 3/6/2 5/7/2 7/8/2
s 1
f 3/6/3 4/2/4 6/9/5 5/10/6
f 2/11/7 4/2/4 3/6/3 1/12/8
f 8/13/9 2/3/7 1/5/8 7/8/10
f 5/7/6 6/9/5 8/13/9 7/8/10
o Text.007
v 0.040000 -0.080000 -0.030000
v 0.040000 0.080000 -0.030000
v 0.040000 -0.080000 0.030000
v 0.040000 0.080000 0.030000
v 0.020000 -0.080000 0.027400
v 0.020000 0.080000 0.027400
v 0.020000 -0.080000 -0.027400
v 0.020000 0.080000 -0.027400
vt 0.000000 0.000000
vt 0.666667 1.000000
vt 0.000000 0.000000
vt 0.000000 0.000000
vt 0.000000 0.000000
vt 0.000000 0.000000
vt 0.000000 0.000000
vt 0.000000 0.000000
vt 0.812500 1.000000
vt 0.812500 0.000000
vt 0.791667 1.000000
vt 0.645833 1.000000
vt 0.645833 0.000000
vt 0.791667 0.000000
vn 0.0000 1.0000 0.0000
vn 0.0000 -1.0000 0.0000
vn -0.6096 0.5844 -0.5355
vn 0.5419 0.5708 -0.6168
vn 0.5419 -0.5708 -0.6168
vn -0.6096 -0.5844 -0.5355
vn 0.5419 -0.5708 0.6168
vn 0.5419 0.5708 0.6168
vn -0.6096 0.5844 0.5355
vn -0.6096 -0.5844 0.5355
usemtl None
s off
f 12/14/11 10/15/11 16/16/11 14/17/11
f 15/18/12 9/19/12 11/20/12 13/21/12
s 1
f 16/22/13 10/15/14 9/19/15 15/23/16
f 11/20/17 12/24/18 14/25/19 13/26/20
f 9/19/15 10/15/14 12/24/18 11/27/17
f 14/25/19 16/16/13 15/18/16 13/21/20
o Text.010_Text.013
v 0.024000 -0.080000 -0.062000
v 0.024000 0.080000 -0.062000
v 0.040000 -0.080000 -0.030000
v 0.040000 0.080000 -0.030000
v 0.020000 -0.080000 -0.027400
v 0.020000 0.080000 -0.027400
v 0.010000 -0.080000 -0.048000
v 0.010000 0.080000 -0.048000
vt 0.000000 0.000000
vt 0.562500 1.000000
vt 0.000000 0.000000
vt 0.000000 0.000000
vt 0.000000 0.000000
vt 0.000000 0.000000
vt 0.000000 0.000000
vt 0.000000 0.000000
vt 0.666667 1.000000
vt 0.812500 1.000000
vt 0.812500 0.000000
vt 0.916667 1.000000
vt 0.916667 0.000000
vt 0.666667 0.000000
vn 0.0000 1.0000 0.0000
vn 0.0000 -1.0000 0.0000
vn 0.7303 -0.5618 0.3886
vn 0.7303 0.5618 0.3886
vn -0.3812 0.5962 0.7065
vn -0.3812 -0.5962 0.7065
vn -0.7911 0.5969 -0.1331
vn 0.1325 0.5623 -0.8162
vn 0.1325 -0.5623 -0.8162
vn -0.7911 -0.5969 -0.1331
usemtl None
s off
f 20/28/21 18/29/21 24/30/21 22/31/21
f 23/32/22 17/33/22 19/34/22 21/35/22
s 1
f 19/34/23 20/36/24 22/37/25 21/38/26
f 24/39/27 18/29/28 17/33/29 23/40/30
f 22/37/25 24/30/27 23/32/30 21/35/26
f 17/33/29 18/29/28 20/36/24 19/41/23
o Text.004_Text.016
v 0.000000 -0.080000 -0.070000
v 0.000000 0.080000 -0.070000
v -0.024000 -0.080000 -0.062000
v -0.024000 0.080000 -0.062000
v -0.010000 -0.080000 -0.048000
v -0.010000 0.080000 -0.048000
v 0.000000 -0.080000 -0.051400
v 0.000000 0.080000 -0.051400
vt 0.000000 0.000000
vt 0.000000 0.000000
vt 0.000000 0.000000
vt 0.562500 1.000000
vt 0.000000 0.000000
vt 0.979167 0.000000
vt 0.000000 0.000000
vt 0.000000 0.000000
vt 0.916667 0.000000
vt 0.916667 1.000000
vt 0.479167 1.000000
vt 0.479167 0.000000
vt 0.979167 1.000000
vn 0.0000 1.0000 0.0000
vn 0.0000 -1.0000 0.0000
vn -0.8084 -0.5568 -0.1908
vn -0.1805 -0.6053 0.7752
vn -0.1805 0.6053 0.7752
vn -0.8084 0.5568 -0.1908
vn 0.4835 0.5623 -0.6708
vn 0.4835 -0.5623 -0.6708
vn 0.6525 0.5965 0.4673
vn 0.6525 -0.5965 0.4673
usemtl None
s off
f 30/42/31 32/43/31 26/44/31 28/45/31
f 25/46/32 31/47/32 29/48/32 27/49/32
s 1
f 27/49/33 29/50/34 30/51/35 28/45/36
f 26/52/37 25/53/38 27/49/33 28/45/36
f 32/54/39 31/47/40 25/46/38 26/44/37
f 29/48/34 31/47/40 32/54/39 30/51/35
o Text.003_Text.015
v -0.040000 -0.080000 -0.030000
v -0.040000 0.080000 -0.030000
v -0.040000 -0.080000 0.030000
v -0.040000 0.080000 0.030000
v -0.020000 -0.080000 0.027400
v -0.020000 0.080000 0.027400
v -0.020000 -0.080000 -0.027400
v -0.020000 0.080000 -0.027400
vt 0.000000 0.000000
vt 0.000000 0.000000
vt 0.000000 0.000000
vt 0.666667 1.000000
vt 0.000000 0.000000
vt 0.000000 0.000000
vt 0.000000 0.000000
vt 0.000000 0.000000
vt 0.812500 1.000000
vt 0.812500 0.000000
vt 0.645833 0.000000
vt 0.645833 1.000000
vt 0.791667 1.000000
vt 0.791667 0.000000
vn 0.0000 1.0000 0.0000
vn 0.0000 -1.0000 0.0000
vn 0.6096 0.5844 -0.5355
vn 0.6096 -0.5844 -0.5355
vn -0.5419 -0.5708 -0.6168
vn -0.5419 0.5708 -0.6168
vn -0.5419 -0.5708 0.6168
vn 0.6096 -0.5844 0.5355
vn 0.6096 0.5844 0.5355
vn -0.5419 0.5708 0.6168
usemtl None
s off
f 36/55/41 38/56/41 40/57/41 34/58/41
f 39/59/42 37/60/42 35/61/42 33/62/42
s 1
f 40/63/43 39/64/44 33/62/45 34/58/46
f 35/61/47 37/65/48 38/66/49 36/67/50
f 33/62/45 35/68/47 36/67/50 34/58/46
f 38/66/49 37/60/48 39/59/44 40/57/43
o Text.002_Text.014
v -0.024000 -0.080000 -0.062000
v -0.024000 0.080000 -0.062000
v -0.040000 -0.080000 -0.030000
v -0.040000 0.080000 -0.030000
v -0.020000 -0.080000 -0.027400
v -0.020000 0.080000 -0.027400
v -0.010000 -0.080000 -0.048000
v -0.010000 0.080000 -0.048000
vt 0.000000 0.000000
vt 0.000000 0.000000
vt 0.000000 0.000000
vt 0.562500 1.000000
vt 0.000000 0.000000
vt 0.000000 0.000000
vt 0.000000 0.000000
vt 0.000000 0.000000
vt 0.812500 0.000000
vt 0.812500 1.000000
vt 0.666667 1.000000
vt 0.916667 1.000000
vt 0.916667 0.000000
vt 0.666667 0.000000
vn 0.0000 1.0000 0.0000
vn 0.0000 -1.0000 0.0000
vn -0.7303 -0.5618 0.3886
vn 0.3812 -0.5962 0.7065
vn 0.3812 0.5962 0.7065
vn -0.7303 0.5618 0.3886
vn 0.7911 0.5969 -0.1331
vn 0.7911 -0.5969 -0.1331
vn -0.1325 -0.5623 -0.8162
vn -0.1325 0.5623 -0.8162
usemtl None
s off
f 44/69/51 46/70/51 48/71/51 42/72/51
f 47/73/52 45/74/52 43/75/52 41/76/52
s 1
f 43/75/53 45/77/54 46/78/55 44/79/56
f 48/80/57 47/81/58 41/76/59 42/72/60
f 46/78/55 45/74/54 47/73/58 48/71/57
f 41/76/59 43/82/53 44/79/56 42/72/60
o Text.011_Text.020
v -0.024000 -0.080000 0.062000
v -0.024000 0.080000 0.062000
v -0.040000 -0.080000 0.030000
v -0.040000 0.080000 0.030000
v -0.020000 -0.080000 0.027400
v -0.020000 0.080000 0.027400
v -0.010000 -0.080000 0.048000
v -0.010000 0.080000 0.048000
vt 0.000000 0.000000
vt 0.562500 1.000000
vt 0.000000 0.000000
vt 0.000000 0.000000
vt 0.000000 0.000000
vt 0.000000 0.000000
vt 0.000000 0.000000
vt 0.000000 0.000000
vt 0.666667 1.000000
vt 0.812500 1.000000
vt 0.812500 0.000000
vt 0.916667 1.000000
vt 0.916667 0.000000
vt 0.666667 0.000000
vn 0.0000 1.0000 0.0000
vn 0.0000 -1.0000 0.0000
vn -0.7303 -0.5618 -0.3886
vn -0.7303 0.5618 -0.3886
vn 0.3812 0.5962 -0.7065
vn 0.3812 -0.5962 -0.7065
vn 0.7911 0.5969 0.1331
vn -0.1325 0.5623 0.8162
vn -0.1325 -0.5623 0.8162
vn 0.7911 -0.5969 0.1331
usemtl None
s off
f 52/83/61 50/84/61 56/85/61 54/86/61
f 55/87/62 49/88/62 51/89/62 53/90/62
s 1
f 51/89/63 52/91/64 54/92/65 53/93/66
f 56/94/67 50/84/68 49/88/69 55/95/70
f 54/92/65 56/85/67 55/87/70 53/90/66
f 49/88/69 50/84/68 52/91/64 51/96/63
o Text.009_Text.019
v 0.000000 -0.080000 0.070000
v 0.000000 0.080000 0.070000
v -0.024000 -0.080000 0.062000
v -0.024000 0.080000 0.062000
v -0.010000 -0.080000 0.048000
v -0.010000 0.080000 0.048000
v 0.000000 -0.080000 0.051400
v 0.000000 0.080000 0.051400
vt 0.000000 0.000000
vt 0.562500 1.000000
vt 0.000000 0.000000
vt 0.000000 0.000000
vt 0.000000 0.000000
vt 0.000000 0.000000
vt 0.000000 0.000000
vt 0.979167 0.000000
vt 0.916667 1.000000
vt 0.916667 0.000000
vt 0.479167 1.000000
vt 0.479167 0.000000
vt 0.979167 1.000000
vn 0.0000 1.0000 0.0000
vn 0.0000 -1.0000 0.0000
vn -0.8084 -0.5568 0.1908
vn -0.8084 0.5568 0.1908
vn -0.1805 0.6053 -0.7752
vn -0.1805 -0.6053 -0.7752
vn 0.4835 0.5623 0.6708
vn 0.4835 -0.5623 0.6708
vn 0.6525 0.5965 -0.4673
vn 0.6525 -0.5965 -0.4673
usemtl None
s off
f 62/97/71 60/98/71 58/99/71 64/100/71
f 57/101/72 59/102/72 61/103/72 63/104/72
s 1
f 59/102/73 60/98/74 62/105/75 61/106/76
f 58/107/77 60/98/74 59/102/73 57/108/78
f 64/109/79 58/99/77 57/101/78 63/104/80
f 61/103/76 62/105/75 64/109/79 63/104/80
o Text.008_Text.018
v 0.000000 -0.080000 0.070000
v 0.000000 0.080000 0.070000
v 0.024000 -0.080000 0.062000
v 0.024000 0.080000 0.062000
v 0.010000 -0.080000 0.048000
v 0.010000 0.080000 0.048000
v 0.000000 -0.080000 0.051400
v 0.000000 0.080000 0.051400
vt 0.000000 0.000000
vt 0.000000 0.000000
vt 0.000000 0.000000
vt 0.562500 1.000000
vt 0.000000 0.000000
vt 0.979167 0.000000
vt 0.000000 0.000000
vt 0.000000 0.000000
vt 0.916667 0.000000
vt 0.916667 1.000000
vt 0.479167 1.000000
vt 0.479167 0.000000
vt 0.979167 1.000000
vn 0.0000 1.0000 0.0000
vn 0.0000 -1.0000 0.0000
vn 0.8084 -0.5568 0.1908
vn 0.1805 -0.6053 -0.7752
vn 0.1805 0.6053 -0.7752
vn 0.8084 0.5568 0.1908
vn -0.4835 0.5623 0.6708
vn -0.4835 -0.5623 0.6708
vn -0.6525 0.5965 -0.4673
vn -0.6525 -0.5965 -0.4673
usemtl None
s off
f 70/110/81 72/111/81 66/112/81 68/113/81
f 65/114/82 71/115/82 69/116/82 67/117/82
s 1
f 67/117/83 69/118/84 70/119/85 68/113/86
f 66/120/87 65/121/88 67/117/83 68/113/86
f 72/122/89 71/115/90 65/114/88 66/112/87
f 69/116/84 71/115/90 72/122/89 70/119/85
o Text.006_Text.017
v 0.024000 -0.080000 0.062000
v 0.024000 0.080000 0.062000
v 0.040000 -0.080000 0.030000
v 0.040000 0.080000 0.030000
v 0.020000 -0.080000 0.027400
v 0.020000 0.080000 0.027400
v 0.010000 -0.080000 0.048000
v 0.010000 0.080000 0.048000
vt 0.000000 0.000000
vt 0.000000 0.000000
vt 0.000000 0.000000
vt 0.562500 1.000000
vt 0.000000 0.000000
vt 0.000000 0.000000
vt 0.000000 0.000000
vt 0.000000 0.000000
vt 0.812500 0.000000
vt 0.812500 1.000000
vt 0.666667 1.000000
vt 0.916667 1.000000
vt 0.916667 0.000000
vt 0.666667 0.000000
vn 0.0000 1.0000 0.0000
vn 0.0000 -1.0000 0.0000
vn 0.7303 -0.5618 -0.3886
vn -0.3812 -0.5962 -0.7065
vn -0.3812 0.5962 -0.7065
vn 0.7303 0.5618 -0.3886
vn -0.7911 0.5969 0.1331
vn -0.7911 -0.5969 0.1331
vn 0.1325 -0.5623 0.8162
vn 0.1325 0.5623 0.8162
usemtl None
s off
f 76/123/91 78/124/91 80/125/91 74/126/91
f 79/127/92 77/128/92 75/129/92 73/130/92
s 1
f 75/129/93 77/131/94 78/132/95 76/133/96
f 80/134/97 79/135/98 73/130/99 74/126/100
f 78/132/95 77/128/94 79/127/98 80/125/97
f 73/130/99 75/136/93 76/133/96 74/126/100
