# Blender v2.93.5 OBJ File: 'sim2.blend'
# www.blender.org
mtllib hole.mtl
o Cube.003_Cube.004
v -0.050000 -0.100000 0.050000
v -0.050000 -0.100000 -0.050000
v 0.050000 -0.100000 0.050000
v 0.050000 -0.100000 -0.050000
v -0.017000 -0.050000 -0.023000
v -0.009000 -0.050000 -0.028000
v 0.004000 -0.050000 -0.027000
v 0.014000 -0.050000 -0.015000
v -0.018000 -0.050000 0.029000
v 0.018000 -0.050000 0.029000
vt 0.125000 0.500000
vt 0.375000 0.500000
vt 0.375000 0.750000
vt 0.125000 0.750000
vt 0.375000 0.250000
vt 0.000000 0.000000
vt 0.651685 0.000000
vt 0.730337 0.000000
vt 0.000000 0.000000
vt 0.988764 0.000000
vt 1.000000 0.000000
vt 0.000000 0.000000
vt 0.000000 0.000000
vt 0.000000 0.000000
vt 0.000000 0.000000
vn 0.0000 -1.0000 0.0000
vn 0.0000 0.4027 -0.9153
vn 0.0678 0.4677 -0.8813
vn 0.0000 0.3872 0.9220
vn 0.8252 0.5644 -0.0229
vn -0.8383 0.5452 -0.0055
vn 0.0000 1.0000 -0.0000
vn 0.1766 0.8461 -0.5028
vn 0.4610 0.8770 -0.1350
vn 0.6962 -0.3210 -0.6420
vn -0.4695 0.8518 -0.2322
vn -0.0884 0.8271 -0.5549
vn -0.6918 -0.3309 -0.6418
usemtl None
s off
f 2/1/1 4/2/1 3/3/1 1/4/1
f 2/5/2 6/6/2 4/2/2
f 6/7/3 7/8/3 4/2/3
f 1/9/4 3/3/4 10/10/4 9/11/4
f 10/12/5 3/3/5 4/2/5 8/13/5
f 9/11/6 5/14/6 2/5/6 1/9/6
f 5/14/7 8/13/7 7/15/7
f 10/10/7 8/13/7 5/14/7 9/11/7
s 1
f 7/15/8 8/13/9 4/2/10
f 5/14/11 6/6/12 2/5/13
f 5/14/11 7/15/8 6/7/12
o Cube.006_Cube.007
v -0.050000 -0.100000 -0.050000
v -0.050000 0.050000 -0.050000
v -0.017000 -0.050000 -0.011000
v -0.017000 0.050000 -0.011000
v -0.017000 -0.050000 -0.023000
v -0.017000 0.050000 -0.023000
v -0.050000 0.050000 0.000000
v -0.050000 -0.100000 0.000000
vt 0.875000 0.500000
vt 0.625000 0.125000
vt 0.792500 0.597500
vt 0.792500 0.567500
vt 0.550562 0.000000
vt 0.000000 0.000000
vt 0.375000 0.125000
vt 0.561798 0.000000
vt 0.000000 0.000000
vt 0.375000 0.250000
vt 0.625000 0.250000
vt 0.550562 1.000000
vt 0.561798 1.000000
vn 0.0000 1.0000 0.0000
vn 0.3162 0.0000 0.9487
vn 0.6332 0.0000 -0.7740
vn 0.8346 -0.5508 0.0000
vn -1.0000 0.0000 0.0000
vn 0.6513 0.5962 0.4694
vn 0.8286 -0.2086 0.5194
vn 0.9096 -0.2091 -0.3589
vn 0.7074 0.6222 -0.3352
vn -0.4835 0.5623 0.6708
usemtl None
s off
f 12/16/14 17/17/14 14/18/14 16/19/14
f 13/20/15 17/21/15 18/22/15
f 15/23/16 11/24/16 12/16/16 16/19/16
f 13/20/17 18/22/17 11/24/17 15/23/17
f 11/25/18 18/22/18 17/17/18 12/26/18
s 1
f 14/27/19 13/20/20 15/23/21 16/28/22
f 13/20/20 14/27/19 17/21/23
o Cube.008_Cube.009
v -0.009000 -0.050000 -0.028000
v -0.009000 0.050000 -0.028000
v 0.004000 -0.050000 -0.027000
v 0.004000 0.050000 -0.027000
v 0.025000 0.050000 -0.050000
v -0.025000 0.050000 -0.050000
v 0.025000 -0.100000 -0.050000
v -0.025000 -0.100000 -0.050000
vt 0.000000 0.000000
vt 0.000000 0.000000
vt 0.000000 0.000000
vt 0.000000 0.000000
vt 0.000000 0.000000
vt 0.740000 0.557500
vt 0.651685 0.000000
vt 0.730337 0.000000
vt 0.730337 1.000000
vt 0.772500 0.555000
vn -0.8087 0.0000 0.5882
vn 0.0000 0.0000 -1.0000
vn 0.0000 1.0000 -0.0000
vn -0.0145 -0.4109 0.9116
vn 0.7385 0.0000 0.6743
vn -0.3811 0.6238 0.6823
vn -0.4226 -0.1433 0.8949
vn 0.3261 -0.1448 0.9341
vn 0.2887 0.6204 0.7291
vn -0.6162 -0.7723 -0.1543
vn -0.7435 0.5513 -0.3786
vn 0.6152 -0.7741 -0.1492
usemtl None
s off
f 26/29/24 20/30/24 24/31/24
f 24/31/25 23/32/25 25/33/25 26/29/25
f 24/31/26 22/34/26 23/32/26
f 19/35/27 26/29/27 25/33/27 21/36/27
f 22/37/28 25/33/28 23/32/28
s 1
f 20/30/29 19/35/30 21/36/31 22/37/32
f 26/29/33 19/35/30 20/30/29
f 24/31/34 20/38/29 22/34/32
f 22/37/32 21/36/31 25/33/35
o Cube.009_Cube.010
v 0.050000 -0.100000 -0.050000
v 0.050000 0.050000 -0.050000
v 0.004000 -0.050000 -0.027000
v 0.004000 0.050000 -0.027000
v 0.014000 -0.050000 -0.015000
v 0.014000 0.050000 -0.015000
v 0.025000 0.050000 -0.050000
v 0.025000 -0.100000 -0.050000
vt 0.000000 0.000000
vt 0.625000 0.500000
vt 0.375000 0.500000
vt 0.375000 0.437500
vt 0.000000 0.000000
vt 0.730337 1.000000
vt 0.000000 0.000000
vt 0.808989 1.000000
vt 0.808989 0.000000
vt 0.715000 0.587500
vt 0.000000 0.000000
vt 0.000000 0.000000
vt 0.740000 0.557500
vn 0.0000 0.0000 -1.0000
vn -0.7385 0.0000 -0.6743
vn 0.6971 0.0000 0.7170
vn 0.0000 1.0000 0.0000
vn -0.9551 -0.2617 0.1390
vn 0.0095 -0.2269 0.9738
vn -0.0429 0.5734 0.8181
vn -0.8109 0.5848 -0.0183
vn -0.5956 -0.7430 -0.3052
vn 0.3925 -0.8682 -0.3034
vn -0.3145 0.6265 -0.7131
usemtl None
s off
f 33/39/36 28/40/36 27/41/36 34/42/36
f 34/43/37 30/44/37 33/39/37
f 27/45/38 28/40/38 32/46/38 31/47/38
f 33/39/39 32/48/39 28/40/39
s 1
f 29/49/40 31/47/41 32/46/42 30/44/43
f 34/43/44 29/49/40 30/44/43
f 31/50/41 29/49/40 34/42/44 27/41/45
f 33/39/46 30/51/43 32/48/42
o Cube.010_Cube.011
v 0.050000 -0.100000 -0.050000
v 0.050000 0.050000 -0.050000
v 0.014000 -0.050000 -0.015000
v 0.014000 0.050000 -0.015000
v 0.013000 -0.050000 -0.002000
v 0.013000 0.050000 -0.002000
v 0.050000 0.050000 -0.025000
v 0.050000 -0.100000 -0.025000
vt 0.375000 0.500000
vt 0.375000 0.562500
vt 0.876405 0.000000
vt 0.808989 0.000000
vt 0.625000 0.562500
vt 0.625000 0.500000
vt 0.000000 0.000000
vt 0.000000 0.000000
vt 0.000000 0.000000
vt 0.808989 1.000000
vt 0.000000 0.000000
vt 0.717500 0.620000
vn -0.8134 -0.5813 -0.0214
vn 0.0000 1.0000 0.0000
vn 1.0000 0.0000 0.0000
vn -0.4331 0.5512 0.7132
vn -0.6991 0.6355 -0.3275
vn -0.9115 -0.2286 -0.3420
vn -0.5207 -0.2863 0.8043
vn 0.2922 -0.8529 0.4325
vn 0.6910 0.6124 0.3841
vn 0.1902 -0.7089 -0.6792
vn 0.3257 0.5473 -0.7710
usemtl None
s off
f 35/52/47 42/53/47 39/54/47 37/55/47
f 41/56/48 36/57/48 38/58/48
f 42/59/49 35/52/49 36/57/49 41/56/49
s 1
f 40/60/50 38/61/51 37/55/52 39/54/53
f 40/60/50 39/54/53 42/59/54 41/62/55
f 35/52/56 37/55/52 38/58/51 36/57/57
f 41/56/55 38/58/51 40/63/50
o Cube.011_Cube.012
v 0.013000 -0.050000 -0.002000
v 0.013000 0.050000 -0.002000
v -0.002000 -0.050000 0.019000
v -0.002000 0.050000 0.019000
v 0.018000 -0.050000 0.019000
v 0.018000 0.050000 0.019000
vt 0.000000 0.000000
vt 0.876405 1.000000
vt 0.876405 0.000000
vt 0.966292 0.000000
vt 0.966292 1.000000
vt 0.977528 0.000000
vt 0.977528 1.000000
vt 0.000000 0.000000
vt 0.755000 0.672500
vt 0.000000 0.000000
vn -0.7417 0.5515 0.3817
vn 0.1605 0.5487 -0.8204
vn 0.1605 -0.5487 -0.8204
vn -0.7417 -0.5515 0.3817
vn 0.6469 -0.5660 0.5110
vn 0.6469 0.5660 0.5110
usemtl None
s 1
f 46/64/58 44/65/59 43/66/60 45/67/61
f 46/68/58 45/67/61 47/69/62 48/70/63
f 48/71/63 47/69/62 43/66/60 44/65/59
f 48/71/63 44/65/59 46/72/58
f 43/73/60 47/69/62 45/67/61
o Cube.012_Cube.013
v 0.013000 -0.050000 -0.002000
v 0.013000 0.050000 -0.002000
v 0.018000 -0.050000 0.019000
v 0.018000 0.050000 0.019000
v 0.050000 0.050000 0.000000
v 0.050000 0.050000 -0.025000
v 0.050000 -0.100000 0.000000
v 0.050000 -0.100000 -0.025000
vt 0.000000 0.000000
vt 0.000000 0.000000
vt 0.000000 0.000000
vt 0.000000 0.000000
vt 0.625000 0.625000
vt 0.000000 0.000000
vt 0.000000 0.000000
vt 0.000000 0.000000
vt 0.375000 0.562500
vt 0.000000 0.000000
vt 0.625000 0.562500
vt 0.977528 0.000000
vn -0.5279 0.0000 -0.8493
vn 1.0000 0.0000 0.0000
vn 0.5105 0.0000 0.8599
vn -0.8024 -0.5903 0.0872
vn 0.0000 1.0000 -0.0000
vn 0.2823 -0.8068 0.5190
vn -0.3223 0.5631 0.7609
vn -0.4439 -0.2667 0.8555
vn -0.9153 -0.2270 -0.3327
vn -0.7424 0.5962 -0.3055
usemtl None
s off
f 56/74/64 49/75/64 50/76/64 54/77/64
f 53/78/65 55/79/65 56/74/65 54/77/65
f 55/79/66 53/80/66 52/81/66
f 56/82/67 55/79/67 51/83/67 49/75/67
f 50/76/68 52/81/68 53/78/68 54/84/68
s 1
f 55/79/69 52/81/70 51/85/71
f 49/75/72 51/83/71 52/81/70 50/76/73
o Cube.013_Cube.014
v 0.050000 -0.100000 0.050000
v 0.050000 0.050000 0.050000
v 0.018000 -0.050000 0.019000
v 0.018000 0.050000 0.019000
v 0.018000 -0.050000 0.029000
v 0.018000 0.050000 0.029000
v 0.050000 0.050000 0.000000
v 0.050000 -0.100000 0.000000
vt 0.977528 0.000000
vt 0.000000 0.000000
vt 0.000000 0.000000
vt 0.705000 0.697500
vt 0.000000 0.000000
vt 0.977528 1.000000
vt 0.988764 0.000000
vt 0.375000 0.750000
vt 0.988764 1.000000
vn -0.5105 0.0000 -0.8599
vn 0.0000 1.0000 0.0000
vn -0.5487 0.0000 0.8360
vn 1.0000 0.0000 0.0000
vn -0.8423 -0.5391 0.0000
vn -0.8812 -0.2015 -0.4277
vn -0.6880 0.6109 -0.3916
vn 0.4117 0.5543 -0.7233
vn -0.6944 0.6142 0.3749
vn -0.8906 -0.2018 0.4076
vn 0.3959 0.5528 0.7333
usemtl None
s off
f 59/86/74 63/87/74 64/88/74
f 62/89/75 58/90/75 63/87/75 60/91/75
f 58/90/76 61/92/76 57/93/76
f 58/90/77 57/93/77 64/88/77 63/87/77
f 64/88/78 57/93/78 61/92/78 59/86/78
s 1
f 59/86/79 60/91/80 63/87/81
f 62/94/82 60/91/80 59/86/79 61/92/83
f 58/90/84 62/94/82 61/92/83
o Cube.014_Cube.015
v -0.050000 -0.100000 0.050000
v -0.050000 0.050000 0.050000
v 0.050000 -0.100000 0.050000
v 0.050000 0.050000 0.050000
v -0.018000 -0.050000 0.029000
v -0.018000 0.050000 0.029000
v 0.018000 -0.050000 0.029000
v 0.018000 0.050000 0.029000
vt 0.375000 0.750000
vt 0.625000 0.750000
vt 0.625000 1.000000
vt 0.375000 1.000000
vt 0.988764 0.000000
vt 0.000000 0.000000
vt 0.795000 0.697500
vt 0.000000 0.000000
vt 0.000000 0.000000
vt 1.000000 0.000000
vt 0.375000 0.000000
vt 0.988764 1.000000
vt 1.000000 1.000000
vt 0.705000 0.697500
vn 0.0000 0.0000 1.0000
vn 0.5487 0.0000 -0.8360
vn 0.0000 1.0000 0.0000
vn 0.0000 -0.3872 -0.9220
vn -0.5487 0.0000 -0.8360
vn 0.2349 -0.1401 -0.9619
vn 0.2181 0.6480 -0.7298
vn 0.8049 0.5424 0.2405
vn -0.2349 -0.1401 -0.9619
vn -0.2181 0.6480 -0.7298
vn -0.8049 0.5424 0.2405
usemtl None
s off
f 67/95/85 68/96/85 66/97/85 65/98/85
f 71/99/86 68/100/86 67/95/86
f 68/100/87 70/101/87 66/102/87
f 67/103/88 65/98/88 69/104/88 71/99/88
f 66/102/89 69/104/89 65/105/89
s 1
f 71/99/90 72/106/91 68/100/92
f 69/104/93 70/107/94 72/106/91 71/99/90
f 68/100/92 72/108/91 70/101/94
f 66/102/95 70/107/94 69/104/93
o Cube.007_Cube.008
v -0.050000 -0.100000 -0.050000
v -0.050000 0.050000 -0.050000
v -0.017000 -0.050000 -0.023000
v -0.017000 -0.050000 -0.023000
v -0.017000 0.050000 -0.023000
v -0.009000 -0.050000 -0.028000
v -0.009000 0.050000 -0.028000
v -0.025000 0.050000 -0.050000
v -0.025000 -0.100000 -0.050000
vt 0.625000 0.250000
vt 0.625000 0.312500
vt 0.375000 0.312500
vt 0.375000 0.250000
vt 0.792500 0.567500
vt 0.772500 0.555000
vt 0.000000 0.000000
vt 0.000000 0.000000
vt 0.000000 0.000000
vt 0.000000 0.000000
vt 0.000000 0.000000
vt 0.651685 0.000000
vn 0.0000 0.0000 -1.0000
vn 0.0000 1.0000 0.0000
vn 0.8087 0.0000 -0.5882
vn 0.0000 -0.4751 0.8799
vn 0.4658 -0.4770 0.7453
vn -0.6332 -0.0000 0.7740
vn 0.9525 -0.1895 0.2385
vn 0.3568 0.6178 -0.7007
vn 0.8040 0.5737 0.1560
vn -0.0083 -0.1847 0.9828
vn -0.0510 0.5965 0.8010
usemtl None
s off
f 74/109/96 80/110/96 81/111/96 73/112/96
f 80/110/97 77/113/97 79/114/97
f 80/110/97 74/109/97 77/113/97
f 78/115/98 81/116/98 80/117/98
f 73/112/99 81/111/99 75/118/99
f 81/116/100 78/115/100 75/118/100
f 74/109/101 73/112/101 75/118/101 77/113/101
s 1
f 78/115/102 80/117/103 79/119/104
f 75/118/105 78/120/102 79/114/104 77/113/106
l 75 76
l 76 78
o Cube.015_Cube.019
v -0.007000 -0.050000 -0.019000
v -0.007000 0.050000 -0.019000
v -0.017000 -0.050000 -0.011000
v -0.017000 0.050000 -0.011000
v 0.000000 -0.050000 -0.018000
v 0.000000 0.050000 -0.018000
v 0.004000 -0.050000 -0.014000
v 0.004000 0.050000 -0.014000
v 0.004000 -0.050000 -0.004000
v 0.004000 0.050000 -0.004000
v -0.018000 -0.050000 0.029000
v -0.018000 0.050000 0.029000
vt 0.550562 0.000000
vt 0.000000 0.000000
vt 0.213483 0.000000
vt 1.000000 0.000000
vt 0.740000 0.615000
vt 0.792500 0.597500
vt 0.000000 0.000000
vt 0.000000 0.000000
vt 0.449438 1.000000
vt 0.449438 0.000000
vt 0.000000 0.000000
vt 0.382022 1.000000
vt 0.382022 0.000000
vt 0.000000 0.000000
vt 0.000000 0.000000
vt 0.314607 1.000000
vt 0.000000 0.000000
vt 0.314607 0.000000
vt 0.550562 1.000000
vt 0.000000 0.000000
vt 0.740000 0.590000
vt 0.750000 0.580000
vt 0.767500 0.577500
vn 0.0000 -1.0000 0.0000
vn 0.0000 1.0000 0.0000
vn -0.7005 0.6233 -0.3475
vn -0.2049 0.6277 -0.7510
vn -0.2049 -0.6277 -0.7510
vn -0.7005 -0.6233 -0.3475
vn 0.3427 0.6424 -0.6855
vn 0.3427 -0.6424 -0.6855
vn 0.7173 0.6302 -0.2971
vn 0.7173 -0.6302 -0.2971
vn 0.7295 0.6473 0.2209
vn 0.7295 -0.6473 0.2209
vn -0.2535 -0.5421 0.8011
vn -0.2535 0.5421 0.8011
usemtl None
s off
f 84/121/107 88/122/107 90/123/107
f 84/121/107 90/123/107 92/124/107
f 91/125/108 85/126/108 93/127/108
s 1
f 85/128/109 83/129/110 82/130/111 84/121/112
f 83/131/110 87/132/113 86/133/114 82/130/111
f 86/134/114 87/135/113 89/136/115 88/122/116
f 91/137/117 90/123/118 88/138/116 89/136/115
f 84/121/112 92/124/119 93/127/120 85/139/109
f 84/121/112 82/140/111 86/133/114
f 84/121/112 86/133/114 88/122/116
f 91/125/117 89/141/115 87/142/113
f 91/125/117 87/142/113 83/143/110
f 91/125/117 83/143/110 85/126/109
f 93/127/120 92/124/119 90/123/118 91/137/117
o Cube.016_Cube.020
v -0.050000 -0.100000 0.050000
v -0.050000 0.050000 0.050000
v -0.017000 -0.050000 -0.011000
v -0.017000 0.050000 -0.011000
v -0.018000 -0.050000 0.029000
v -0.018000 0.050000 0.029000
v -0.050000 0.050000 0.000000
v -0.050000 -0.100000 0.000000
vt 0.000000 0.000000
vt 0.125000 0.750000
vt 0.875000 0.750000
vt 0.875000 0.625000
vt 0.000000 0.000000
vt 0.000000 0.000000
vt 0.125000 0.625000
vt 0.000000 0.000000
vt 0.550562 0.000000
vt 0.000000 0.000000
vt 0.375000 0.000000
vt 0.000000 0.000000
vt 0.000000 0.000000
vt 0.550562 1.000000
vn -1.0000 0.0000 0.0000
vn 0.8398 -0.5429 0.0093
vn -0.3162 0.0000 -0.9487
vn 0.5487 0.0000 0.8360
vn 0.0000 1.0000 -0.0000
vn -0.6513 0.5962 -0.4694
vn 0.4923 0.5613 -0.6653
vn 0.6149 -0.2386 -0.7516
vn 0.8862 -0.2034 0.4162
vn 0.6884 0.6160 0.3828
vn -0.3959 0.5528 0.7333
usemtl None
s off
f 101/144/121 94/145/121 95/146/121 100/147/121
f 96/148/122 98/149/122 94/145/122 101/150/122
f 100/151/123 96/152/123 101/150/123
f 98/149/124 95/153/124 94/154/124
f 100/151/125 95/146/125 99/155/125 97/156/125
s 1
f 100/151/126 97/157/127 96/152/128
f 98/149/129 96/148/128 97/156/127 99/155/130
f 98/149/129 99/155/130 95/153/131
