# Blender v2.93.5 OBJ File: '2_new.blend'
# www.blender.org
mtllib hole.mtl
o Cube.001_Cube.004
v -0.150000 -0.100000 0.150000
v -0.150000 0.100000 0.150000
v 0.150000 -0.100000 0.150000
v 0.150000 0.100000 0.150000
v -0.044000 -0.050000 0.070000
v 0.044000 -0.050000 0.070000
v -0.044000 0.100000 0.070000
v 0.044000 0.100000 0.070000
vt 1.000000 0.000000
vt 0.000000 0.000000
vt 0.375000 0.000000
vt 0.625000 0.750000
vt 0.713333 0.683333
vt 0.786667 0.683333
vt 0.875000 0.750000
vt 0.000000 0.000000
vt 0.375000 0.750000
vt 0.988764 0.000000
vt 1.000000 0.500000
vt 0.988764 0.500000
vt 0.000000 0.000000
vt 0.625000 0.000000
vn 0.0000 -0.8480 -0.5300
vn 0.0000 1.0000 -0.0000
vn 0.0000 0.0000 1.0000
vn 0.2334 -0.4108 -0.8813
vn -0.2334 -0.4108 -0.8813
vn -0.2435 0.6421 -0.7269
vn 0.2435 0.6421 -0.7269
vn 0.7958 0.5437 0.2666
vn 0.7443 -0.6294 0.2235
vn -0.7443 -0.6294 0.2235
vn -0.7958 0.5437 0.2666
usemtl None
s off
f 5/1/1 3/2/1 1/3/1
f 4/4/2 8/5/2 7/6/2
f 4/4/2 7/6/2 2/7/2
f 2/8/3 1/3/3 3/9/3 4/4/3
s 1
f 6/10/4 5/1/5 7/11/6 8/12/7
f 6/10/4 8/12/7 4/4/8 3/9/9
f 5/1/5 6/10/4 3/2/9
f 7/11/6 5/13/5 1/3/10 2/14/11
o Cube.002_Cube.005
v 0.150000 -0.100000 0.150000
v 0.150000 0.100000 0.150000
v 0.044000 -0.050000 0.050000
v 0.044000 -0.050000 0.070000
v 0.044000 0.100000 0.070000
v 0.044000 0.100000 0.050000
v 0.150000 0.100000 0.075000
v 0.150000 -0.100000 0.075000
vt 0.977528 0.500000
vt 0.625000 0.687500
vt 0.000000 0.000000
vt 0.977528 0.000000
vt 0.625000 0.750000
vt 0.988764 0.500000
vt 0.375000 0.687500
vt 0.375000 0.750000
vt 0.988764 0.000000
vt 0.713333 0.683333
vn 0.2296 0.0000 -0.9733
vn 0.0000 1.0000 0.0000
vn 1.0000 0.0000 0.0000
vn -0.5919 -0.4305 -0.6814
vn -0.8262 -0.4430 0.3479
vn -0.7029 0.6192 0.3501
vn -0.5116 0.5661 -0.6463
vn 0.3106 -0.6396 0.7032
vn 0.3721 0.5507 0.7471
vn 0.4808 -0.7220 -0.4975
usemtl None
s off
f 14/15/12 15/16/12 16/17/12 11/18/12
f 10/19/13 15/16/13 14/15/13 13/20/13
f 16/21/14 15/16/14 10/19/14 9/22/14
s 1
f 11/18/15 12/23/16 13/20/17 14/15/18
f 12/23/16 9/22/19 10/19/20 13/24/17
f 12/23/16 11/18/15 16/17/21 9/22/19
o Cube.003_Cube.006
v 0.044000 -0.050000 0.050000
v 0.044000 0.100000 0.050000
v 0.030000 -0.050000 -0.004000
v 0.030000 0.100000 -0.004000
v -0.008000 0.100000 0.050000
v -0.008000 -0.050000 0.050000
vt 0.000000 0.000000
vt 0.876405 0.500000
vt 0.966439 0.500000
vt 0.966585 0.000000
vt 0.977528 0.000000
vt 0.977528 0.500000
vt 0.876405 0.000000
vt 0.000000 0.000000
vt 0.000000 0.000000
vn 0.0000 1.0000 -0.0000
vn -0.7402 -0.5518 0.3842
vn 0.6524 -0.5651 0.5048
vn 0.6524 0.5651 0.5048
vn -0.7402 0.5518 0.3842
vn 0.1494 -0.5491 -0.8223
vn 0.1494 0.5491 -0.8223
usemtl None
s off
f 18/25/22 20/26/22 21/27/22
s 1
f 22/28/23 17/29/24 18/30/25 21/27/26
f 18/25/25 17/29/24 19/31/27 20/26/28
f 20/26/28 19/32/27 22/33/23 21/27/26
f 19/32/27 17/29/24 22/28/23
o Cube.004_Cube.007
v 0.044000 -0.050000 0.050000
v 0.044000 0.100000 0.050000
v 0.033000 0.100000 -0.039000
v 0.033000 -0.050000 -0.039000
v 0.030000 -0.050000 -0.004000
v 0.030000 0.100000 -0.004000
v 0.150000 0.100000 -0.075000
v 0.150000 0.100000 0.075000
v 0.150000 -0.100000 -0.075000
v 0.150000 -0.100000 0.075000
vt 0.876405 0.000000
vt 0.000000 0.000000
vt 0.000000 0.000000
vt 0.876405 0.500000
vt 0.000000 0.000000
vt 0.000000 0.000000
vt 0.000000 0.000000
vt 0.000000 0.000000
vt 0.404494 0.500000
vt 0.000000 0.000000
vt 0.000000 0.000000
vn -0.9680 0.0000 0.2510
vn 0.0000 1.0000 0.0000
vn -0.4459 -0.8876 0.1156
vn -0.2296 0.0000 0.9733
vn -0.3878 -0.9217 -0.0063
vn -0.2941 0.0000 -0.9558
vn 1.0000 0.0000 0.0000
vn -0.7320 -0.4498 -0.5116
vn -0.8514 -0.5200 0.0682
vn -0.7388 0.6710 0.0623
vn -0.6224 0.6003 -0.5022
usemtl None
s off
f 27/34/29 23/35/29 24/36/29 28/37/29
f 24/36/30 30/38/30 29/39/30 28/37/30
f 23/35/31 27/40/31 32/41/31
f 23/35/32 32/41/32 30/38/32 24/36/32
f 29/39/30 25/42/30 28/37/30
f 27/34/33 26/43/33 31/44/33 32/41/33
f 29/39/34 31/44/34 26/43/34 25/42/34
f 30/38/35 32/41/35 31/44/35 29/39/35
s 1
f 26/43/36 27/34/37 28/37/38 25/42/39
o Cube.005_Cube.008
v 0.150000 -0.100000 -0.150000
v 0.150000 0.100000 -0.150000
v 0.019000 0.100000 -0.062000
v 0.033000 0.100000 -0.039000
v 0.019000 -0.050000 -0.062000
v 0.033000 -0.050000 -0.039000
v 0.075000 0.100000 -0.150000
v 0.150000 0.100000 -0.075000
v 0.075000 -0.100000 -0.150000
v 0.150000 -0.100000 -0.075000
vt 0.687500 0.500000
vt 0.625000 0.562500
vt 0.625000 0.500000
vt 0.000000 0.000000
vt 0.375000 0.500000
vt 0.375000 0.437500
vt 0.000000 0.000000
vt 0.752809 0.000000
vt 0.375000 0.562500
vt 0.000000 0.000000
vt 0.752809 0.500000
vt 0.000000 0.000000
vt 0.000000 0.000000
vt 0.404494 0.500000
vt 0.376404 0.000000
vn 0.0000 1.0000 0.0000
vn 0.0000 0.0000 -1.0000
vn -0.3165 -0.9040 0.2874
vn 0.0000 -1.0000 0.0000
vn 0.2941 0.0000 0.9558
vn 1.0000 0.0000 0.0000
vn -0.8964 -0.4371 0.0739
vn -0.3482 -0.4243 0.8359
vn -0.2861 0.5915 0.7538
vn -0.7960 0.6053 -0.0079
vn -0.3801 0.6131 -0.6925
vn -0.4562 -0.6688 -0.5869
usemtl None
s off
f 39/45/40 40/46/40 34/47/40
f 39/48/41 34/47/41 33/49/41 41/50/41
f 38/51/42 37/52/42 41/50/42 42/53/42
f 42/53/43 41/50/43 33/49/43
f 36/54/40 40/46/40 39/48/40 35/55/40
f 42/56/44 40/57/44 36/58/44 38/51/44
f 33/49/45 34/47/45 40/57/45 42/53/45
s 1
f 37/52/46 38/51/47 36/54/48 35/59/49
f 37/52/46 35/59/49 39/48/50 41/50/51
o Cube.006_Cube.009
v 0.019000 0.100000 -0.062000
v 0.019000 -0.050000 -0.062000
v -0.015000 -0.050000 -0.070000
v -0.015000 0.100000 -0.070000
v 0.000000 0.100000 -0.150000
v 0.075000 0.100000 -0.150000
v 0.000000 -0.100000 -0.150000
v 0.075000 -0.100000 -0.150000
vt 0.375000 0.375000
vt 0.375000 0.437500
vt 0.000000 0.000000
vt 0.000000 0.000000
vt 0.000000 0.000000
vt 0.000000 0.000000
vt 0.000000 0.000000
vt 0.000000 0.000000
vt 0.752809 0.000000
vt 0.000000 0.000000
vt 0.376404 0.000000
vt 0.000000 0.000000
vt 0.625000 0.437500
vt 0.337079 0.500000
vn -0.0367 -0.8655 0.4997
vn 0.0000 1.0000 0.0000
vn 0.8437 0.0000 0.5369
vn -0.9829 0.0000 -0.1843
vn 0.0000 0.0000 -1.0000
vn -0.6828 0.5798 0.4446
vn -0.7233 -0.4024 0.5611
vn 0.3105 -0.3949 0.8647
vn 0.3023 0.5971 0.7430
vn -0.5167 0.5877 -0.6226
usemtl None
s off
f 49/60/52 50/61/52 44/62/52 45/63/52
f 43/64/53 48/65/53 47/66/53 46/67/53
f 44/68/54 50/69/54 48/65/54 43/70/54
f 49/71/55 45/63/55 47/66/55
f 47/66/56 48/72/56 50/61/56 49/60/56
s 1
f 46/73/57 45/63/58 44/68/59 43/70/60
f 45/63/58 46/73/57 47/66/61
o Cube.007_Cube.010
v -0.150000 -0.100000 -0.150000
v -0.150000 0.100000 -0.150000
v -0.041000 -0.050000 -0.057000
v -0.015000 -0.050000 -0.070000
v -0.041000 0.100000 -0.057000
v -0.015000 0.100000 -0.070000
v 0.000000 0.100000 -0.150000
v 0.000000 -0.100000 -0.150000
vt 0.561798 0.000000
vt 0.375000 0.250000
vt 0.000000 0.000000
vt 0.000000 0.000000
vt 0.762500 0.566667
vt 0.000000 0.000000
vt 0.625000 0.250000
vt 0.561798 0.500000
vt 0.337079 0.500000
vt 0.000000 0.000000
vt 0.784167 0.577500
vn 0.0000 -0.8808 0.4735
vn 0.0000 1.0000 0.0000
vn 0.0000 0.0000 -1.0000
vn -0.6491 0.0000 0.7607
vn 0.9829 0.0000 0.1843
vn -0.0967 0.6014 0.7931
vn -0.0746 -0.3971 0.9147
vn 0.7044 -0.3501 0.6175
vn 0.6268 0.6193 0.4728
vn 0.6008 -0.6968 -0.3918
vn -0.7867 0.5450 -0.2900
usemtl None
s off
f 53/74/62 51/75/62 58/76/62
f 52/77/63 56/78/63 57/79/63
f 52/80/64 57/79/64 58/76/64 51/75/64
f 55/81/65 52/77/65 51/75/65 53/74/65
f 56/82/66 58/76/66 57/79/66
s 1
f 55/81/67 53/74/68 54/83/69 56/82/70
f 54/83/69 53/74/68 58/76/71
f 52/77/72 55/84/67 56/78/70
f 56/82/70 54/83/69 58/76/71
o Cube.008_Cube.011
v -0.150000 -0.100000 -0.150000
v -0.150000 0.100000 -0.150000
v -0.041000 -0.050000 -0.031000
v -0.041000 -0.050000 -0.057000
v -0.041000 0.100000 -0.031000
v -0.041000 0.100000 -0.057000
v -0.150000 0.100000 -0.075000
v -0.150000 -0.100000 -0.075000
vt 0.000000 0.000000
vt 0.625000 0.250000
vt 0.625000 0.187500
vt 0.000000 0.000000
vt 0.000000 0.000000
vt 0.550562 0.000000
vt 0.550562 0.500000
vt 0.375000 0.187500
vt 0.375000 0.250000
vt 0.000000 0.000000
vt 0.561798 0.000000
vt 0.561798 0.500000
vn 0.0000 1.0000 0.0000
vn -0.3743 -0.0000 0.9273
vn -1.0000 0.0000 0.0000
vn 0.4169 -0.9089 0.0000
vn 0.4635 0.5598 0.6869
vn 0.5311 -0.4389 0.7248
vn 0.8320 -0.4512 -0.3228
vn 0.7096 0.6239 -0.3274
vn -0.2968 -0.6314 -0.7163
vn -0.3501 0.5490 -0.7589
vn -0.6630 0.6002 0.4473
usemtl None
s off
f 64/85/73 60/86/73 65/87/73
f 65/88/74 66/89/74 61/90/74 63/91/74
f 66/92/75 65/88/75 60/86/75 59/93/75
f 62/94/76 61/90/76 66/92/76 59/93/76
s 1
f 63/91/77 61/90/78 62/95/79 64/96/80
f 64/85/80 62/95/79 59/93/81 60/86/82
f 64/85/80 65/87/83 63/91/77
o Cube.009_Cube.012
v -0.044000 -0.050000 0.070000
v -0.032000 -0.050000 0.054000
v -0.044000 0.100000 0.070000
v -0.032000 0.100000 0.054000
v 0.001000 -0.050000 -0.046000
v 0.001000 0.100000 -0.046000
v 0.010000 -0.050000 -0.037000
v 0.010000 0.100000 -0.037000
v 0.010000 -0.050000 -0.008000
v -0.004580 0.100000 0.013523
v 0.010000 0.100000 -0.008000
v -0.041000 -0.050000 -0.031000
v -0.016000 0.100000 -0.048000
v -0.041000 0.100000 -0.031000
v -0.016000 -0.050000 -0.048000
vt 0.000000 0.000000
vt 0.000000 0.000000
vt 0.370787 0.000000
vt 0.000000 0.000000
vt 0.044944 0.000000
vt 0.000000 0.000000
vt 0.749167 0.586667
vt 0.000000 0.000000
vt 0.000000 0.000000
vt 0.000000 0.000000
vt 0.000000 0.000000
vt 0.449438 0.000000
vt 0.370787 0.500000
vt 0.000000 0.000000
vt 0.022472 0.000000
vt 0.000000 0.000000
vt 0.162921 0.500000
vt 0.550562 0.000000
vt 0.784167 0.599167
vt 0.786667 0.683333
vt 1.000000 0.000000
vt 0.550562 0.500000
vn 0.0000 -1.0000 -0.0000
vn 0.0000 1.0000 0.0000
vn 0.1168 0.0000 -0.9932
vn -0.2773 -0.5430 0.7926
vn 0.5800 -0.7017 0.4136
vn 0.5800 0.7017 0.4136
vn -0.2773 0.5430 0.7926
vn 0.7173 -0.6302 -0.2971
vn 0.3350 -0.6402 -0.6913
vn 0.3350 0.6402 -0.6913
vn 0.7173 0.6302 -0.2971
vn 0.7292 -0.6467 0.2237
vn 0.7292 0.6467 0.2237
vn -0.6895 -0.6177 -0.3782
vn -0.6895 0.6177 -0.3782
vn -0.1834 0.6362 -0.7494
vn -0.1834 -0.6362 -0.7494
usemtl None
s off
f 78/97/84 81/98/84 71/99/84
f 78/97/84 75/100/84 68/101/84
f 70/102/85 72/103/85 79/104/85
f 78/97/84 71/99/84 73/105/84
f 70/102/85 77/106/85 74/107/85
f 81/108/86 79/104/86 72/109/86 71/99/86
s 1
f 67/110/87 68/101/88 70/111/89 69/112/90
f 73/105/91 71/99/92 72/109/93 74/113/94
f 75/100/95 77/106/96 70/111/89 68/101/88
f 78/114/97 67/110/87 69/112/90 80/115/98
f 77/106/96 75/100/95 73/105/91 74/113/94
f 70/102/89 80/115/98 69/116/90
f 70/102/89 79/104/99 80/115/98
f 70/102/89 74/107/94 72/103/93
f 78/97/97 73/105/91 75/100/95
f 78/97/97 68/101/88 67/117/87
f 78/97/97 80/118/98 79/104/99 81/98/100
l 70 76
l 72 76
l 76 77
o Cube.010_Cube.013
v -0.150000 -0.100000 0.150000
v -0.150000 0.100000 0.150000
v -0.044000 -0.050000 0.070000
v -0.044000 0.100000 0.070000
v -0.041000 -0.050000 -0.031000
v -0.041000 0.100000 -0.031000
v -0.150000 0.100000 -0.075000
v -0.150000 -0.100000 -0.075000
vt 0.000000 0.000000
vt 0.000000 0.000000
vt 0.786667 0.683333
vt 0.000000 0.000000
vt 0.550562 0.000000
vt 0.000000 0.000000
vt 0.550562 0.500000
vt 0.000000 0.000000
vt 0.000000 0.000000
vt 0.000000 0.000000
vt 0.875000 0.750000
vt 0.375000 0.000000
vn 0.0000 1.0000 0.0000
vn 0.3743 0.0000 -0.9273
vn 0.4223 -0.9065 0.0039
vn 0.6024 0.0000 0.7982
vn -1.0000 0.0000 0.0000
vn 0.8203 -0.4462 0.3577
vn 0.7829 -0.4326 -0.4471
vn 0.6708 0.5983 -0.4382
vn 0.6960 0.6215 0.3597
usemtl None
s off
f 88/119/101 83/120/101 85/121/101 87/122/101
f 86/123/102 89/124/102 88/119/102 87/125/102
f 86/126/103 84/127/103 82/128/103 89/124/103
f 83/129/104 82/130/104 84/127/104 85/121/104
f 89/124/105 82/128/105 83/120/105 88/119/105
s 1
f 84/127/106 86/126/107 87/122/108 85/121/109
o Cube.011_Cube.014
v -0.150000 -0.100000 0.150000
v -0.150000 -0.100000 -0.150000
v 0.150000 -0.100000 0.150000
v 0.150000 -0.100000 -0.150000
v -0.044000 -0.050000 0.070000
v 0.044000 -0.050000 0.050000
v 0.044000 -0.050000 0.070000
v 0.019000 -0.050000 -0.062000
v 0.033000 -0.050000 -0.039000
v -0.041000 -0.050000 -0.031000
v -0.041000 -0.050000 -0.057000
v -0.015000 -0.050000 -0.070000
vt 0.977528 0.000000
vt 0.000000 0.000000
vt 0.000000 0.000000
vt 0.000000 0.000000
vt 0.000000 0.000000
vt 0.000000 0.000000
vt 0.000000 0.000000
vt 0.000000 0.000000
vt 0.561798 0.000000
vt 0.000000 0.000000
vt 0.988764 0.000000
vt 1.000000 0.000000
vn 0.4266 0.9044 0.0000
vn 0.0000 0.8480 -0.5300
vn 0.0909 0.9179 -0.3862
vn 0.2582 0.9532 -0.1572
vn 0.3569 0.9331 -0.0441
vn 0.0000 1.0000 -0.0000
vn -0.4216 0.9068 -0.0030
vn 0.0000 0.8480 0.5300
vn 0.0000 -1.0000 0.0000
vn 0.2192 0.9756 -0.0046
vn 0.1596 0.9622 0.2206
vn 0.7260 -0.1315 0.6749
vn -0.1593 0.9625 0.2195
vn 0.1832 0.9817 -0.0504
vn -0.2051 0.9733 -0.1032
vn -0.0161 0.9604 -0.2779
vn -0.7248 -0.1288 0.6768
vn -0.7290 -0.1301 -0.6720
usemtl None
s off
f 95/131/110 92/132/110 93/133/110
f 91/134/111 101/135/111 93/133/111
f 101/135/112 97/136/112 93/133/112
f 97/136/113 98/137/113 93/133/113
f 98/137/114 95/131/114 93/133/114
f 98/137/115 97/136/115 101/135/115
f 94/138/116 100/139/116 91/134/116 90/140/116
f 96/141/117 90/140/117 92/132/117
f 91/134/118 93/133/118 92/132/118 90/140/118
s 1
f 95/131/119 96/141/120 92/132/121
f 94/138/122 96/141/120 98/137/123 100/139/124
f 98/137/123 101/135/125 100/139/124
f 98/137/123 96/141/120 95/131/119
f 96/141/120 94/142/122 90/140/126
f 100/139/124 101/135/125 91/134/127
l 99 100
