# Blender v2.93.5 OBJ File: 'sim2.blend'
# www.blender.org
mtllib hole_large.mtl
o Cube.004_Cube.022
v -0.007000 -0.050000 -0.018000
v -0.007000 0.050000 -0.018000
v -0.018000 -0.050000 -0.010000
v -0.018000 0.050000 -0.010000
v 0.000000 -0.050000 -0.017000
v 0.000000 0.050000 -0.017000
v 0.003000 -0.050000 -0.014000
v 0.003000 0.050000 -0.014000
v 0.003000 -0.050000 -0.004000
v 0.003000 0.050000 -0.004000
v -0.019000 -0.050000 0.030000
v -0.019000 0.050000 0.030000
vt 0.550562 0.000000
vt 0.000000 0.000000
vt 0.213483 0.000000
vt 1.000000 0.000000
vt 0.742500 0.615000
vt 0.795000 0.600000
vt 0.000000 0.000000
vt 0.000000 0.000000
vt 0.449438 1.000000
vt 0.449438 0.000000
vt 0.000000 0.000000
vt 0.382022 1.000000
vt 0.382022 0.000000
vt 0.314607 1.000000
vt 0.000000 0.000000
vt 0.000000 0.000000
vt 0.000000 0.000000
vt 0.314607 0.000000
vt 0.550562 1.000000
vt 0.000000 0.000000
vt 0.742500 0.590000
vt 0.750000 0.582500
vt 0.767500 0.580000
vn 0.0000 -1.0000 0.0000
vn 0.0000 1.0000 -0.0000
vn -0.6948 0.6197 -0.3648
vn -0.1869 0.6315 -0.7525
vn -0.1869 -0.6315 -0.7525
vn -0.6948 -0.6197 -0.3648
vn 0.3427 0.6424 -0.6855
vn 0.3427 -0.6424 -0.6855
vn 0.7173 0.6302 -0.2971
vn 0.7173 -0.6302 -0.2971
vn 0.7300 0.6485 0.2156
vn 0.7300 -0.6485 0.2156
vn -0.2481 -0.5418 0.8030
vn -0.2481 0.5418 0.8030
usemtl None
s off
f 3/1/1 7/2/1 9/3/1
f 3/1/1 9/3/1 11/4/1
f 10/5/2 4/6/2 12/7/2
s 1
f 4/8/3 2/9/4 1/10/5 3/1/6
f 2/11/4 6/12/7 5/13/8 1/10/5
f 8/14/9 7/2/10 5/15/8 6/16/7
f 10/17/11 9/3/12 7/18/10 8/14/9
f 3/1/6 11/4/13 12/7/14 4/19/3
f 3/1/6 1/20/5 5/13/8
f 3/1/6 5/13/8 7/2/10
f 10/5/11 8/21/9 6/22/7
f 10/5/11 6/22/7 2/23/4
f 10/5/11 2/23/4 4/6/3
f 12/7/14 11/4/13 9/3/12 10/17/11
o Cube.005_Cube.023
v -0.050000 -0.100000 -0.050000
v -0.050000 0.050000 -0.050000
v -0.018000 -0.050000 -0.024000
v -0.018000 0.050000 -0.024000
v -0.010000 0.050000 -0.029000
v -0.010000 -0.050000 -0.029000
v -0.025000 0.050000 -0.050000
v -0.025000 -0.100000 -0.050000
vt 0.375000 0.250000
vt 0.000000 0.000000
vt 0.000000 0.000000
vt 0.561798 0.000000
vt 0.625000 0.312500
vt 0.795000 0.565000
vt 0.651685 1.000000
vt 0.625000 0.250000
vt 0.000000 0.000000
vt 0.375000 0.312500
vt 0.561798 1.000000
vt 0.000000 0.000000
vn 0.1321 -0.4718 0.8718
vn 0.0000 1.0000 -0.0000
vn 0.8137 0.0000 -0.5812
vn 0.0000 0.0000 -1.0000
vn 0.9224 -0.2094 0.3245
vn 0.8030 0.5742 0.1594
vn -0.0496 0.5967 0.8009
vn -0.0981 -0.1718 0.9802
vn -0.7904 0.5445 -0.2806
vn -0.5007 -0.8428 -0.1973
vn 0.3600 0.6171 -0.6996
usemtl None
s off
f 13/24/15 20/25/15 18/26/15 15/27/15
f 19/28/16 16/29/16 17/30/16
f 19/28/16 14/31/16 16/29/16
f 18/26/17 20/25/17 19/32/17
f 14/31/18 19/28/18 20/33/18 13/24/18
s 1
f 18/26/19 17/30/20 16/34/21 15/27/22
f 15/35/22 16/34/21 14/31/23 13/24/24
f 18/26/19 19/32/25 17/30/20
o Cube.017_Cube.024
v 0.005000 -0.050000 -0.028000
v 0.005000 0.050000 -0.028000
v -0.010000 0.050000 -0.029000
v -0.010000 -0.050000 -0.029000
v 0.025000 0.050000 -0.050000
v -0.025000 0.050000 -0.050000
v 0.025000 -0.100000 -0.050000
v -0.025000 -0.100000 -0.050000
vt 0.000000 0.000000
vt 0.000000 0.000000
vt 0.000000 0.000000
vt 0.000000 0.000000
vt 0.000000 0.000000
vt 0.737500 0.555000
vt 0.651685 0.000000
vt 0.730337 0.000000
vt 0.730337 1.000000
vt 0.775000 0.552500
vn -0.8137 0.0000 0.5812
vn 0.0000 0.0000 -1.0000
vn 0.0000 1.0000 -0.0000
vn -0.0141 -0.3956 0.9183
vn 0.7399 0.0000 0.6727
vn -0.6125 -0.7762 -0.1495
vn -0.4258 -0.1367 0.8944
vn -0.3811 0.6223 0.6837
vn 0.3314 -0.1382 0.9333
vn 0.2930 0.6211 0.7269
vn -0.7417 0.5515 -0.3817
vn 0.6119 -0.7776 -0.1446
usemtl None
s off
f 28/36/26 23/37/26 26/38/26
f 26/38/27 25/39/27 27/40/27 28/36/27
f 26/38/28 22/41/28 25/39/28
f 24/42/29 28/36/29 27/40/29 21/43/29
f 22/44/30 27/40/30 25/39/30
s 1
f 28/36/31 24/42/32 23/37/33
f 21/43/34 22/44/35 23/37/33 24/42/32
f 26/38/36 23/45/33 22/41/35
f 22/44/35 21/43/34 27/40/37
o Cube.018_Cube.025
v 0.050000 -0.100000 -0.050000
v 0.050000 0.050000 -0.050000
v 0.005000 -0.050000 -0.028000
v 0.005000 0.050000 -0.028000
v 0.015000 -0.050000 -0.015000
v 0.015000 0.050000 -0.015000
v 0.025000 0.050000 -0.050000
v 0.025000 -0.100000 -0.050000
vt 0.000000 0.000000
vt 0.730337 1.000000
vt 0.000000 0.000000
vt 0.625000 0.500000
vt 0.375000 0.500000
vt 0.375000 0.437500
vt 0.000000 0.000000
vt 0.808989 1.000000
vt 0.808989 0.000000
vt 0.712500 0.587500
vt 0.000000 0.000000
vt 0.000000 0.000000
vt 0.737500 0.555000
vn -0.7399 0.0000 -0.6727
vn 0.0000 0.0000 -1.0000
vn 0.7071 0.0000 0.7071
vn 0.0000 1.0000 0.0000
vn -0.9586 -0.2569 0.1226
vn 0.0020 -0.2258 0.9742
vn -0.0532 0.5708 0.8193
vn -0.8087 0.5872 -0.0332
vn -0.6084 -0.7318 -0.3071
vn 0.3635 -0.8764 -0.3159
vn -0.3153 0.6264 -0.7129
usemtl None
s off
f 36/46/38 32/47/38 35/48/38
f 35/48/39 30/49/39 29/50/39 36/51/39
f 29/52/40 30/49/40 34/53/40 33/54/40
f 35/48/41 34/55/41 30/49/41
s 1
f 31/56/42 33/54/43 34/53/44 32/47/45
f 36/46/46 31/56/42 32/47/45
f 33/57/43 31/56/42 36/51/46 29/50/47
f 35/48/48 32/58/45 34/55/44
o Cube.019_Cube.026
v 0.050000 -0.100000 -0.050000
v 0.015000 -0.050000 -0.015000
v 0.015000 0.050000 -0.015000
v 0.014000 -0.050000 -0.002000
v 0.014000 0.050000 -0.002000
v 0.050000 0.050000 -0.050000
v 0.050000 0.050000 -0.025000
v 0.050000 -0.100000 -0.025000
vt 0.375000 0.500000
vt 0.375000 0.562500
vt 0.876405 0.000000
vt 0.808989 0.000000
vt 0.625000 0.562500
vt 0.625000 0.500000
vt 0.000000 0.000000
vt 0.000000 0.000000
vt 0.000000 0.000000
vt 0.000000 0.000000
vt 0.000000 0.000000
vt 0.000000 0.000000
vt 0.808989 1.000000
vt 0.715000 0.620000
vn -0.8211 -0.5704 -0.0216
vn 0.0000 1.0000 0.0000
vn 1.0000 0.0000 0.0000
vn 0.1856 -0.7092 -0.6801
vn -0.9147 -0.2232 -0.3367
vn -0.7006 0.6367 -0.3222
vn 0.3204 0.5469 -0.7734
vn -0.4288 0.5508 0.7161
vn -0.5158 -0.2830 0.8086
vn 0.2866 -0.8556 0.4311
vn 0.6927 0.6133 0.3795
usemtl None
s off
f 37/59/49 44/60/49 40/61/49 38/62/49
f 43/63/50 42/64/50 39/65/50
f 44/66/51 37/59/51 42/64/51 43/63/51
s 1
f 37/67/52 38/62/53 39/65/54 42/68/55
f 41/69/56 40/61/57 44/66/58 43/70/59
f 41/69/56 39/71/54 38/62/53 40/61/57
f 43/63/59 39/65/54 41/72/56
o Cube.020_Cube.027
v 0.014000 -0.050000 -0.002000
v 0.014000 0.050000 -0.002000
v -0.001000 -0.050000 0.018000
v -0.001000 0.050000 0.018000
v 0.019000 -0.050000 0.018000
v 0.019000 0.050000 0.018000
vt 0.876405 1.000000
vt 0.977528 1.000000
vt 0.000000 0.000000
vt 0.876405 0.000000
vt 0.000000 0.000000
vt 0.966292 0.000000
vt 0.966292 1.000000
vt 0.977528 0.000000
vt 0.000000 0.000000
vt 0.000000 0.000000
vt 0.715000 0.620000
vt 0.752500 0.670000
vt 0.702500 0.670000
vn 0.1653 0.5497 -0.8188
vn 0.6500 0.5655 0.5075
vn 0.6500 -0.5655 0.5075
vn 0.1653 -0.5497 -0.8188
vn -0.7465 0.5508 0.3732
vn -0.7465 -0.5508 0.3732
usemtl None
s 1
f 46/73/60 50/74/61 49/75/62 45/76/63
f 48/77/64 46/73/60 45/76/63 47/78/65
f 48/79/64 47/78/65 49/80/62 50/74/61
f 47/81/65 45/82/63 49/75/62
f 46/83/60 48/84/64 50/85/61
o Cube.021_Cube.028
v 0.014000 -0.050000 -0.002000
v 0.014000 0.050000 -0.002000
v 0.019000 -0.050000 0.018000
v 0.019000 0.050000 0.018000
v 0.050000 0.050000 0.000000
v 0.050000 0.050000 -0.025000
v 0.050000 -0.100000 0.000000
v 0.050000 -0.100000 -0.025000
vt 0.000000 0.000000
vt 0.000000 0.000000
vt 0.000000 0.000000
vt 0.000000 0.000000
vt 0.625000 0.625000
vt 0.000000 0.000000
vt 0.000000 0.000000
vt 0.000000 0.000000
vt 0.625000 0.562500
vt 0.375000 0.562500
vt 0.000000 0.000000
vt 0.977528 0.000000
vn -0.5384 0.0000 -0.8427
vn 1.0000 0.0000 0.0000
vn 0.5021 0.0000 0.8648
vn 0.0000 1.0000 0.0000
vn -0.8099 -0.5796 0.0900
vn -0.9194 -0.2217 -0.3248
vn -0.4461 -0.2602 0.8563
vn -0.3215 0.5640 0.7606
vn -0.7459 0.5963 -0.2967
vn 0.2755 -0.8052 0.5251
usemtl None
s off
f 58/86/66 51/87/66 52/88/66 56/89/66
f 55/90/67 57/91/67 58/86/67 56/89/67
f 57/91/68 55/92/68 54/93/68
f 52/88/69 54/93/69 55/90/69 56/94/69
f 58/95/70 57/91/70 53/96/70 51/87/70
s 1
f 51/87/71 53/96/72 54/93/73 52/88/74
f 57/91/75 54/93/73 53/97/72
o Cube.022_Cube.029
v 0.050000 -0.100000 0.050000
v 0.019000 -0.050000 0.018000
v 0.019000 0.050000 0.018000
v 0.019000 -0.050000 0.030000
v 0.019000 0.050000 0.030000
v 0.050000 0.050000 0.050000
v 0.050000 0.050000 0.000000
v 0.050000 -0.100000 0.000000
vt 0.702500 0.700000
vt 0.000000 0.000000
vt 0.000000 0.000000
vt 0.977528 1.000000
vt 0.988764 0.000000
vt 0.000000 0.000000
vt 0.977528 0.000000
vt 0.000000 0.000000
vt 0.988764 1.000000
vn 0.0000 1.0000 0.0000
vn -0.5421 0.0000 0.8403
vn -0.5021 0.0000 -0.8648
vn 1.0000 0.0000 0.0000
vn -0.8499 -0.5269 0.0000
vn -0.8797 -0.1957 -0.4333
vn -0.6866 0.6102 -0.3953
vn 0.4151 0.5546 -0.7211
vn -0.6934 0.6136 0.3778
vn -0.8897 -0.1959 0.4124
vn 0.3986 0.5530 0.7316
usemtl None
s off
f 63/98/76 64/99/76 65/100/76 61/101/76
f 64/99/77 62/102/77 59/103/77
f 60/104/78 65/100/78 66/105/78
f 64/99/79 59/103/79 66/105/79 65/100/79
f 66/105/80 59/103/80 62/102/80 60/104/80
s 1
f 60/104/81 61/101/82 65/100/83
f 63/106/84 61/101/82 60/104/81 62/102/85
f 64/99/86 63/106/84 62/102/85
o Cube.023_Cube.030
v -0.050000 -0.100000 0.050000
v -0.050000 0.050000 0.050000
v 0.050000 -0.100000 0.050000
v -0.019000 -0.050000 0.030000
v -0.019000 0.050000 0.030000
v 0.019000 -0.050000 0.030000
v 0.019000 0.050000 0.030000
v 0.050000 0.050000 0.050000
vt 0.000000 0.000000
vt 0.797500 0.700000
vt 0.000000 0.000000
vt 0.375000 0.000000
vt 0.000000 0.000000
vt 0.988764 0.000000
vt 0.375000 1.000000
vt 1.000000 0.000000
vt 0.000000 0.000000
vt 0.988764 1.000000
vt 0.702500 0.700000
vt 1.000000 1.000000
vt 0.000000 0.000000
vn 0.0000 1.0000 0.0000
vn 0.0000 0.0000 1.0000
vn 0.5421 0.0000 -0.8403
vn 0.0000 -0.3714 -0.9285
vn -0.5421 0.0000 -0.8403
vn 0.2329 -0.1332 -0.9633
vn 0.2150 0.6487 -0.7300
vn 0.8059 0.5423 0.2374
vn -0.2150 0.6487 -0.7300
vn -0.2329 -0.1332 -0.9633
vn -0.8059 0.5423 0.2374
usemtl None
s off
f 74/107/87 71/108/87 68/109/87
f 68/109/88 67/110/88 69/111/88 74/107/88
f 72/112/89 74/107/89 69/111/89
f 69/111/90 67/113/90 70/114/90 72/112/90
f 68/109/91 70/115/91 67/110/91
s 1
f 72/112/92 73/116/93 74/107/94
f 74/107/94 73/117/93 71/108/95
f 70/114/96 71/118/95 73/116/93 72/112/92
f 68/109/97 71/119/95 70/115/96
o Cube.024_Cube.031
v -0.050000 -0.100000 -0.050000
v -0.050000 0.050000 -0.050000
v -0.018000 -0.050000 -0.010000
v -0.018000 0.050000 -0.010000
v -0.018000 -0.050000 -0.024000
v -0.018000 0.050000 -0.024000
v -0.050000 0.050000 0.000000
v -0.050000 -0.100000 0.000000
vt 0.550562 0.000000
vt 0.125000 0.625000
vt 0.000000 0.000000
vt 0.561798 0.000000
vt 0.000000 0.000000
vt 0.875000 0.500000
vt 0.795000 0.565000
vt 0.000000 0.000000
vt 0.375000 0.250000
vt 0.875000 0.625000
vt 0.795000 0.600000
vt 0.550562 1.000000
vt 0.561798 1.000000
vn 0.8423 -0.5391 0.0000
vn 0.6306 0.0000 -0.7761
vn 0.2983 0.0000 0.9545
vn -1.0000 0.0000 0.0000
vn 0.0000 1.0000 0.0000
vn 0.6475 0.5950 0.4761
vn 0.8241 -0.2034 0.5287
vn 0.9099 -0.2032 -0.3616
vn 0.7070 0.6219 -0.3365
vn -0.4895 0.5631 0.6658
usemtl None
s off
f 77/120/98 82/121/98 75/122/98 79/123/98
f 79/124/99 75/122/99 76/125/99 80/126/99
f 77/120/100 81/127/100 82/121/100
f 75/128/101 82/121/101 81/129/101 76/125/101
f 76/125/102 81/129/102 78/130/102 80/126/102
s 1
f 78/131/103 77/120/104 79/123/105 80/132/106
f 77/120/104 78/131/103 81/127/107
o Cube.025_Cube.032
v -0.050000 -0.100000 0.050000
v -0.050000 0.050000 0.050000
v -0.018000 -0.050000 -0.010000
v -0.018000 0.050000 -0.010000
v -0.019000 -0.050000 0.030000
v -0.019000 0.050000 0.030000
v -0.050000 0.050000 0.000000
v -0.050000 -0.100000 0.000000
vt 0.000000 0.000000
vt 0.000000 0.000000
vt 0.000000 0.000000
vt 0.125000 0.625000
vt 0.000000 0.000000
vt 0.125000 0.750000
vt 0.000000 0.000000
vt 0.000000 0.000000
vt 0.375000 1.000000
vt 0.000000 0.000000
vt 0.875000 0.750000
vt 0.875000 0.625000
vn -0.2983 0.0000 -0.9545
vn 0.8473 -0.5310 0.0094
vn 0.9997 0.0000 0.0250
vn 0.5421 0.0000 0.8403
vn -1.0000 0.0000 0.0000
vn 0.0000 1.0000 0.0000
vn 0.8853 -0.1975 0.4210
vn 0.6873 0.6155 0.3857
vn -0.3986 0.5530 0.7316
usemtl None
s off
f 89/133/108 86/134/108 85/135/108
f 89/133/108 85/135/108 90/136/108
f 85/135/109 87/137/109 83/138/109 90/136/109
f 87/137/110 85/135/110 86/134/110 88/139/110
f 87/137/111 84/140/111 83/141/111
f 90/142/112 83/138/112 84/143/112 89/144/112
f 89/133/113 84/143/113 88/139/113 86/134/113
s 1
f 87/137/114 88/139/115 84/140/116
o Cube.026_Cube.033
v -0.050000 -0.100000 0.050000
v -0.050000 -0.100000 -0.050000
v 0.050000 -0.100000 0.050000
v 0.050000 -0.100000 -0.050000
v -0.018000 -0.050000 -0.024000
v 0.005000 -0.050000 -0.028000
v -0.010000 -0.050000 -0.029000
v 0.015000 -0.050000 -0.015000
v -0.019000 -0.050000 0.030000
v 0.019000 -0.050000 0.030000
vt 0.988764 0.000000
vt 0.000000 0.000000
vt 0.000000 0.000000
vt 1.000000 0.000000
vt 0.000000 0.000000
vt 0.000000 0.000000
vt 0.000000 0.000000
vt 0.651685 0.000000
vt 0.000000 0.000000
vt 0.000000 0.000000
vt 0.375000 0.750000
vt 0.000000 0.000000
vt 0.375000 1.000000
vn 0.0000 1.0000 0.0000
vn 0.0000 0.3872 -0.9220
vn 0.0595 0.4464 -0.8928
vn 0.5656 0.7005 -0.4351
vn 0.0000 0.3714 0.9285
vn 0.8328 0.5531 -0.0230
vn -0.4179 0.6151 -0.6686
vn -0.8459 0.5333 -0.0055
vn 0.0000 -1.0000 0.0000
usemtl None
s off
f 100/145/117 98/146/117 95/147/117 99/148/117
f 92/149/118 97/150/118 94/151/118
f 97/152/119 96/153/119 94/151/119
f 96/153/120 98/146/120 94/151/120
f 91/154/121 93/155/121 100/145/121 99/148/121
f 100/156/122 93/155/122 94/151/122 98/146/122
f 95/147/123 97/150/123 92/149/123
f 99/148/124 95/147/124 92/149/124 91/154/124
f 95/147/117 98/146/117 96/153/117
f 95/147/117 96/153/117 97/152/117
f 92/149/125 94/151/125 93/155/125 91/157/125
