# Blender v2.93.5 OBJ File: 'sim2.blend'
# www.blender.org
mtllib peg.mtl
o Text.018_Text.038
v -0.012000 0.050000 -0.021000
v -0.012000 -0.050000 -0.021000
v 0.005000 0.050000 0.004000
v 0.005000 -0.050000 0.004000
v 0.012000 0.050000 0.002000
v 0.012000 -0.050000 0.002000
v -0.004000 0.050000 -0.020000
v -0.004000 -0.050000 -0.020000
vt 0.000000 0.000000
vt 0.000000 0.000000
vt 0.000000 0.000000
vt 0.044944 0.000000
vt 0.000000 0.000000
vt 0.000000 0.000000
vt 0.000000 0.000000
vt 0.000000 0.000000
vt 0.966292 0.000000
vt 0.966292 1.000000
vt 0.876405 0.000000
vt 0.876405 1.000000
vt 0.213483 0.000000
vt 0.213483 1.000000
vn 0.0000 1.0000 0.0000
vn 0.0000 -1.0000 0.0000
vn -0.7132 -0.5486 -0.4363
vn -0.7132 0.5486 -0.4363
vn 0.3957 0.6276 -0.6704
vn 0.3957 -0.6276 -0.6704
vn 0.7826 0.5611 0.2697
vn -0.2736 0.5960 0.7549
vn -0.2736 -0.5960 0.7549
vn 0.7826 -0.5611 0.2697
usemtl None
s off
f 3/1/1 5/2/1 7/3/1
f 3/1/1 7/3/1 1/4/1
f 8/5/2 6/6/2 4/7/2
f 8/5/2 4/7/2 2/8/2
s 1
f 2/8/3 1/4/4 7/9/5 8/10/6
f 5/11/7 3/1/8 4/7/9 6/6/10
f 8/5/6 7/9/5 5/11/7 6/12/10
f 3/13/8 1/4/4 2/8/3 4/14/9
o Text.017_Text.037
v 0.005000 0.050000 0.004000
v 0.005000 -0.050000 0.004000
v 0.005000 0.050000 0.014000
v 0.005000 -0.050000 0.014000
v 0.013000 0.050000 0.015000
v 0.013000 -0.050000 0.015000
v 0.012000 0.050000 0.002000
v 0.012000 -0.050000 0.002000
vt 0.000000 0.000000
vt 0.000000 0.000000
vt 0.000000 0.000000
vt 0.000000 0.000000
vt 0.000000 0.000000
vt 0.213483 0.000000
vt 0.000000 0.000000
vt 0.000000 0.000000
vt 0.876405 0.000000
vt 0.808989 0.000000
vt 0.808989 1.000000
vt 0.876405 1.000000
vt 0.314607 0.000000
vt 0.314607 1.000000
vn 0.0000 -1.0000 0.0000
vn 0.0000 1.0000 0.0000
vn 0.4702 -0.5675 -0.6759
vn 0.4702 0.5675 -0.6759
vn 0.5682 0.5675 0.5959
vn 0.5682 -0.5675 0.5959
vn -0.6084 0.5842 0.5371
vn -0.6084 -0.5842 0.5371
vn -0.6426 -0.5934 -0.4847
vn -0.6426 0.5934 -0.4847
usemtl None
s off
f 12/15/11 10/16/11 16/17/11 14/18/11
f 15/19/12 9/20/12 11/21/12 13/22/12
s 1
f 16/17/13 15/23/14 13/24/15 14/25/16
f 13/24/15 11/21/17 12/15/18 14/18/16
f 10/16/19 9/20/20 15/23/14 16/26/13
f 11/27/17 9/20/20 10/16/19 12/28/18
o Text.016_Text.036
v 0.005000 0.050000 0.014000
v 0.005000 -0.050000 0.014000
v 0.000000 0.050000 0.019000
v 0.000000 -0.050000 0.019000
v 0.003000 0.050000 0.026000
v 0.003000 -0.050000 0.026000
v 0.013000 0.050000 0.015000
v 0.013000 -0.050000 0.015000
vt 0.000000 0.000000
vt 0.730337 1.000000
vt 0.000000 0.000000
vt 0.000000 0.000000
vt 0.000000 0.000000
vt 0.000000 0.000000
vt 0.000000 0.000000
vt 0.000000 0.000000
vt 0.808989 1.000000
vt 0.314607 1.000000
vt 0.314607 0.000000
vt 0.382022 1.000000
vt 0.382022 0.000000
vt 0.808989 0.000000
vn -0.0000 -1.0000 -0.0000
vn 0.0000 1.0000 0.0000
vn 0.7822 0.5517 -0.2893
vn 0.7822 -0.5517 -0.2893
vn -0.2545 -0.6203 -0.7419
vn -0.2545 0.6203 -0.7419
vn -0.7855 -0.6000 -0.1512
vn -0.1375 -0.5581 0.8183
vn -0.1375 0.5581 0.8183
vn -0.7855 0.6000 -0.1512
usemtl None
s off
f 24/29/21 22/30/21 20/31/21 18/32/21
f 19/33/22 21/34/22 23/35/22 17/36/22
s 1
f 23/35/23 24/37/24 18/38/25 17/39/26
f 20/40/27 22/30/28 21/34/29 19/41/30
f 18/38/25 20/31/27 19/33/30 17/36/26
f 21/34/29 22/30/28 24/37/24 23/42/23
o Text.015_Text.035
v 0.000000 0.050000 0.019000
v 0.000000 -0.050000 0.019000
v -0.007000 0.050000 0.020000
v -0.007000 -0.050000 0.020000
v -0.008000 0.050000 0.027000
v -0.008000 -0.050000 0.027000
v 0.003000 0.050000 0.026000
v 0.003000 -0.050000 0.026000
vt 0.000000 0.000000
vt 0.000000 0.000000
vt 0.000000 0.000000
vt 0.000000 0.000000
vt 0.000000 0.000000
vt 0.651685 0.000000
vt 0.000000 0.000000
vt 0.000000 0.000000
vt 0.382022 0.000000
vt 0.449438 0.000000
vt 0.382022 1.000000
vt 0.449438 1.000000
vt 0.730337 0.000000
vt 0.730337 1.000000
vn -0.0000 -1.0000 0.0000
vn 0.0000 1.0000 0.0000
vn 0.3947 0.5924 -0.7023
vn 0.7101 0.5626 0.4234
vn 0.7101 -0.5626 0.4234
vn 0.3947 -0.5924 -0.7023
vn -0.5690 -0.5937 -0.5690
vn -0.5690 0.5937 -0.5690
vn -0.5976 -0.5661 0.5678
vn -0.5976 0.5661 0.5678
usemtl None
s off
f 32/43/31 30/44/31 28/45/31 26/46/31
f 27/47/32 29/48/32 31/49/32 25/50/32
s 1
f 25/51/33 31/49/34 32/43/35 26/46/36
f 28/45/37 27/52/38 25/51/33 26/53/36
f 30/44/39 29/48/40 27/52/38 28/54/37
f 31/55/34 29/48/40 30/44/39 32/56/35
o Text.014_Text.034
v -0.007000 0.050000 0.020000
v -0.007000 -0.050000 0.020000
v -0.016000 0.050000 0.013000
v -0.016000 -0.050000 0.013000
v -0.016000 0.050000 0.022000
v -0.016000 -0.050000 0.022000
v -0.008000 0.050000 0.027000
v -0.008000 -0.050000 0.027000
vt 0.550562 1.000000
vt 0.561798 1.000000
vt 0.561798 0.000000
vt 0.550562 0.000000
vt 0.000000 0.000000
vt 0.449438 0.000000
vt 0.651685 0.000000
vt 0.651685 1.000000
vt 0.000000 0.000000
vt 0.000000 0.000000
vt 0.000000 0.000000
vt 0.000000 0.000000
vt 0.449438 1.000000
vt 0.000000 0.000000
vt 0.000000 0.000000
vn -0.3668 -0.5503 -0.7500
vn -0.6913 -0.6125 0.3832
vn -0.6913 0.6125 0.3832
vn -0.3668 0.5503 -0.7500
vn 0.7349 -0.6097 -0.2969
vn 0.7349 0.6097 -0.2969
vn 0.3497 0.5585 0.7522
vn 0.3497 -0.5585 0.7522
usemtl None
s 1
f 36/57/41 38/58/42 37/59/43 35/60/44
f 34/61/45 33/62/46 39/63/47 40/64/48
f 33/65/46 35/60/44 37/66/43 39/67/47
f 36/68/41 35/60/44 33/62/46 34/69/45
f 39/63/47 37/66/43 38/70/42 40/71/48
f 38/70/42 36/57/41 34/61/45 40/71/48
o Text.006_Text.033
v -0.017000 0.050000 -0.028000
v -0.017000 -0.050000 -0.028000
v -0.012000 0.050000 -0.021000
v -0.012000 -0.050000 -0.021000
v -0.004000 0.050000 -0.020000
v -0.004000 -0.050000 -0.020000
v 0.017000 0.050000 -0.020000
v 0.017000 -0.050000 -0.020000
v 0.017000 0.050000 -0.028000
v 0.017000 -0.050000 -0.028000
vt 0.988764 1.000000
vt 0.966292 1.000000
vt 0.000000 0.000000
vt 0.977528 1.000000
vt 0.977528 0.000000
vt 0.966292 0.000000
vt 0.988764 0.000000
vt 1.000000 1.000000
vt 1.000000 0.000000
vt 0.000000 0.000000
vt 0.000000 0.000000
vt 0.044944 0.000000
vt 0.000000 0.000000
vt 0.044944 1.000000
vn 0.0000 -1.0000 0.0000
vn -0.0448 -0.6934 0.7192
vn 0.5773 -0.5773 0.5773
vn 0.5773 0.5773 0.5773
vn -0.0448 0.6934 0.7192
vn 0.5773 -0.5773 -0.5773
vn 0.5773 0.5773 -0.5773
vn -0.7417 -0.5515 -0.3817
vn -0.7417 0.5515 -0.3817
vn -0.3988 0.6269 0.6692
vn -0.3988 -0.6269 0.6692
usemtl None
s off
f 50/72/49 46/73/49 44/74/49
s 1
f 46/73/50 48/75/51 47/76/52 45/77/53
f 48/75/51 50/72/54 49/78/55 47/76/52
f 50/72/54 42/79/56 41/80/57 49/78/55
f 45/77/53 43/81/58 44/74/59 46/73/50
f 43/81/58 45/77/53 47/76/52
f 50/72/54 48/75/51 46/73/50
f 50/72/54 44/74/59 42/82/56
f 49/78/55 41/80/57 43/81/58 47/76/52
f 43/83/58 41/84/57 42/82/56 44/85/59
