# Blender v2.93.5 OBJ File: '3_new.blend'
# www.blender.org
mtllib peg.mtl
o Text.002
v -0.024000 0.080000 -0.068000
v -0.024000 -0.080000 -0.068000
v -0.036000 0.080000 -0.062000
v -0.036000 -0.080000 -0.062000
v -0.036000 0.080000 -0.040000
v -0.036000 -0.080000 -0.040000
v -0.018000 0.080000 -0.050000
v -0.018000 -0.080000 -0.050000
vt 0.482993 1.000000
vt 0.000000 0.000000
vt 0.000000 0.000000
vt 0.489796 1.000000
vt 0.000000 0.000000
vt 0.000000 0.000000
vt 0.482993 0.000000
vt 0.489796 0.000000
vt 0.537415 0.000000
vt 0.448980 0.000000
vt 0.537415 1.000000
vn 0.0000 -1.0000 -0.0000
vn -0.0000 1.0000 0.0000
vn -0.6768 -0.6057 -0.4183
vn -0.4217 -0.5553 0.7168
vn -0.4217 0.5553 0.7168
vn -0.6768 0.6057 -0.4183
vn 0.3143 0.5702 -0.7589
vn 0.3143 -0.5702 -0.7589
vn 0.7540 -0.5877 0.2933
vn 0.7540 0.5877 0.2933
usemtl None
s off
f 4/1/1 2/2/1 8/3/1 6/4/1
f 7/5/2 1/6/2 3/7/2 5/8/2
s 1
f 4/1/3 6/4/4 5/8/5 3/7/6
f 3/7/6 1/6/7 2/2/8 4/1/3
f 8/3/9 7/9/10 5/8/5 6/4/4
f 2/2/8 1/10/7 7/9/10 8/11/9
o Text.003
v 0.006000 0.080000 -0.068000
v 0.006000 -0.080000 -0.068000
v -0.024000 0.080000 -0.068000
v -0.024000 -0.080000 -0.068000
v -0.018000 0.080000 -0.050000
v -0.018000 -0.080000 -0.050000
v 0.000000 0.080000 -0.050000
v 0.000000 -0.080000 -0.050000
vt 0.000000 0.000000
vt 0.000000 0.000000
vt 0.000000 0.000000
vt 0.000000 0.000000
vt 0.000000 0.000000
vt 0.000000 0.000000
vt 0.000000 0.000000
vt 0.537415 0.000000
vt 0.387755 1.000000
vt 0.448980 1.000000
vt 0.448980 0.000000
vt 0.537415 1.000000
vt 0.585034 1.000000
vt 0.585034 0.000000
vn 0.0000 -1.0000 0.0000
vn 0.0000 1.0000 0.0000
vn 0.6708 0.5623 -0.4835
vn 0.6708 -0.5623 -0.4835
vn -0.6708 -0.5623 -0.4835
vn -0.6708 0.5623 -0.4835
vn -0.4694 -0.5962 0.6513
vn 0.4694 -0.5962 0.6513
vn 0.4694 0.5962 0.6513
vn -0.4694 0.5962 0.6513
usemtl None
s off
f 12/12/11 10/13/11 16/14/11 14/15/11
f 15/16/12 9/17/12 11/18/12 13/19/12
s 1
f 9/17/13 10/20/14 12/21/15 11/22/16
f 14/23/17 16/14/18 15/16/19 13/19/20
f 16/24/18 10/13/14 9/17/13 15/25/19
f 11/18/16 12/21/15 14/23/17 13/19/20
o Text.004
v 0.030000 0.080000 -0.050000
v 0.030000 -0.080000 -0.050000
v 0.006000 0.080000 -0.068000
v 0.006000 -0.080000 -0.068000
v 0.000000 0.080000 -0.050000
v 0.000000 -0.080000 -0.050000
v 0.014000 0.080000 -0.042000
v 0.014000 -0.080000 -0.042000
vt 0.000000 0.000000
vt 0.000000 0.000000
vt 0.000000 0.000000
vt 0.000000 0.000000
vt 0.000000 0.000000
vt 0.000000 0.000000
vt 0.000000 0.000000
vt 0.585034 0.000000
vt 0.346939 1.000000
vt 0.387755 1.000000
vt 0.387755 0.000000
vt 0.625850 1.000000
vt 0.625850 0.000000
vt 0.585034 1.000000
vn 0.0000 -1.0000 -0.0000
vn 0.0000 1.0000 0.0000
vn 0.8273 0.5568 0.0746
vn 0.8273 -0.5568 0.0746
vn -0.2466 -0.5623 -0.7893
vn -0.2466 0.5623 -0.7893
vn -0.0219 -0.6147 0.7884
vn -0.0219 0.6147 0.7884
vn -0.7553 -0.5884 0.2886
vn -0.7553 0.5884 0.2886
usemtl None
s off
f 20/26/21 18/27/21 24/28/21 22/29/21
f 23/30/22 17/31/22 19/32/22 21/33/22
s 1
f 17/31/23 18/34/24 20/35/25 19/36/26
f 24/37/27 18/27/24 17/31/23 23/38/28
f 22/39/29 24/28/27 23/30/28 21/33/30
f 19/32/26 20/35/25 22/39/29 21/33/30
o Text.005
v 0.034000 0.080000 -0.018000
v 0.034000 -0.080000 -0.018000
v 0.030000 0.080000 -0.050000
v 0.030000 -0.080000 -0.050000
v 0.014000 0.080000 -0.042000
v 0.014000 -0.080000 -0.042000
v 0.014000 0.080000 -0.020000
v 0.014000 -0.080000 -0.020000
vt 0.000000 0.000000
vt 0.000000 0.000000
vt 0.000000 0.000000
vt 0.000000 0.000000
vt 0.000000 0.000000
vt 0.000000 0.000000
vt 0.000000 0.000000
vt 0.673469 1.000000
vt 0.673469 0.000000
vt 0.299320 0.000000
vt 0.625850 0.000000
vt 0.625850 1.000000
vt 0.346939 0.000000
vt 0.299320 1.000000
vn -0.0000 1.0000 0.0000
vn 0.0000 -1.0000 0.0000
vn -0.6025 0.5828 0.5453
vn -0.6768 0.6057 -0.4183
vn -0.6768 -0.6057 -0.4183
vn -0.6025 -0.5828 0.5453
vn 0.5898 -0.5665 0.5755
vn 0.5898 0.5665 0.5755
vn 0.3904 0.5616 -0.7295
vn 0.3904 -0.5616 -0.7295
usemtl None
s off
f 25/40/31 27/41/31 29/42/31 31/43/31
f 30/44/32 28/45/32 26/46/32 32/47/32
s 1
f 31/48/33 29/42/34 30/44/35 32/47/36
f 26/46/37 25/49/38 31/48/33 32/47/36
f 29/50/34 27/41/39 28/45/40 30/51/35
f 28/45/40 27/52/39 25/49/38 26/53/37
o Text.006
v 0.016000 0.080000 0.004000
v 0.016000 -0.080000 0.004000
v 0.034000 0.080000 -0.018000
v 0.034000 -0.080000 -0.018000
v 0.014000 0.080000 -0.020000
v 0.014000 -0.080000 -0.020000
v -0.012000 0.080000 -0.006000
v -0.012000 -0.080000 -0.006000
vt 0.000000 0.000000
vt 0.000000 0.000000
vt 0.000000 0.000000
vt 0.734694 0.000000
vt 0.000000 0.000000
vt 0.000000 0.000000
vt 0.000000 0.000000
vt 0.000000 0.000000
vt 0.673469 0.000000
vt 0.673469 1.000000
vt 0.299320 0.000000
vt 0.299320 1.000000
vt 0.238095 0.000000
vt 0.238095 1.000000
vn 0.0000 1.0000 0.0000
vn 0.0000 -1.0000 0.0000
vn -0.8339 -0.5483 0.0630
vn -0.8339 0.5483 0.0630
vn -0.1494 0.6468 -0.7479
vn -0.1494 -0.6468 -0.7479
vn 0.7700 0.5526 -0.3189
vn 0.2146 0.5975 0.7725
vn 0.2146 -0.5975 0.7725
vn 0.7700 -0.5526 -0.3189
usemtl None
s off
f 33/54/41 35/55/41 37/56/41
f 33/54/41 37/56/41 39/57/41
f 38/58/42 36/59/42 34/60/42
f 38/58/42 34/60/42 40/61/42
s 1
f 40/61/43 39/57/44 37/62/45 38/63/46
f 35/64/47 33/54/48 34/60/49 36/59/50
f 38/58/46 37/62/45 35/64/47 36/65/50
f 33/66/48 39/57/44 40/61/43 34/67/49
o Text.008
v 0.032000 0.080000 0.018000
v 0.032000 -0.080000 0.018000
v 0.016000 0.080000 0.004000
v 0.016000 -0.080000 0.004000
v -0.012000 0.080000 0.012000
v -0.012000 -0.080000 0.012000
v 0.012000 0.080000 0.020000
v 0.012000 -0.080000 0.020000
vt 0.000000 0.000000
vt 0.000000 0.000000
vt 0.000000 0.000000
vt 0.741497 0.000000
vt 0.000000 0.000000
vt 0.000000 0.000000
vt 0.000000 0.000000
vt 0.000000 0.000000
vt 0.238095 0.000000
vt 0.238095 1.000000
vt 0.190476 0.000000
vt 0.190476 1.000000
vt 0.795918 0.000000
vt 0.795918 1.000000
vn 0.0000 1.0000 0.0000
vn 0.0000 -1.0000 0.0000
vn -0.8397 -0.5428 -0.0182
vn -0.8397 0.5428 -0.0182
vn 0.1725 0.6136 -0.7705
vn 0.1725 -0.6136 -0.7705
vn 0.7968 0.5477 0.2549
vn -0.0829 0.6629 0.7441
vn -0.0829 -0.6629 0.7441
vn 0.7968 -0.5477 0.2549
usemtl None
s off
f 47/68/51 41/69/51 43/70/51
f 47/68/51 43/70/51 45/71/51
f 44/72/52 42/73/52 48/74/52
f 44/72/52 48/74/52 46/75/52
s 1
f 46/75/53 45/71/54 43/76/55 44/77/56
f 41/78/57 47/68/58 48/74/59 42/73/60
f 44/72/56 43/76/55 41/78/57 42/79/60
f 47/80/58 45/71/54 46/75/53 48/81/59
o Text.009
v 0.032000 0.080000 0.044000
v 0.032000 -0.080000 0.044000
v 0.032000 0.080000 0.018000
v 0.032000 -0.080000 0.018000
v 0.012000 0.080000 0.020000
v 0.012000 -0.080000 0.020000
v 0.012000 0.080000 0.042000
v 0.012000 -0.080000 0.042000
vt 0.000000 0.000000
vt 0.000000 0.000000
vt 0.000000 0.000000
vt 0.850340 1.000000
vt 0.000000 0.000000
vt 0.000000 0.000000
vt 0.000000 0.000000
vt 0.000000 0.000000
vt 0.795918 0.000000
vt 0.795918 1.000000
vt 0.190476 0.000000
vt 0.142857 0.000000
vt 0.142857 1.000000
vt 0.850340 0.000000
vn -0.0000 -1.0000 0.0000
vn 0.0000 1.0000 0.0000
vn -0.6025 0.5828 -0.5453
vn 0.5502 0.5723 -0.6080
vn 0.5502 -0.5723 -0.6080
vn -0.6025 -0.5828 -0.5453
vn 0.5502 0.5723 0.6080
vn 0.5502 -0.5723 0.6080
vn -0.6025 0.5828 0.5453
vn -0.6025 -0.5828 0.5453
usemtl None
s off
f 54/82/61 52/83/61 50/84/61 56/85/61
f 49/86/62 51/87/62 53/88/62 55/89/62
s 1
f 53/90/63 51/87/64 52/83/65 54/91/66
f 52/83/65 51/92/64 49/93/67 50/94/68
f 50/84/68 49/93/67 55/95/69 56/85/70
f 55/95/69 53/88/63 54/82/66 56/85/70
o Text.010
v 0.020000 0.080000 0.064000
v 0.020000 -0.080000 0.064000
v 0.032000 0.080000 0.044000
v 0.032000 -0.080000 0.044000
v 0.012000 0.080000 0.042000
v 0.012000 -0.080000 0.042000
v 0.000000 0.080000 0.050000
v 0.000000 -0.080000 0.050000
vt 0.000000 0.000000
vt 0.000000 0.000000
vt 0.000000 0.000000
vt 0.884354 0.000000
vt 0.000000 0.000000
vt 0.000000 0.000000
vt 0.000000 0.000000
vt 0.000000 0.000000
vt 0.850340 0.000000
vt 0.850340 1.000000
vt 0.142857 0.000000
vt 0.142857 1.000000
vt 0.108844 0.000000
vt 0.108844 1.000000
vn 0.0000 1.0000 0.0000
vn -0.0000 -1.0000 -0.0000
vn -0.8282 -0.5603 -0.0094
vn -0.8282 0.5603 -0.0094
vn -0.1860 0.6385 -0.7468
vn -0.1860 -0.6385 -0.7468
vn 0.7418 0.5576 -0.3725
vn 0.1706 0.5737 0.8010
vn 0.1706 -0.5737 0.8010
vn 0.7418 -0.5576 -0.3725
usemtl None
s off
f 57/96/71 59/97/71 61/98/71
f 57/96/71 61/98/71 63/99/71
f 62/100/72 60/101/72 58/102/72
f 62/100/72 58/102/72 64/103/72
s 1
f 64/103/73 63/99/74 61/104/75 62/105/76
f 59/106/77 57/96/78 58/102/79 60/101/80
f 62/100/76 61/104/75 59/106/77 60/107/80
f 57/108/78 63/99/74 64/103/73 58/109/79
o Text.011
v -0.010000 0.080000 0.070000
v -0.010000 -0.080000 0.070000
v 0.020000 0.080000 0.064000
v 0.020000 -0.080000 0.064000
v 0.000000 0.080000 0.050000
v 0.000000 -0.080000 0.050000
v -0.012000 0.080000 0.052000
v -0.012000 -0.080000 0.052000
vt 0.000000 0.000000
vt 0.000000 0.000000
vt 0.000000 0.000000
vt 0.000000 0.000000
vt 0.000000 0.000000
vt 0.000000 0.000000
vt 0.918367 0.000000
vt 0.000000 0.000000
vt 0.884354 0.000000
vt 0.108844 0.000000
vt 0.108844 1.000000
vt 0.884354 1.000000
vt 0.068027 0.000000
vt 0.068027 1.000000
vn 0.0000 -1.0000 0.0000
vn 0.0000 1.0000 0.0000
vn 0.1714 -0.6310 -0.7566
vn 0.1714 0.6310 -0.7566
vn 0.8190 0.5475 0.1717
vn 0.8190 -0.5475 0.1717
vn -0.4837 0.5729 0.6616
vn -0.4837 -0.5729 0.6616
vn -0.6496 -0.5802 -0.4912
vn -0.6496 0.5802 -0.4912
usemtl None
s off
f 70/110/81 66/111/81 72/112/81
f 70/110/81 68/113/81 66/111/81
f 65/114/82 69/115/82 71/116/82
f 65/114/82 67/117/82 69/115/82
s 1
f 70/110/83 69/118/84 67/119/85 68/120/86
f 67/119/85 65/114/87 66/111/88 68/113/86
f 72/112/89 71/116/90 69/118/84 70/121/83
f 65/122/87 71/116/90 72/112/89 66/123/88
o Text.012
v -0.010000 0.080000 0.070000
v -0.010000 -0.080000 0.070000
v -0.012000 0.080000 0.052000
v -0.012000 -0.080000 0.052000
v -0.032000 0.080000 0.046000
v -0.032000 -0.080000 0.046000
v -0.032000 0.080000 0.064000
v -0.032000 -0.080000 0.064000
vt 0.986395 1.000000
vt 0.993197 1.000000
vt 0.993197 0.000000
vt 0.986395 0.000000
vt 0.000000 0.000000
vt 0.000000 0.000000
vt 0.000000 0.000000
vt 0.068027 0.000000
vt 0.000000 0.000000
vt 0.068027 1.000000
vt 0.000000 0.000000
vt 0.918367 0.000000
vt 0.000000 0.000000
vt 0.918367 1.000000
vn -0.4931 -0.5635 -0.6627
vn -0.6401 -0.5926 0.4889
vn -0.6401 0.5926 0.4889
vn -0.4931 0.5635 -0.6627
vn 0.6136 0.6015 -0.5116
vn 0.5385 0.5601 0.6295
vn 0.5385 -0.5601 0.6295
vn 0.6136 -0.6015 -0.5116
usemtl None
s 1
f 78/124/91 80/125/92 79/126/93 77/127/94
f 75/128/95 77/127/94 79/129/93 73/130/96
f 73/131/96 79/129/93 80/132/92 74/133/97
f 80/132/92 78/124/91 76/134/98 74/133/97
f 76/134/98 75/135/95 73/131/96 74/133/97
f 78/136/91 77/127/94 75/135/95 76/137/98
o Text.018_Text.025
v 0.016000 0.080000 0.004000
v 0.016000 -0.080000 0.004000
v -0.012000 0.080000 -0.006000
v -0.012000 -0.080000 -0.006000
v -0.012000 0.080000 0.012000
v -0.012000 -0.080000 0.012000
vt 0.734694 1.000000
vt 0.741497 1.000000
vt 0.741497 0.000000
vt 0.734694 0.000000
vt 0.000000 0.000000
vt 0.000000 0.000000
vn -0.4767 -0.5614 -0.6764
vn -0.4972 -0.5641 0.6592
vn -0.4972 0.5641 0.6592
vn -0.4767 0.5614 -0.6764
vn 0.8391 0.5432 0.0272
vn 0.8391 -0.5432 0.0272
usemtl None
s 1
f 84/138/99 86/139/100 85/140/101 83/141/102
f 83/141/102 85/140/101 81/142/103
f 86/139/100 82/143/104 81/142/103 85/140/101
f 86/139/100 84/138/99 82/143/104
f 81/142/103 82/143/104 84/138/99 83/141/102
