# Blender v2.93.5 OBJ File: 'h&p3.blend'
# www.blender.org
mtllib peg.mtl
o convex_0
v -0.027759 0.080377 -0.062572
v -0.027759 -0.080391 -0.062570
v -0.031837 -0.080391 -0.060939
v -0.035922 0.080377 -0.045430
v -0.035104 0.080377 -0.045430
v -0.004087 0.080377 -0.066654
v -0.035922 -0.080391 -0.045430
v -0.017147 -0.080391 -0.065838
v -0.003269 -0.080391 -0.055227
v -0.031837 0.080377 -0.060939
v -0.003269 0.080377 -0.055227
v -0.032656 -0.080391 -0.060122
v -0.003269 -0.080391 -0.065838
v -0.017147 0.080377 -0.065838
v -0.011432 -0.080391 -0.066654
v -0.035922 0.080377 -0.047063
v -0.003269 0.080377 -0.065835
v -0.032656 0.080377 -0.060122
v -0.035104 -0.080391 -0.045430
v -0.011432 0.080377 -0.066654
v -0.004087 -0.080391 -0.066654
v -0.020411 0.080377 -0.065021
v -0.035922 -0.080391 -0.047063
v -0.020411 -0.080391 -0.065021
vn -0.3714 -0.0000 -0.9285
vn 0.0000 1.0000 0.0000
vn 0.0000 0.0000 1.0000
vn 0.0000 -1.0000 0.0000
vn 0.2941 0.0000 0.9558
vn 1.0000 0.0000 0.0000
vn -0.1413 0.0000 -0.9900
vn -1.0000 -0.0000 0.0000
vn 0.7075 0.0000 -0.7067
vn -0.7062 -0.0000 -0.7080
vn -0.9701 -0.0000 -0.2426
vn 0.0000 0.0000 -1.0000
vn 0.7062 0.0000 -0.7080
vn -0.2428 0.0000 -0.9701
vn -0.3162 0.0000 -0.9487
vn -0.3164 -0.0000 -0.9486
vn -0.3717 -0.0000 -0.9283
usemtl Default_OBJ
s off
f 1//1 2//1 3//1
f 4//2 5//2 6//2
f 5//3 4//3 7//3
f 8//4 9//4 7//4
f 4//2 6//2 10//2
f 6//2 5//2 11//2
f 5//5 9//5 11//5
f 8//4 7//4 12//4
f 9//4 8//4 13//4
f 11//6 9//6 13//6
f 10//2 6//2 14//2
f 13//4 8//4 15//4
f 8//7 14//7 15//7
f 8//4 12//4 2//4
f 7//8 4//8 16//8
f 4//2 10//2 16//2
f 6//2 11//2 17//2
f 13//9 6//9 17//9
f 11//6 13//6 17//6
f 10//10 12//10 18//10
f 16//2 10//2 18//2
f 12//11 16//11 18//11
f 9//5 5//5 19//5
f 5//3 7//3 19//3
f 7//4 9//4 19//4
f 14//2 6//2 20//2
f 6//12 15//12 20//12
f 15//7 14//7 20//7
f 6//13 13//13 21//13
f 13//4 15//4 21//4
f 15//12 6//12 21//12
f 14//14 8//14 22//14
f 10//2 14//2 22//2
f 12//4 7//4 23//4
f 7//8 16//8 23//8
f 16//11 12//11 23//11
f 10//2 22//2 1//2
f 1//15 22//15 24//15
f 8//4 2//4 24//4
f 22//14 8//14 24//14
f 2//16 1//16 24//16
f 12//10 10//10 3//10
f 2//4 12//4 3//4
f 10//17 1//17 3//17
o convex_1
v 0.030200 -0.080392 -0.043797
v 0.027749 0.080392 -0.048695
v 0.030200 0.080392 -0.043797
v -0.003269 0.080392 -0.055224
v -0.002450 0.080392 -0.054409
v 0.020404 0.080392 -0.057671
v 0.030200 0.080392 -0.042981
v 0.021220 -0.080392 -0.056857
v 0.016322 -0.080392 -0.042981
v -0.003269 -0.080392 -0.065838
v 0.002444 0.080392 -0.065838
v -0.003269 -0.080392 -0.055224
v 0.030200 -0.080392 -0.042981
v 0.016322 0.080392 -0.042981
v 0.008977 -0.080392 -0.064204
v -0.003269 0.080392 -0.065838
v 0.008977 0.080392 -0.064204
v 0.024483 -0.080392 -0.053593
v 0.017138 -0.080392 -0.060121
v 0.002444 -0.080392 -0.065838
v 0.024483 0.080392 -0.053593
v 0.017138 0.080392 -0.060121
v -0.002450 -0.080392 -0.054409
v 0.027749 -0.080392 -0.048695
vn 0.8943 0.0000 -0.4475
vn 0.0000 1.0000 0.0000
vn 0.0000 -1.0000 0.0000
vn -0.7054 0.0000 0.7088
vn -1.0000 0.0000 0.0000
vn 0.0000 0.0000 1.0000
vn -0.5200 0.0000 0.8542
vn 0.0000 0.0000 -1.0000
vn 0.2426 0.0000 -0.9701
vn 0.6245 -0.0008 -0.7810
vn 0.4474 0.0000 -0.8943
vn 1.0000 0.0000 0.0000
vn 0.7070 0.0000 -0.7072
vn 0.7072 -0.0000 -0.7070
vn 0.8320 -0.0000 -0.5548
vn 0.6001 -0.0000 -0.7999
usemtl Default_OBJ
s off
f 25//18 26//18 27//18
f 28//19 29//19 30//19
f 30//19 29//19 31//19
f 32//20 33//20 34//20
f 28//19 30//19 35//19
f 29//21 28//21 36//21
f 34//20 33//20 36//20
f 28//22 34//22 36//22
f 31//23 33//23 37//23
f 33//20 32//20 37//20
f 31//19 29//19 38//19
f 29//24 33//24 38//24
f 33//23 31//23 38//23
f 32//20 34//20 39//20
f 34//22 28//22 40//22
f 28//19 35//19 40//19
f 35//25 34//25 40//25
f 30//19 31//19 26//19
f 35//19 30//19 41//19
f 39//26 35//26 41//26
f 37//20 32//20 42//20
f 30//27 32//27 43//27
f 32//20 39//20 43//20
f 39//28 41//28 43//28
f 34//25 35//25 44//25
f 39//20 34//20 44//20
f 35//26 39//26 44//26
f 31//29 37//29 25//29
f 37//20 42//20 25//20
f 32//30 30//30 45//30
f 30//19 26//19 45//19
f 42//31 32//31 45//31
f 26//32 42//32 45//32
f 41//19 30//19 46//19
f 30//33 43//33 46//33
f 43//28 41//28 46//28
f 33//24 29//24 47//24
f 29//21 36//21 47//21
f 36//20 33//20 47//20
f 42//32 26//32 48//32
f 26//18 25//18 48//18
f 25//20 42//20 48//20
f 26//19 31//19 27//19
f 31//29 25//29 27//29
o convex_2
v -0.022861 0.080392 0.064774
v -0.022861 -0.080392 0.064772
v -0.019594 -0.080392 0.065589
v -0.032657 0.080392 0.050899
v -0.029390 0.080392 0.062324
v -0.005718 0.080392 0.054979
v -0.014699 -0.080392 0.066406
v -0.032657 -0.080392 0.050082
v -0.005718 -0.080392 0.054979
v -0.005718 0.080392 0.066406
v -0.029390 -0.080392 0.062324
v -0.005718 -0.080392 0.066406
v -0.019594 0.080392 0.065589
v -0.030207 0.080392 0.050082
v -0.030207 -0.080392 0.050082
v -0.014699 0.080392 0.066406
v -0.027757 0.080392 0.063141
v -0.032657 -0.080392 0.050899
v -0.032657 0.080392 0.050082
v -0.027757 -0.080392 0.063141
vn -0.2426 -0.0000 0.9701
vn 0.0000 1.0000 0.0000
vn 0.0000 -1.0000 0.0000
vn 1.0000 0.0000 0.0000
vn -0.9615 0.0000 0.2749
vn 0.0000 0.0000 1.0000
vn 0.1961 -0.0000 -0.9806
vn 0.0000 -0.0000 -1.0000
vn -0.1646 0.0000 0.9864
vn -0.4474 0.0000 0.8943
vn -1.0000 0.0000 0.0000
vn -0.3164 0.0000 0.9486
vn -0.3161 -0.0000 0.9487
vn -0.2420 0.0000 0.9703
usemtl Default_OBJ
s off
f 49//34 50//34 51//34
f 52//35 53//35 54//35
f 55//36 56//36 57//36
f 54//35 53//35 58//35
f 57//37 54//37 58//37
f 53//38 52//38 59//38
f 56//36 55//36 59//36
f 55//36 57//36 60//36
f 58//39 55//39 60//39
f 57//37 58//37 60//37
f 58//35 53//35 61//35
f 52//35 54//35 62//35
f 54//40 57//40 62//40
f 62//40 57//40 63//40
f 57//36 56//36 63//36
f 56//41 62//41 63//41
f 59//36 55//36 50//36
f 55//39 58//39 64//39
f 61//42 55//42 64//42
f 58//35 61//35 64//35
f 53//43 59//43 65//43
f 61//35 53//35 65//35
f 52//44 56//44 66//44
f 59//38 52//38 66//38
f 56//36 59//36 66//36
f 56//44 52//44 67//44
f 52//35 62//35 67//35
f 62//41 56//41 67//41
f 61//35 65//35 49//35
f 49//45 65//45 68//45
f 59//36 50//36 68//36
f 65//43 59//43 68//43
f 50//46 49//46 68//46
f 55//42 61//42 51//42
f 50//36 55//36 51//36
f 61//47 49//47 51//47
o convex_3
v 0.028566 0.080392 0.046817
v 0.028566 -0.080392 0.046817
v 0.029380 -0.080392 0.044367
v -0.005714 0.080392 0.066407
v 0.000814 0.080392 0.066407
v 0.013871 0.080392 0.043550
v 0.000814 -0.080392 0.066407
v -0.005714 -0.080392 0.054979
v 0.024484 -0.080392 0.054162
v 0.019588 0.080392 0.059060
v 0.029380 -0.080392 0.043550
v 0.029380 0.080392 0.043550
v -0.005714 0.080392 0.054979
v 0.013871 -0.080392 0.043552
v 0.014688 -0.080392 0.062322
v -0.005714 -0.080392 0.066407
v 0.026116 0.080392 0.051714
v 0.010610 0.080392 0.063957
v 0.008160 -0.080392 0.064772
v 0.019588 -0.080392 0.059060
v 0.014688 0.080392 0.062324
v 0.024484 0.080392 0.054162
v 0.004896 0.080392 0.065588
v 0.026116 -0.080392 0.051714
vn 0.9490 0.0000 0.3153
vn 0.0000 1.0000 -0.0000
vn 0.0000 0.0000 1.0000
vn 0.0000 -1.0000 -0.0000
vn 0.0000 -0.0000 -1.0000
vn -0.5040 -0.0000 -0.8637
vn -1.0000 0.0000 0.0000
vn -0.0001 -0.0000 -1.0000
vn 0.3514 -0.0006 0.9362
vn 0.7073 0.0000 0.7070
vn 0.5542 -0.0000 0.8324
vn 0.3717 -0.0000 0.9283
vn 0.5544 0.0000 0.8323
vn 0.8943 0.0000 0.4474
vn 0.8321 0.0000 0.5547
vn 0.1967 0.0000 0.9805
vn 0.2173 -0.0005 0.9761
vn 0.2745 0.0007 0.9616
vn 1.0000 -0.0000 0.0000
vn 0.9703 0.0012 0.2418
usemtl Default_OBJ
s off
f 69//48 70//48 71//48
f 72//49 73//49 74//49
f 73//50 72//50 75//50
f 76//51 77//51 75//51
f 74//49 73//49 78//49
f 77//51 76//51 79//51
f 79//52 74//52 80//52
f 74//49 78//49 80//49
f 72//49 74//49 81//49
f 74//53 76//53 81//53
f 76//54 72//54 81//54
f 76//53 74//53 82//53
f 79//51 76//51 82//51
f 74//55 79//55 82//55
f 75//51 77//51 83//51
f 72//54 76//54 84//54
f 75//50 72//50 84//50
f 76//51 75//51 84//51
f 80//49 78//49 85//49
f 78//49 73//49 86//49
f 77//51 79//51 70//51
f 75//51 83//51 87//51
f 83//56 86//56 87//56
f 77//57 78//57 88//57
f 83//51 77//51 88//51
f 83//58 88//58 89//58
f 78//49 86//49 89//49
f 86//59 83//59 89//59
f 88//60 78//60 89//60
f 80//49 85//49 69//49
f 85//61 70//61 69//61
f 78//57 77//57 90//57
f 77//62 85//62 90//62
f 85//49 78//49 90//49
f 73//63 75//63 91//63
f 86//49 73//49 91//49
f 75//64 87//64 91//64
f 87//65 86//65 91//65
f 85//62 77//62 92//62
f 77//51 70//51 92//51
f 70//61 85//61 92//61
f 79//66 80//66 71//66
f 70//51 79//51 71//51
f 80//67 69//67 71//67
o convex_4
v 0.013057 -0.080392 -0.011960
v -0.008982 0.080377 -0.002979
v 0.013057 0.080377 -0.011960
v 0.013874 -0.080392 0.017428
v 0.013874 -0.080392 -0.011960
v 0.013874 0.080377 -0.011960
v 0.013874 0.080377 0.017428
v -0.008982 0.080377 0.007630
v -0.008982 -0.080377 -0.002979
v -0.008982 -0.080377 0.007630
v 0.013057 -0.080392 0.017428
v 0.013057 0.080377 0.017428
vn -0.3774 -0.0000 -0.9261
vn 1.0000 -0.0000 0.0000
vn 0.0000 1.0000 0.0000
vn -1.0000 0.0000 0.0000
vn 0.0000 -1.0000 0.0000
vn 0.0000 0.0000 1.0000
vn -0.4062 0.0000 0.9138
vn -0.0007 -1.0000 0.0000
vn 0.0000 -0.0000 -1.0000
usemtl Default_OBJ
s off
f 93//68 94//68 95//68
f 96//69 97//69 98//69
f 96//69 98//69 99//69
f 98//70 100//70 99//70
f 100//71 101//71 102//71
f 100//70 98//70 94//70
f 101//71 100//71 94//71
f 97//72 96//72 103//72
f 96//73 99//73 103//73
f 100//74 102//74 103//74
f 102//75 101//75 103//75
f 98//76 97//76 93//76
f 101//68 94//68 93//68
f 97//72 103//72 93//72
f 103//75 101//75 93//75
f 99//70 100//70 104//70
f 100//74 103//74 104//74
f 103//73 99//73 104//73
f 94//70 98//70 95//70
f 98//76 93//76 95//76
o convex_5
v 0.029384 0.080377 0.023144
v 0.030200 -0.080392 0.027221
v 0.029384 -0.080377 0.023144
v 0.017139 -0.080377 0.007635
v 0.015507 -0.080377 0.006815
v 0.015507 0.080377 0.006815
v 0.014691 0.080377 0.043550
v 0.030199 0.080377 0.040281
v 0.029384 -0.080377 0.043550
v 0.014691 -0.080377 0.043550
v 0.026117 0.080377 0.015798
v 0.013876 0.080377 0.006815
v 0.030199 0.080377 0.027225
v 0.013876 -0.080377 0.006815
v 0.029384 0.080377 0.043550
v 0.028567 -0.080377 0.020695
v 0.026117 -0.080377 0.015798
v 0.013876 -0.080377 0.019063
v 0.019589 0.080377 0.009268
v 0.030200 -0.080392 0.040281
v 0.013876 0.080377 0.019063
v 0.019589 -0.080377 0.009268
v 0.028567 0.080377 0.020695
vn 0.9806 0.0000 -0.1963
vn 0.4490 -0.0000 -0.8935
vn 0.0000 1.0000 0.0000
vn 0.0000 0.0000 1.0000
vn 0.0000 -0.0000 -1.0000
vn 0.0006 -1.0000 -0.0012
vn 1.0000 0.0000 0.0000
vn 0.0000 -1.0000 -0.0007
vn 0.8943 -0.0000 -0.4474
vn 0.0092 -0.9999 -0.0046
vn -0.9994 0.0000 0.0333
vn -1.0000 0.0000 0.0000
vn -0.0009 -1.0000 0.0000
vn 0.5151 0.0009 -0.8571
vn 0.7072 -0.0000 -0.7070
vn 0.0000 -1.0000 0.0046
vn 0.9703 0.0000 0.2419
vn 0.9702 0.0000 0.2422
vn -0.0010 -1.0000 0.0000
vn 0.9806 0.0000 -0.1958
vn 0.0009 -1.0000 -0.0014
vn 0.0020 -1.0000 -0.0020
vn 0.5546 -0.0000 -0.8321
vn 0.9486 -0.0000 -0.3165
vn 0.0276 -0.9996 -0.0092
usemtl Default_OBJ
s off
f 105//77 106//77 107//77
f 108//78 109//78 110//78
f 110//79 111//79 112//79
f 113//80 111//80 114//80
f 110//79 112//79 115//79
f 110//81 109//81 116//81
f 111//79 110//79 116//79
f 115//79 112//79 117//79
f 116//81 109//81 118//81
f 112//79 111//79 119//79
f 111//80 113//80 119//80
f 109//82 108//82 106//82
f 117//83 112//83 106//83
f 118//84 109//84 106//84
f 115//85 120//85 121//85
f 120//86 106//86 121//86
f 114//87 111//87 122//87
f 116//88 118//88 122//88
f 118//89 106//89 122//89
f 108//90 110//90 123//90
f 110//79 115//79 123//79
f 115//91 121//91 123//91
f 113//92 114//92 124//92
f 112//93 119//93 124//93
f 119//94 113//94 124//94
f 106//83 112//83 124//83
f 114//95 122//95 124//95
f 122//89 106//89 124//89
f 111//79 116//79 125//79
f 122//87 111//87 125//87
f 116//88 122//88 125//88
f 115//79 117//79 105//79
f 117//96 106//96 105//96
f 106//97 108//97 126//97
f 121//98 106//98 126//98
f 108//99 123//99 126//99
f 123//91 121//91 126//91
f 120//85 115//85 127//85
f 105//100 120//100 127//100
f 115//79 105//79 127//79
f 106//101 120//101 107//101
f 120//100 105//100 107//100
o convex_6
v 0.020405 0.080392 -0.001354
v 0.017140 -0.080392 0.000281
v 0.020405 -0.080392 -0.001354
v 0.030199 -0.080392 -0.042981
v 0.031015 -0.080392 -0.041345
v 0.013876 -0.080392 0.001101
v 0.017140 0.080392 -0.042981
v 0.017140 -0.080392 -0.042981
v 0.031015 0.080392 -0.041345
v 0.026118 0.080392 -0.006247
v 0.031015 -0.080392 -0.016047
v 0.013876 0.080392 0.001101
v 0.032647 0.080392 -0.024206
v 0.022855 -0.080392 -0.002981
v 0.013876 0.080392 -0.013600
v 0.032647 -0.080392 -0.031550
v 0.013876 -0.080392 -0.013600
v 0.030199 0.080392 -0.013596
v 0.027750 -0.080392 -0.008698
v 0.030199 0.080392 -0.042981
v 0.032647 -0.080392 -0.024206
v 0.032647 0.080392 -0.031550
v 0.031831 0.080392 -0.038079
v 0.031831 0.080392 -0.019309
v 0.022855 0.080392 -0.002981
v 0.014692 0.080392 0.001101
v 0.026118 -0.080392 -0.006247
v 0.031831 -0.080392 -0.038079
v 0.030199 -0.080392 -0.013596
v 0.027750 0.080392 -0.008698
v 0.031831 -0.080392 -0.019309
v 0.017140 0.080392 0.000281
vn 0.4478 0.0000 0.8942
vn 0.0000 -1.0000 0.0000
vn 0.0000 -0.0000 -1.0000
vn 0.8949 -0.0000 -0.4463
vn 0.0000 1.0000 0.0000
vn -0.9939 0.0000 -0.1104
vn -1.0000 0.0000 0.0000
vn 1.0000 0.0000 0.0000
vn 0.9702 0.0000 -0.2424
vn 0.9923 -0.0000 -0.1240
vn 0.9615 0.0007 0.2747
vn 0.9864 0.0000 0.1644
vn 0.7074 0.0000 0.7068
vn 0.5532 0.0000 0.8330
vn 0.0000 0.0000 1.0000
vn 0.2437 -0.0012 0.9699
vn 0.8324 0.0000 0.5542
vn 0.9488 0.0000 0.3159
vn 0.8944 0.0000 0.4472
vn 0.9701 0.0000 0.2427
vn 0.3176 0.0000 0.9482
usemtl Default_OBJ
s off
f 128//102 129//102 130//102
f 131//103 132//103 133//103
f 134//104 131//104 135//104
f 131//103 133//103 135//103
f 132//105 131//105 136//105
f 134//106 137//106 136//106
f 133//103 132//103 138//103
f 137//106 134//106 139//106
f 136//106 137//106 140//106
f 133//103 138//103 141//103
f 134//107 135//107 142//107
f 133//108 139//108 142//108
f 139//106 134//106 142//106
f 138//103 132//103 143//103
f 135//103 133//103 144//103
f 142//107 135//107 144//107
f 133//108 142//108 144//108
f 140//106 137//106 145//106
f 141//103 138//103 146//103
f 137//106 139//106 128//106
f 131//104 134//104 147//104
f 136//105 131//105 147//105
f 134//106 136//106 147//106
f 138//103 143//103 148//103
f 143//109 140//109 148//109
f 136//106 140//106 149//106
f 140//109 143//109 149//109
f 133//103 141//103 129//103
f 132//110 136//110 150//110
f 136//106 149//106 150//106
f 149//111 143//111 150//111
f 145//112 138//112 151//112
f 140//106 145//106 151//106
f 148//113 140//113 151//113
f 141//114 137//114 152//114
f 137//106 128//106 152//106
f 128//115 141//115 152//115
f 139//116 133//116 153//116
f 128//106 139//106 153//106
f 133//117 129//117 153//117
f 137//114 141//114 154//114
f 141//103 146//103 154//103
f 146//118 137//118 154//118
f 143//103 132//103 155//103
f 132//110 150//110 155//110
f 150//111 143//111 155//111
f 138//119 145//119 156//119
f 146//103 138//103 156//103
f 145//120 146//120 156//120
f 145//106 137//106 157//106
f 137//118 146//118 157//118
f 146//120 145//120 157//120
f 138//103 148//103 158//103
f 151//121 138//121 158//121
f 148//113 151//113 158//113
f 129//102 128//102 159//102
f 128//106 153//106 159//106
f 153//122 129//122 159//122
f 141//115 128//115 130//115
f 129//103 141//103 130//103
