# Blender v2.93.5 OBJ File: ''
# www.blender.org
mtllib peg.mtl
o convex_0.001
v 0.011196 0.080471 0.067727
v 0.009311 -0.080471 0.066787
v 0.011196 -0.080471 0.067727
v -0.019863 0.080471 0.038555
v -0.017978 0.080471 0.041379
v 0.021549 0.080471 0.054553
v -0.019863 -0.080471 0.038555
v 0.000843 -0.080471 0.037612
v 0.013077 -0.080471 0.067727
v 0.009311 0.080471 0.066787
v 0.021549 -0.080471 0.054553
v 0.000843 0.080471 0.037612
v -0.003859 -0.080471 0.056434
v 0.014017 0.080471 0.066787
v -0.003859 0.080471 0.056434
v 0.021549 -0.080471 0.057374
v -0.019863 0.080471 0.037612
v -0.012331 -0.080471 0.047965
v 0.021549 0.080471 0.057374
v -0.019863 -0.080471 0.037612
v -0.012331 0.080471 0.047965
v 0.001780 0.080471 0.061139
v 0.020605 -0.080471 0.053610
v 0.001780 -0.080471 0.061139
v -0.017978 -0.080471 0.041379
v 0.020605 0.080471 0.053610
v 0.014017 -0.080471 0.066787
v 0.013077 0.080471 0.067727
vn -0.4463 -0.0000 0.8949
vn 0.0000 1.0000 0.0000
vn -0.8317 -0.0000 0.5552
vn -0.0000 -1.0000 0.0000
vn 1.0000 0.0000 0.0000
vn -1.0000 0.0000 0.0000
vn 0.0000 0.0000 -1.0000
vn -0.7070 -0.0000 0.7072
vn 0.7808 -0.0000 0.6248
vn -0.7592 -0.0000 0.6509
vn -0.0000 1.0000 0.0001
vn -0.6407 -0.0000 0.7678
vn -0.6000 -0.0000 0.8000
vn 0.7067 0.0000 -0.7075
vn 0.6292 0.0000 -0.7772
vn 0.7071 -0.0000 0.7071
vn -0.0000 -1.0000 0.0001
vn 0.0000 -0.0000 1.0000
usemtl Default_OBJ.001
s off
f 1//1 2//1 3//1
f 4//2 5//2 6//2
f 5//3 4//3 7//3
f 8//4 9//4 7//4
f 6//2 5//2 10//2
f 9//4 8//4 11//4
f 4//2 6//2 12//2
f 7//4 9//4 13//4
f 6//2 10//2 14//2
f 10//2 5//2 15//2
f 9//4 11//4 16//4
f 11//5 6//5 16//5
f 7//6 4//6 17//6
f 4//2 12//2 17//2
f 12//7 8//7 17//7
f 13//4 9//4 2//4
f 7//4 13//4 18//4
f 13//8 15//8 18//8
f 6//2 14//2 19//2
f 16//5 6//5 19//5
f 14//9 16//9 19//9
f 8//4 7//4 20//4
f 7//6 17//6 20//6
f 17//7 8//7 20//7
f 15//2 5//2 21//2
f 5//10 18//10 21//10
f 18//8 15//8 21//8
f 10//11 15//11 22//11
f 15//12 13//12 22//12
f 2//13 10//13 22//13
f 6//14 11//14 23//14
f 11//4 8//4 23//4
f 8//15 12//15 23//15
f 14//2 10//2 1//2
f 10//1 2//1 1//1
f 13//4 2//4 24//4
f 22//12 13//12 24//12
f 2//13 22//13 24//13
f 5//3 7//3 25//3
f 18//10 5//10 25//10
f 7//4 18//4 25//4
f 12//2 6//2 26//2
f 6//14 23//14 26//14
f 23//15 12//15 26//15
f 14//16 9//16 27//16
f 9//17 16//17 27//17
f 16//9 14//9 27//9
f 9//16 14//16 28//16
f 14//2 1//2 28//2
f 1//18 9//18 28//18
f 2//4 9//4 3//4
f 9//18 1//18 3//18
o convex_1.001
v -0.001042 -0.080471 0.034787
v -0.000098 0.080471 0.036669
v -0.000098 -0.080471 0.036669
v -0.034922 0.080471 0.012201
v -0.032096 0.080471 0.018790
v -0.017043 -0.080471 0.009377
v -0.000098 -0.080471 0.037612
v -0.020803 -0.080471 0.037612
v -0.017043 0.080471 0.009377
v -0.034922 -0.080471 0.009379
v -0.020803 0.080471 0.037612
v -0.030214 -0.080471 0.022552
v -0.034922 0.080471 0.009379
v -0.000098 0.080471 0.037612
v -0.026451 0.080471 0.029138
v -0.034922 -0.080471 0.012201
v -0.001042 0.080471 0.034787
v -0.026451 -0.080471 0.029138
v -0.032096 -0.080471 0.018790
v -0.030214 0.080471 0.022552
vn 0.8939 0.0000 -0.4484
vn 0.0000 1.0000 -0.0000
vn 0.0000 -1.0000 0.0000
vn -0.0001 0.0000 -1.0000
vn 0.0000 -0.0000 1.0000
vn -1.0000 0.0000 0.0000
vn 0.8462 0.0000 -0.5329
vn 1.0000 0.0000 0.0000
vn -0.8321 -0.0000 0.5546
vn -0.9190 -0.0000 0.3942
vn -0.8683 -0.0000 0.4961
vn -0.8943 -0.0000 0.4474
usemtl Default_OBJ.001
s off
f 29//19 30//19 31//19
f 32//20 33//20 30//20
f 34//21 35//21 36//21
f 32//20 30//20 37//20
f 37//22 34//22 38//22
f 34//21 36//21 38//21
f 30//20 33//20 39//20
f 36//23 35//23 39//23
f 38//21 36//21 40//21
f 32//20 37//20 41//20
f 37//22 38//22 41//22
f 38//24 32//24 41//24
f 35//21 34//21 29//21
f 34//25 37//25 29//25
f 35//26 30//26 42//26
f 30//20 39//20 42//20
f 39//23 35//23 42//23
f 39//20 33//20 43//20
f 36//27 39//27 43//27
f 33//28 32//28 44//28
f 32//24 38//24 44//24
f 38//21 40//21 44//21
f 37//20 30//20 45//20
f 30//19 29//19 45//19
f 29//25 37//25 45//25
f 40//21 36//21 46//21
f 36//27 43//27 46//27
f 43//29 40//29 46//29
f 40//30 33//30 47//30
f 33//28 44//28 47//28
f 44//21 40//21 47//21
f 33//30 40//30 48//30
f 43//20 33//20 48//20
f 40//29 43//29 48//29
f 30//26 35//26 31//26
f 35//21 29//21 31//21
o convex_2.001
v -0.018922 0.080471 -0.064035
v -0.017980 -0.080471 -0.064035
v -0.018922 -0.080471 -0.064035
v -0.017980 -0.080471 0.009377
v -0.040569 -0.080471 -0.012275
v -0.017980 0.080471 0.009377
v -0.038685 0.080471 -0.038618
v -0.017980 0.080471 -0.064035
v -0.035861 0.080471 0.008428
v -0.034919 -0.080471 -0.048032
v -0.034919 -0.080471 0.009377
v -0.040569 0.080471 -0.012275
v -0.032098 0.080471 -0.052732
v -0.040569 -0.080471 -0.029205
v -0.023627 -0.080471 -0.061204
v -0.038685 -0.080471 -0.000986
v -0.040569 0.080471 -0.029205
v -0.023627 0.080471 -0.061211
v -0.038685 -0.080471 -0.038618
v -0.034919 0.080471 0.009377
v -0.032098 -0.080471 -0.052732
v -0.036801 0.080471 -0.044267
v -0.038685 0.080471 -0.000986
v -0.037745 -0.080471 0.002780
v -0.020806 -0.080471 -0.063094
v -0.039627 -0.080471 -0.034853
v -0.036801 -0.080471 -0.044267
v -0.035861 -0.080471 0.008428
v -0.039627 -0.080471 -0.005692
v -0.037745 0.080471 0.002787
v -0.034919 0.080471 -0.048032
v -0.039627 0.080471 -0.034853
v -0.039627 0.080471 -0.005692
v -0.020806 0.080471 -0.063094
vn 0.0000 0.0000 -1.0000
vn 0.0000 -1.0000 -0.0000
vn 1.0000 0.0000 0.0000
vn -0.0000 1.0000 0.0000
vn 0.0000 -0.0000 1.0000
vn -1.0000 0.0000 0.0000
vn -0.7097 -0.0000 0.7045
vn -0.8574 0.0000 -0.5146
vn -0.7074 0.0000 -0.7068
vn -0.7071 -0.0000 -0.7071
vn -0.9486 0.0000 -0.3164
vn -0.5566 -0.0000 -0.8308
vn -0.9864 0.0000 -0.1645
vn -0.9701 0.0000 -0.2427
vn -0.8945 0.0000 -0.4471
vn -0.9899 0.0000 0.1417
vn -0.9805 -0.0000 0.1963
vn -0.9703 -0.0000 0.2417
vn -0.9702 -0.0000 0.2422
vn -0.9485 -0.0000 0.3168
vn -0.9486 -0.0000 0.3164
vn -0.5552 0.0000 -0.8317
vn -0.4468 0.0000 -0.8946
usemtl Default_OBJ.001
s off
f 49//31 50//31 51//31
f 50//32 52//32 53//32
f 52//33 50//33 54//33
f 55//34 54//34 56//34
f 54//33 50//33 56//33
f 54//34 55//34 57//34
f 50//32 53//32 58//32
f 53//32 52//32 59//32
f 52//35 54//35 59//35
f 57//34 55//34 60//34
f 55//34 56//34 61//34
f 58//32 53//32 62//32
f 53//36 60//36 62//36
f 50//32 58//32 63//32
f 53//32 59//32 64//32
f 60//34 55//34 65//34
f 62//36 60//36 65//36
f 61//34 56//34 66//34
f 58//32 62//32 67//32
f 54//34 57//34 68//34
f 59//35 54//35 68//35
f 57//37 59//37 68//37
f 58//38 61//38 69//38
f 63//32 58//32 69//32
f 61//39 66//39 69//39
f 66//40 63//40 69//40
f 55//34 61//34 70//34
f 67//41 55//41 70//41
f 57//34 60//34 71//34
f 64//32 59//32 72//32
f 50//32 63//32 73//32
f 63//42 66//42 73//42
f 56//31 50//31 49//31
f 66//34 56//34 49//34
f 62//43 65//43 74//43
f 55//44 67//44 74//44
f 67//32 62//32 74//32
f 58//32 67//32 75//32
f 70//45 58//45 75//45
f 67//41 70//41 75//41
f 59//37 57//37 76//37
f 72//32 59//32 76//32
f 60//46 53//46 77//46
f 53//32 64//32 77//32
f 64//47 71//47 77//47
f 57//34 71//34 78//34
f 71//48 64//48 78//48
f 64//49 72//49 78//49
f 76//50 57//50 78//50
f 72//51 76//51 78//51
f 61//38 58//38 79//38
f 70//34 61//34 79//34
f 58//45 70//45 79//45
f 65//34 55//34 80//34
f 55//44 74//44 80//44
f 74//43 65//43 80//43
f 71//34 60//34 81//34
f 60//46 77//46 81//46
f 77//47 71//47 81//47
f 73//52 66//52 82//52
f 66//34 49//34 82//34
f 49//53 73//53 82//53
f 50//32 73//32 51//32
f 73//53 49//53 51//53
o convex_3.001
v -0.000099 -0.080471 0.009377
v -0.005742 0.080471 0.008434
v -0.005742 -0.080471 0.008434
v -0.017979 0.080471 0.003728
v -0.014212 0.080471 0.005611
v 0.011196 0.080471 -0.008504
v 0.011196 0.080471 0.008434
v 0.011196 -0.080455 -0.008504
v -0.017979 0.080471 -0.011329
v -0.017979 -0.080471 -0.011329
v -0.017979 -0.080471 0.003728
v 0.006487 -0.080471 0.009377
v 0.011196 -0.080455 0.008434
v -0.009509 -0.080471 0.007494
v -0.000099 0.080471 0.009377
v 0.006487 0.080471 0.009377
v -0.017037 -0.080471 -0.011329
v -0.009509 0.080471 0.007494
v -0.017037 0.080471 -0.011329
v -0.014212 -0.080471 0.005611
vn -0.1648 -0.0000 0.9863
vn 0.0000 1.0000 -0.0000
vn 1.0000 -0.0000 0.0000
vn -1.0000 -0.0000 0.0000
vn -0.4471 -0.0000 0.8945
vn 0.0000 -1.0000 0.0000
vn 0.0034 -1.0000 0.0000
vn 0.1964 -0.0000 0.9805
vn 0.0000 -0.0000 1.0000
vn 0.0006 -1.0000 -0.0007
vn 0.0996 0.0000 -0.9950
vn 0.0000 0.0000 -1.0000
vn -0.3717 -0.0000 0.9284
vn -0.2421 -0.0000 0.9702
usemtl Default_OBJ.001
s off
f 83//54 84//54 85//54
f 86//55 87//55 88//55
f 88//55 87//55 89//55
f 90//56 88//56 89//56
f 86//55 88//55 91//55
f 92//57 86//57 91//57
f 87//58 86//58 93//58
f 92//59 94//59 93//59
f 86//57 92//57 93//57
f 94//60 90//60 95//60
f 89//61 94//61 95//61
f 90//56 89//56 95//56
f 89//55 87//55 84//55
f 93//59 94//59 96//59
f 89//55 84//55 97//55
f 96//59 94//59 83//59
f 97//54 84//54 83//54
f 94//62 97//62 83//62
f 94//61 89//61 98//61
f 97//62 94//62 98//62
f 89//55 97//55 98//55
f 94//59 92//59 99//59
f 90//63 94//63 99//63
f 88//64 90//64 99//64
f 92//65 91//65 99//65
f 84//55 87//55 100//55
f 87//66 96//66 100//66
f 96//67 84//67 100//67
f 91//55 88//55 101//55
f 88//64 99//64 101//64
f 99//65 91//65 101//65
f 87//58 93//58 102//58
f 93//59 96//59 102//59
f 96//66 87//66 102//66
f 84//67 96//67 85//67
f 96//59 83//59 85//59
o convex_4.001
v 0.039430 -0.080471 -0.016974
v 0.040373 0.080471 -0.021680
v 0.039430 0.080471 -0.016974
v 0.040373 -0.080471 -0.030153
v 0.040373 -0.080471 -0.021680
v 0.011196 -0.080471 0.008435
v 0.024374 0.080471 -0.030153
v 0.040373 0.080471 -0.030153
v 0.024374 0.080471 0.003725
v 0.024374 -0.080471 -0.030153
v 0.011196 0.080471 -0.009450
v 0.034724 -0.080471 -0.006624
v 0.038488 0.080471 -0.014152
v 0.011196 -0.080471 -0.009450
v 0.011196 0.080471 0.008435
v 0.024374 -0.080471 0.003725
v 0.031902 0.080471 -0.002862
v 0.018727 -0.080471 0.006551
v 0.027195 -0.080471 0.001844
v 0.013081 0.080471 0.008435
v 0.034724 0.080471 -0.006624
v 0.018727 0.080471 0.006551
v 0.031902 -0.080471 -0.002862
v 0.027195 0.080471 0.001844
v 0.013081 -0.080471 0.008435
v 0.038488 -0.080471 -0.014152
vn 0.9805 -0.0000 0.1965
vn 0.0000 -1.0000 0.0000
vn 0.0000 0.0000 -1.0000
vn 1.0000 -0.0000 0.0000
vn 0.0000 1.0000 0.0000
vn -0.8436 0.0000 -0.5370
vn -1.0000 -0.0000 0.0000
vn 0.4475 -0.0000 0.8943
vn 0.5548 -0.0000 0.8320
vn 0.0000 -0.0000 1.0000
vn 0.8944 -0.0000 0.4472
vn 0.7999 -0.0000 0.6001
vn 0.3165 -0.0000 0.9486
vn 0.7070 -0.0000 0.7072
vn 0.9485 -0.0000 0.3166
usemtl Default_OBJ.001
s off
f 103//68 104//68 105//68
f 106//69 107//69 108//69
f 106//70 109//70 110//70
f 107//71 106//71 110//71
f 109//72 111//72 110//72
f 106//69 108//69 112//69
f 109//70 106//70 112//70
f 109//73 112//73 113//73
f 111//72 109//72 113//72
f 108//69 107//69 114//69
f 110//72 111//72 115//72
f 112//69 108//69 116//69
f 113//73 112//73 116//73
f 108//74 113//74 116//74
f 111//72 113//72 117//72
f 113//74 108//74 117//74
f 108//69 114//69 118//69
f 115//72 111//72 119//72
f 118//75 111//75 120//75
f 108//69 118//69 120//69
f 107//71 110//71 104//71
f 110//72 115//72 104//72
f 114//69 107//69 103//69
f 107//68 104//68 103//68
f 111//76 118//76 121//76
f 118//69 114//69 121//69
f 111//72 117//72 122//72
f 117//77 108//77 122//77
f 114//78 115//78 123//78
f 119//79 114//79 123//79
f 115//72 119//72 123//72
f 120//75 111//75 124//75
f 111//72 122//72 124//72
f 122//80 120//80 124//80
f 114//79 119//79 125//79
f 121//69 114//69 125//69
f 119//81 121//81 125//81
f 119//72 111//72 126//72
f 111//76 121//76 126//76
f 121//81 119//81 126//81
f 108//69 120//69 127//69
f 122//77 108//77 127//77
f 120//80 122//80 127//80
f 115//78 114//78 128//78
f 103//82 115//82 128//82
f 114//69 103//69 128//69
f 104//72 115//72 105//72
f 115//82 103//82 105//82
o convex_5.001
v -0.017037 0.080471 -0.064974
v -0.015156 -0.080471 -0.065915
v -0.017037 -0.080471 -0.064974
v -0.017980 0.080471 -0.044270
v -0.017037 0.080471 -0.044270
v 0.005547 0.080471 -0.068739
v -0.017980 -0.080471 -0.044270
v -0.008568 -0.080471 -0.067798
v 0.009314 -0.080471 -0.051801
v -0.017980 0.080471 -0.064033
v 0.009314 0.080471 -0.051801
v 0.009314 -0.080471 -0.067798
v -0.017980 -0.080471 -0.064033
v 0.009314 0.080471 -0.067798
v -0.012332 0.080471 -0.066857
v -0.001980 -0.080471 -0.068739
v -0.001980 0.080471 -0.068739
v -0.017037 -0.080471 -0.044270
v 0.005547 -0.080471 -0.068739
v -0.008568 0.080471 -0.067798
v -0.015156 0.080471 -0.065915
v -0.012332 -0.080471 -0.066857
vn -0.4474 0.0000 -0.8943
vn 0.0000 1.0000 0.0000
vn 0.0000 -0.0000 1.0000
vn -0.0000 -1.0000 0.0000
vn -1.0000 0.0000 0.0000
vn 0.2748 -0.0000 0.9615
vn 1.0000 0.0000 0.0000
vn 0.2424 0.0000 -0.9702
vn -0.1414 0.0000 -0.9900
vn 0.0000 0.0000 -1.0000
vn 0.0000 -1.0000 -0.0001
vn -0.7064 0.0000 -0.7079
vn -0.2425 0.0000 -0.9701
vn -0.3164 0.0000 -0.9486
usemtl Default_OBJ.001
s off
f 129//83 130//83 131//83
f 132//84 133//84 134//84
f 133//85 132//85 135//85
f 136//86 137//86 135//86
f 132//84 134//84 138//84
f 135//87 132//87 138//87
f 134//84 133//84 139//84
f 133//88 137//88 139//88
f 139//89 137//89 140//89
f 137//86 136//86 140//86
f 136//86 135//86 141//86
f 135//87 138//87 141//87
f 134//84 139//84 142//84
f 139//89 140//89 142//89
f 140//90 134//90 142//90
f 138//84 134//84 143//84
f 140//86 136//86 144//86
f 143//84 134//84 145//84
f 144//91 136//91 145//91
f 134//92 144//92 145//92
f 136//86 141//86 130//86
f 137//88 133//88 146//88
f 133//85 135//85 146//85
f 135//93 137//93 146//93
f 134//90 140//90 147//90
f 140//86 144//86 147//86
f 144//92 134//92 147//92
f 141//94 138//94 129//94
f 138//84 143//84 129//84
f 136//95 143//95 148//95
f 145//91 136//91 148//91
f 143//84 145//84 148//84
f 143//96 130//96 149//96
f 129//84 143//84 149//84
f 130//83 129//83 149//83
f 143//95 136//95 150//95
f 136//86 130//86 150//86
f 130//96 143//96 150//96
f 130//86 141//86 131//86
f 141//94 129//94 131//94
o convex_6.001
v 0.032842 -0.080471 -0.053678
v 0.031903 0.080471 -0.054622
v 0.032842 0.080471 -0.053678
v 0.011199 -0.080471 -0.067800
v 0.014023 -0.080471 -0.066856
v 0.024375 -0.080471 -0.030153
v 0.039430 -0.080471 -0.040512
v 0.034724 0.080471 -0.050856
v 0.009314 0.080471 -0.050859
v 0.040373 0.080471 -0.030153
v 0.011199 0.080471 -0.067800
v 0.024375 0.080471 -0.030153
v 0.009314 -0.080471 -0.050859
v 0.025311 -0.080471 -0.061207
v 0.040373 -0.080471 -0.030153
v 0.022493 0.080471 -0.063090
v 0.009314 -0.080471 -0.067800
v 0.040373 0.080471 -0.036742
v 0.009314 0.080471 -0.067800
v 0.038488 0.080471 -0.043331
v 0.023433 -0.080471 -0.031096
v 0.034724 -0.080471 -0.050856
v 0.016844 -0.080471 -0.065913
v 0.040373 -0.080471 -0.036742
v 0.025311 0.080471 -0.061207
v 0.023433 0.080471 -0.031096
v 0.016844 0.080471 -0.065913
v 0.038488 -0.080471 -0.043331
v 0.022493 -0.080471 -0.063090
v 0.039430 0.080471 -0.040512
vn 0.7090 0.0000 -0.7052
vn 0.0000 -1.0000 -0.0000
vn 0.0000 1.0000 -0.0000
vn 0.3170 0.0000 -0.9484
vn 0.0000 -0.0000 1.0000
vn 0.0000 0.0000 -1.0000
vn -1.0000 0.0000 0.0000
vn 1.0000 0.0000 0.0000
vn 0.7070 -0.0000 -0.7072
vn -0.7075 -0.0000 0.7067
vn -0.8137 -0.0000 0.5813
vn 0.8320 0.0000 -0.5548
vn 0.8944 0.0000 -0.4474
vn 0.9701 0.0000 -0.2427
vn 0.5556 0.0000 -0.8315
vn 0.7067 0.0000 -0.7075
vn 0.4470 0.0000 -0.8945
vn 0.9484 0.0000 -0.3169
usemtl Default_OBJ.001
s off
f 151//97 152//97 153//97
f 154//98 155//98 156//98
f 156//98 155//98 157//98
f 158//99 159//99 160//99
f 155//100 154//100 161//100
f 159//99 158//99 161//99
f 156//101 160//101 162//101
f 160//99 159//99 162//99
f 154//98 156//98 163//98
f 157//98 155//98 164//98
f 156//98 157//98 165//98
f 160//101 156//101 165//101
f 161//99 158//99 166//99
f 161//102 154//102 167//102
f 154//98 163//98 167//98
f 163//103 159//103 167//103
f 157//98 164//98 151//98
f 158//99 160//99 168//99
f 160//104 165//104 168//104
f 159//99 161//99 169//99
f 161//102 167//102 169//102
f 167//103 159//103 169//103
f 166//99 158//99 152//99
f 151//105 164//105 152//105
f 158//99 168//99 170//99
f 156//106 162//106 171//106
f 163//98 156//98 171//98
f 159//107 163//107 171//107
f 151//108 158//108 172//108
f 157//98 151//98 172//98
f 158//109 170//109 172//109
f 164//98 155//98 173//98
f 165//98 157//98 174//98
f 157//110 168//110 174//110
f 168//104 165//104 174//104
f 164//111 166//111 175//111
f 166//99 152//99 175//99
f 152//112 164//112 175//112
f 162//99 159//99 176//99
f 171//106 162//106 176//106
f 159//107 171//107 176//107
f 155//100 161//100 177//100
f 161//99 166//99 177//99
f 173//100 155//100 177//100
f 166//113 173//113 177//113
f 170//114 157//114 178//114
f 157//98 172//98 178//98
f 172//109 170//109 178//109
f 166//111 164//111 179//111
f 164//98 173//98 179//98
f 173//113 166//113 179//113
f 168//110 157//110 180//110
f 157//114 170//114 180//114
f 170//99 168//99 180//99
f 158//108 151//108 153//108
f 152//99 158//99 153//99
