# Blender v2.93.5 OBJ File: ''
# www.blender.org
mtllib hole.mtl
o Cube.001_Cube.036
v -0.037748 -0.050000 0.062526
v -0.016684 -0.050000 0.071726
v -0.037748 0.100000 0.062526
v -0.016684 0.100000 0.071726
v 0.000000 0.100000 0.150000
v -0.075000 0.100000 0.150000
v 0.000000 -0.100000 0.150000
v -0.075000 -0.100000 0.150000
vt 0.781457 0.677105
vt 0.000000 0.000000
vt 0.000000 0.000000
vt 0.833333 0.500000
vt 0.833333 0.000000
vt 0.000000 0.000000
vt 0.000000 0.000000
vt 0.375000 0.937500
vt 0.000000 0.500000
vt 0.625000 0.937500
vt 0.625000 0.875000
vt 1.000000 0.000000
vt 1.000000 0.500000
vt 1.000000 0.000000
vt 0.375000 0.875000
vn 0.0000 1.0000 -0.0000
vn 0.9780 0.0000 -0.2085
vn -0.9200 0.0000 -0.3918
vn 0.0000 0.0000 1.0000
vn 0.6318 -0.4021 -0.6627
vn -0.3357 -0.3797 -0.8621
vn -0.3016 0.5769 -0.7591
vn 0.6095 0.6173 -0.4974
vn 0.6144 -0.6938 0.3757
vn -0.6272 -0.6963 0.3487
vn 0.6402 0.5671 0.5181
usemtl None
s off
f 3/1/1 6/2/1 5/3/1 4/4/1
f 2/5/2 5/3/2 7/6/2
f 1/7/3 8/8/3 6/2/3 3/9/3
f 6/10/4 8/8/4 7/6/4 5/11/4
s 1
f 2/5/5 1/12/6 3/13/7 4/4/8
f 2/14/5 7/15/9 8/8/10 1/7/6
f 2/5/5 4/4/8 5/3/11
o Cube.002_Cube.037
v 0.150000 -0.100000 0.150000
v 0.150000 0.100000 0.150000
v 0.150000 -0.100000 -0.150000
v 0.150000 0.100000 -0.150000
v 0.047185 -0.050000 -0.071100
v -0.016684 -0.050000 0.071726
v 0.047185 0.100000 -0.071100
v -0.016684 0.100000 0.071726
v 0.000000 0.100000 0.150000
v 0.000000 -0.100000 0.150000
vt 0.375000 0.500000
vt 0.625000 0.500000
vt 0.625000 0.750000
vt 0.375000 0.750000
vt 0.000000 0.000000
vt 0.666667 0.000000
vt 0.000000 0.000000
vt 0.666667 0.500000
vt 0.000000 0.000000
vt 0.833333 0.000000
vt 0.710679 0.565750
vt 0.000000 0.000000
vt 0.833333 0.500000
vt 1.000000 0.000000
vt 0.800000 0.000000
vt 0.763903 0.684772
vn 1.0000 0.0000 0.0000
vn -0.5917 -0.7499 -0.2959
vn -0.6088 0.0000 -0.7933
vn 0.0000 -1.0000 0.0000
vn -0.9780 0.0000 0.2085
vn 0.0000 1.0000 0.0000
vn 0.0000 0.0000 1.0000
vn -0.7650 -0.3481 -0.5419
vn -0.9406 -0.2966 -0.1650
vn -0.7612 0.6435 -0.0804
vn -0.5925 0.6558 -0.4678
vn -0.5544 -0.6200 0.5551
vn -0.5083 0.5892 0.6280
usemtl None
s off
f 11/16/12 12/17/12 10/18/12 9/19/12
f 18/20/13 13/21/13 11/22/13
f 15/23/14 12/17/14 11/22/14 13/21/14
f 9/19/15 18/20/15 11/16/15
f 17/24/16 14/25/16 18/20/16
f 15/26/17 10/27/17 12/17/17
f 15/26/17 17/24/17 10/27/17
f 9/19/18 10/18/18 17/24/18 18/20/18
s 1
f 13/21/19 14/25/20 16/28/21 15/23/22
f 18/20/23 14/29/20 13/30/19
f 15/26/22 16/31/21 17/24/24
f 17/24/24 16/31/21 14/25/20
o Cube.003_Cube.038
v -0.150000 -0.100000 -0.150000
v -0.150000 0.100000 -0.150000
v 0.150000 -0.100000 -0.150000
v 0.150000 0.100000 -0.150000
v -0.046100 -0.050000 -0.071100
v 0.047185 -0.050000 -0.071100
v -0.046100 0.100000 -0.071100
v 0.047185 0.100000 -0.071100
vt 0.375000 0.250000
vt 0.625000 0.250000
vt 0.625000 0.500000
vt 0.375000 0.500000
vt 0.710679 0.565750
vt 0.875000 0.500000
vt 0.788417 0.565750
vt 0.500000 0.000000
vt 0.500000 0.500000
vt 0.666667 0.000000
vt 0.000000 0.000000
vt 0.600000 0.000000
vt 0.666667 0.500000
vt 0.800000 0.000000
vn 0.0000 0.0000 -1.0000
vn 0.0000 1.0000 -0.0000
vn -0.6048 0.0000 0.7964
vn 0.6088 0.0000 0.7933
vn 0.0000 -0.8447 0.5353
vn -0.2447 0.6418 0.7267
vn -0.2347 -0.4078 0.8824
vn 0.2368 -0.4074 0.8820
vn 0.2466 0.6414 0.7265
vn 0.7421 -0.6314 -0.2250
usemtl None
s off
f 19/32/25 20/33/25 22/34/25 21/35/25
f 26/36/26 22/34/26 20/37/26 25/38/26
f 20/37/27 19/32/27 23/39/27 25/40/27
f 24/41/28 21/42/28 22/34/28 26/36/28
f 21/42/29 23/43/29 19/32/29
s 1
f 25/40/30 23/39/31 24/41/32 26/44/33
f 21/42/34 24/45/32 23/43/31
o Cube.004_Cube.039
v -0.150000 -0.100000 -0.150000
v -0.150000 0.100000 -0.150000
v -0.046100 -0.050000 -0.048500
v -0.046100 -0.050000 -0.071100
v -0.046100 0.100000 -0.048500
v -0.046100 0.100000 -0.071100
v -0.150000 0.100000 0.000000
v -0.150000 -0.100000 0.000000
vt 0.000000 0.000000
vt 0.000000 0.000000
vt 0.333333 0.000000
vt 0.333333 0.500000
vt 0.500000 0.000000
vt 0.000000 0.000000
vt 0.875000 0.500000
vt 0.788417 0.565750
vt 0.375000 0.250000
vt 0.625000 0.250000
vt 0.400000 0.000000
vt 0.600000 0.000000
vt 0.788417 0.584583
vt 0.500000 0.500000
vn 0.4230 0.0000 0.9061
vn 0.6048 0.0000 -0.7964
vn -1.0000 0.0000 0.0000
vn 0.4336 -0.9011 0.0000
vn 0.0000 1.0000 0.0000
vn 0.6723 0.6038 0.4281
vn 0.7909 -0.4300 0.4353
vn 0.8283 -0.4399 -0.3468
vn 0.7032 0.6194 -0.3490
usemtl None
s off
f 33/46/35 34/47/35 29/48/35 31/49/35
f 30/50/36 27/51/36 28/52/36 32/53/36
f 27/54/37 34/47/37 33/46/37 28/55/37
f 29/56/38 34/47/38 27/51/38 30/57/38
f 28/52/39 33/46/39 31/58/39 32/53/39
s 1
f 31/49/40 29/48/41 30/50/42 32/59/43
o Cube.005_Cube.040
v -0.037748 -0.050000 0.062526
v 0.011817 -0.050000 -0.048500
v -0.046100 -0.050000 -0.048500
v -0.046100 0.100000 -0.048500
v 0.011817 0.100000 -0.048500
v -0.037748 0.100000 0.062526
vt 0.000000 0.500000
vt 0.000000 0.000000
vt 0.166667 0.000000
vt 0.166667 0.500000
vt 0.333333 0.000000
vt 0.333333 0.500000
vt 0.000000 0.000000
vt 0.740153 0.584583
vt 0.788417 0.584583
vt 0.400000 0.000000
vt 0.200000 0.000000
vn -0.1443 0.5409 0.8286
vn -0.1443 -0.5409 0.8286
vn 0.6959 -0.5584 -0.4514
vn 0.6959 0.5584 -0.4514
vn -0.6006 -0.5735 -0.5571
vn -0.6006 0.5735 -0.5571
usemtl None
s 1
f 40/60/44 35/61/45 36/62/46 39/63/47
f 36/62/46 37/64/48 38/65/49 39/63/47
f 37/64/48 35/61/45 40/66/44 38/65/49
f 39/67/47 38/68/49 40/66/44
f 37/69/48 36/70/46 35/61/45
o Cube.006_Cube.041
v -0.150000 -0.100000 0.150000
v -0.150000 0.100000 0.150000
v -0.037748 -0.050000 0.062526
v -0.046100 -0.050000 -0.048500
v -0.046100 0.100000 -0.048500
v -0.037748 0.100000 0.062526
v -0.075000 0.100000 0.150000
v -0.150000 0.100000 0.000000
v -0.150000 -0.100000 0.000000
v -0.075000 -0.100000 0.150000
vt 0.000000 0.000000
vt 0.000000 0.000000
vt 0.000000 0.000000
vt 0.000000 0.000000
vt 0.000000 0.000000
vt 0.375000 1.000000
vt 0.000000 0.000000
vt 0.000000 0.000000
vt 0.625000 1.000000
vt 0.375000 0.000000
vt 0.000000 0.000000
vt 0.625000 0.937500
vt 0.000000 0.000000
vt 0.375000 0.937500
vn 0.9972 0.0000 -0.0750
vn -1.0000 0.0000 0.0000
vn 0.0000 0.0000 1.0000
vn -0.4230 0.0000 -0.9061
vn 0.0000 1.0000 0.0000
vn 0.7508 -0.6582 -0.0565
vn 0.9200 0.0000 0.3918
vn 0.2373 -0.9642 -0.1187
usemtl None
s off
f 43/71/50 44/72/50 45/73/50 46/74/50
f 49/75/51 41/76/51 42/77/51 48/78/51
f 42/79/52 41/80/52 50/81/52 47/82/52
f 44/72/53 49/75/53 48/78/53 45/73/53
f 47/83/54 46/74/54 45/73/54
f 44/72/55 43/71/55 50/84/55
f 47/83/56 50/81/56 43/71/56 46/74/56
f 44/72/57 50/84/57 41/76/57 49/75/57
f 48/78/54 42/77/54 47/83/54 45/73/54
o Cube.008_Cube.043
v -0.150000 -0.100000 0.150000
v -0.150000 -0.100000 -0.150000
v 0.150000 -0.100000 -0.150000
v -0.046100 -0.050000 -0.071100
v 0.047185 -0.050000 -0.071100
v -0.016684 -0.050000 0.071726
v 0.000000 -0.100000 0.150000
vt 0.000000 0.000000
vt 0.600000 0.000000
vt 0.000000 0.000000
vt 1.000000 0.000000
vt 0.800000 0.000000
vt 0.375000 0.500000
vt 0.000000 0.000000
vt 0.000000 0.000000
vn -0.4336 0.9011 0.0000
vn 0.0000 1.0000 0.0000
vn -0.3166 0.9463 0.0652
vn 0.0000 0.8447 -0.5353
vn 0.5750 0.7767 0.2571
vn 0.6329 0.7066 0.3165
vn 0.0000 0.8427 0.5383
vn 0.0000 -1.0000 0.0000
usemtl None
s off
f 51/85/58 54/86/58 52/87/58
f 54/86/59 56/88/59 55/89/59
f 51/85/60 56/88/60 54/86/60
f 52/87/61 55/89/61 53/90/61
f 52/87/61 54/86/61 55/89/61
f 55/91/62 56/88/62 53/90/62
f 56/88/63 57/92/63 53/90/63
f 51/85/64 57/92/64 56/88/64
f 52/87/65 53/90/65 57/92/65 51/85/65
