# Blender v2.93.5 OBJ File: ''
# www.blender.org
mtllib peg.mtl
o convex_0.004
v 0.038089 -0.080440 0.052837
v 0.041609 0.080440 0.060746
v 0.041609 -0.080440 0.060746
v -0.044540 0.080440 0.069540
v 0.044252 0.080440 0.069540
v 0.014353 0.080440 0.049320
v -0.044540 -0.080440 0.069540
v -0.044540 -0.080440 0.050201
v 0.044252 -0.080440 0.069540
v -0.044540 0.080440 0.050201
v 0.036334 0.080440 0.049320
v 0.036334 -0.080440 0.049320
v 0.044252 0.080440 0.066899
v 0.014353 -0.080440 0.049320
v 0.044252 -0.080440 0.066899
v 0.038089 0.080440 0.052837
vn 0.9136 -0.0000 -0.4066
vn 0.0000 1.0000 0.0000
vn 0.0000 0.0000 1.0000
vn -1.0000 0.0000 0.0000
vn 0.0000 -1.0000 0.0000
vn -0.0150 -0.0000 -0.9999
vn 0.8948 0.0000 -0.4465
vn 0.0000 -0.0000 -1.0000
vn 1.0000 0.0000 0.0000
vn 0.9188 0.0000 -0.3947
vn 0.0000 -1.0000 0.0001
usemtl Default_OBJ.004
s off
f 1//1 2//1 3//1
f 4//2 5//2 6//2
f 5//3 4//3 7//3
f 7//4 4//4 8//4
f 1//5 7//5 8//5
f 7//5 1//5 9//5
f 5//3 7//3 9//3
f 4//2 6//2 10//2
f 8//4 4//4 10//4
f 6//6 8//6 10//6
f 6//2 5//2 11//2
f 1//5 8//5 12//5
f 11//7 1//7 12//7
f 6//8 11//8 12//8
f 5//9 9//9 13//9
f 11//2 5//2 13//2
f 8//6 6//6 14//6
f 6//8 12//8 14//8
f 12//5 8//5 14//5
f 9//5 1//5 15//5
f 13//9 9//9 15//9
f 13//10 15//10 2//10
f 11//2 13//2 2//2
f 11//2 2//2 16//2
f 1//7 11//7 16//7
f 2//1 1//1 16//1
f 15//11 1//11 3//11
f 2//10 15//10 3//10
o convex_1.005
v -0.019918 -0.080440 -0.069362
v -0.035747 -0.080440 -0.062322
v -0.033984 -0.080440 -0.063204
v -0.017283 -0.080440 -0.069362
v -0.016405 -0.080440 -0.068479
v 0.013476 -0.080440 0.049320
v -0.016405 0.080440 -0.068479
v -0.035747 0.080440 -0.060567
v 0.035460 0.080440 0.049320
v 0.035460 -0.080440 0.047554
v -0.035747 -0.080440 -0.060567
v 0.013476 0.080440 0.049320
v 0.033697 0.080440 0.043163
v 0.009963 -0.080440 0.042280
v -0.033984 0.080440 -0.063204
v -0.006730 -0.080440 -0.047370
v -0.033984 0.080440 -0.056164
v 0.035460 -0.080440 0.049320
v 0.009963 0.080440 0.042280
v -0.019918 0.080440 -0.069362
v -0.014649 0.080440 -0.064959
v -0.033984 -0.080440 -0.056164
v 0.023151 -0.080440 0.019429
v 0.023151 0.080440 0.019429
v 0.033697 -0.080440 0.043163
v 0.035460 0.080440 0.047554
v -0.035747 0.080440 -0.062322
v -0.014649 -0.080440 -0.064959
v -0.006730 0.054062 -0.047370
v -0.017283 0.080440 -0.069362
vn 0.0000 -1.0000 -0.0000
vn 0.7091 0.0000 -0.7051
vn 0.0000 1.0000 -0.0000
vn 0.0000 0.0000 1.0000
vn -0.8948 0.0000 0.4465
vn -0.9283 0.0000 0.3717
vn 1.0000 -0.0000 0.0000
vn -0.9131 0.0000 0.4076
vn 0.0000 0.0000 -1.0000
vn -0.4010 0.0000 -0.9161
vn -1.0000 0.0000 0.0000
vn 0.8948 0.0000 -0.4464
vn 0.9138 -0.0000 -0.4061
vn 0.9128 -0.0000 -0.4083
vn 0.9280 -0.0000 -0.3726
vn -0.4474 -0.0000 -0.8943
vn 0.9118 0.0000 -0.4105
vn 0.9126 0.0014 -0.4088
usemtl Default_OBJ.004
s off
f 17//12 18//12 19//12
f 20//12 21//12 22//12
f 21//13 20//13 23//13
f 24//14 25//14 23//14
f 22//12 21//12 26//12
f 20//12 22//12 27//12
f 22//15 25//15 28//15
f 25//14 24//14 28//14
f 23//14 25//14 29//14
f 27//12 22//12 30//12
f 22//16 28//16 30//16
f 24//14 23//14 31//14
f 26//12 21//12 32//12
f 24//17 27//17 33//17
f 28//14 24//14 33//14
f 25//15 22//15 34//15
f 22//12 26//12 34//12
f 26//18 25//18 34//18
f 20//12 27//12 17//12
f 30//16 28//16 35//16
f 28//14 33//14 35//14
f 33//19 30//19 35//19
f 31//14 23//14 36//14
f 20//20 17//20 36//20
f 17//21 31//21 36//21
f 27//22 24//22 18//22
f 17//12 27//12 18//12
f 21//23 23//23 37//23
f 23//14 29//14 37//14
f 27//12 30//12 38//12
f 33//17 27//17 38//17
f 30//19 33//19 38//19
f 26//12 32//12 39//12
f 37//14 29//14 40//14
f 29//24 39//24 40//24
f 39//25 32//25 40//25
f 29//26 26//26 41//26
f 26//12 39//12 41//12
f 39//24 29//24 41//24
f 25//18 26//18 42//18
f 29//14 25//14 42//14
f 26//26 29//26 42//26
f 24//14 31//14 43//14
f 18//22 24//22 43//22
f 31//27 18//27 43//27
f 32//12 21//12 44//12
f 21//23 37//23 44//23
f 37//28 32//28 44//28
f 32//28 37//28 45//28
f 37//29 40//29 45//29
f 40//25 32//25 45//25
f 23//13 20//13 46//13
f 20//20 36//20 46//20
f 36//14 23//14 46//14
f 31//21 17//21 19//21
f 18//27 31//27 19//27
