# Blender v2.93.5 OBJ File: ''
# www.blender.org
mtllib hole.mtl
o Cube.001_Cube.021
v -0.040800 -0.050000 0.036830
v -0.002039 -0.050000 0.047662
v 0.016958 -0.050000 0.028886
v 0.009060 -0.050000 0.008834
v -0.014591 -0.050000 0.001972
v -0.030600 -0.050000 0.004315
v -0.040800 0.100000 0.036830
v -0.030600 0.100000 0.004315
v -0.014591 0.100000 0.001972
v 0.016958 0.100000 0.028886
v 0.009060 0.100000 0.008834
v -0.002039 0.100000 0.047662
vt 0.000000 0.000000
vt 0.000000 0.000000
vt 0.000000 0.000000
vt 0.000000 0.000000
vt 0.000000 0.000000
vt 0.000000 0.000000
vt 0.487179 0.000000
vt 0.000000 0.000000
vt 0.782051 0.500000
vt 0.000000 0.000000
vt 0.000000 0.000000
vt 0.000000 0.000000
vt 0.858974 0.500000
vt 0.858974 0.000000
vt 0.923077 0.500000
vt 0.487179 0.500000
vt 0.948718 0.500000
vt 0.948718 0.000000
vt 0.666667 0.500000
vt 0.666667 0.000000
vn 0.0000 1.0000 0.0000
vn 0.0000 -1.0000 -0.0000
vn 0.5284 0.6200 -0.5799
vn 0.7815 0.6016 0.1649
vn 0.7815 -0.6016 0.1650
vn 0.5284 -0.6200 -0.5799
vn 0.0513 0.6623 -0.7475
vn 0.0513 -0.6623 -0.7475
vn -0.7186 -0.5757 0.3899
vn -0.7186 0.5757 0.3899
vn -0.5167 0.6047 -0.6060
vn -0.5167 -0.6047 -0.6060
vn 0.1988 -0.6096 0.7673
vn 0.1988 0.6096 0.7673
usemtl None
s off
f 11/1/1 9/2/1 8/3/1
f 6/4/2 5/5/2 2/6/2 1/7/2
f 11/1/1 12/8/1 10/9/1
f 7/10/1 12/8/1 11/1/1 8/3/1
f 4/11/2 3/12/2 2/6/2 5/5/2
s 1
f 11/13/3 10/9/4 3/12/5 4/14/6
f 9/15/7 11/1/3 4/11/6 5/5/8
f 1/7/9 7/16/10 8/17/11 6/18/12
f 8/17/11 9/2/7 5/5/8 6/4/12
f 2/6/13 12/19/14 7/16/10 1/7/9
f 3/12/5 10/9/4 12/19/14 2/20/13
o Cube.002_Cube.022
v -0.150000 -0.100000 0.150000
v -0.150000 0.100000 0.150000
v 0.000740 -0.050000 0.070712
v -0.040800 -0.050000 0.061946
v 0.000740 0.100000 0.070712
v -0.040800 0.100000 0.061946
v -0.037500 0.100000 0.150000
v -0.037500 -0.100000 0.150000
vt 0.000000 0.000000
vt 0.000000 0.000000
vt 0.000000 0.000000
vt 0.625000 0.000000
vt 0.375000 0.000000
vt 0.784000 0.676622
vt 0.875000 0.750000
vt 0.307692 0.500000
vt 0.000000 0.000000
vt 0.474359 0.000000
vt 0.474359 0.500000
vn 0.9007 0.0000 0.4344
vn 0.0000 0.0000 1.0000
vn 0.0000 1.0000 0.0000
vn -0.6277 0.0000 -0.7784
vn 0.1043 -0.8632 -0.4940
vn 0.0000 -0.8696 -0.4938
vn 0.4235 0.6047 0.6745
vn 0.8009 -0.4011 -0.4447
vn 0.7401 0.5657 -0.3636
vn -0.1825 0.6221 -0.7613
vn -0.1597 -0.4163 -0.8951
usemtl None
s off
f 19/21/15 20/22/15 15/23/15
f 20/22/16 19/21/16 14/24/16 13/25/16
f 18/26/17 14/27/17 19/21/17
f 18/26/17 19/21/17 17/28/17
f 14/24/18 18/26/18 16/29/18 13/25/18
f 20/22/19 16/30/19 15/23/19
f 13/25/20 16/29/20 20/22/20
s 1
f 19/21/21 15/23/22 17/28/23
f 18/31/24 17/28/23 15/23/22 16/30/25
o Cube.003_Cube.023
v 0.027577 -0.050000 0.058183
v 0.000740 -0.050000 0.070712
v 0.027577 0.100000 0.058183
v 0.000740 0.100000 0.070712
v 0.075000 0.100000 0.150000
v -0.037500 0.100000 0.150000
v 0.075000 -0.100000 0.150000
v -0.037500 -0.100000 0.150000
vt 0.243590 0.500000
vt 0.000000 0.000000
vt 0.000000 0.000000
vt 0.243590 0.000000
vt 0.000000 0.000000
vt 0.000000 0.000000
vt 0.307692 0.000000
vt 0.307692 0.500000
vt 0.000000 0.000000
vt 0.000000 0.000000
vt 0.000000 0.000000
vn 0.8885 0.0000 -0.4589
vn 0.0000 0.0000 1.0000
vn -0.0452 -0.8635 -0.5023
vn -0.9007 0.0000 -0.4344
vn 0.0000 1.0000 0.0000
vn -0.5406 0.6388 -0.5474
vn -0.5502 -0.4143 -0.7250
vn -0.6586 -0.6710 0.3404
vn 0.2630 0.5795 -0.7714
vn 0.2935 -0.3845 -0.8752
usemtl None
s off
f 23/32/26 25/33/26 27/34/26 21/35/26
f 27/34/27 25/33/27 26/36/27 28/37/27
f 28/37/28 22/38/28 21/35/28 27/34/28
f 24/39/29 28/37/29 26/36/29
f 23/40/30 26/36/30 25/33/30
f 23/40/30 24/41/30 26/36/30
s 1
f 24/39/31 22/38/32 28/37/33
f 24/39/31 23/40/34 21/42/35 22/38/32
o Cube.004_Cube.024
v 0.150000 -0.100000 0.150000
v 0.150000 0.100000 0.150000
v 0.040403 -0.050000 0.031905
v 0.027577 -0.050000 0.058183
v 0.027577 0.100000 0.058183
v 0.040403 0.100000 0.031905
v 0.075000 0.100000 0.150000
v 0.150000 0.100000 0.075000
v 0.075000 -0.100000 0.150000
v 0.150000 -0.100000 0.075000
vt 0.000000 0.000000
vt 0.000000 0.000000
vt 0.625000 0.750000
vt 0.375000 0.750000
vt 0.179487 0.500000
vt 0.179487 0.000000
vt 0.243590 0.000000
vt 0.000000 0.000000
vt 0.000000 0.000000
vt 0.000000 0.000000
vt 0.000000 0.000000
vt 0.000000 0.000000
vt 0.243590 0.500000
vt 0.000000 0.000000
vt 0.000000 0.000000
vn 1.0000 0.0000 0.0000
vn 0.3659 0.0000 -0.9306
vn -0.3286 -0.9004 -0.2850
vn 0.0000 1.0000 0.0000
vn 0.0000 -1.0000 0.0000
vn -0.8885 0.0000 0.4589
vn 0.0000 0.0000 1.0000
vn -0.7856 0.6186 0.0089
vn -0.2949 0.5816 -0.7581
vn -0.3457 -0.4160 -0.8411
vn -0.8939 -0.4401 -0.0847
usemtl None
s off
f 38/43/36 36/44/36 30/45/36 29/46/36
f 34/47/37 36/44/37 38/43/37 31/48/37
f 32/49/38 31/48/38 38/43/38 37/50/38
f 34/51/39 33/52/39 35/53/39
f 29/54/40 37/50/40 38/43/40
f 37/50/41 35/53/41 33/55/41 32/49/41
f 30/56/39 36/44/39 34/51/39 35/53/39
f 29/54/42 30/45/42 35/53/42 37/50/42
s 1
f 33/55/43 34/51/44 31/57/45 32/49/46
o Cube.005_Cube.025
v 0.031052 -0.050000 -0.003136
v 0.040403 -0.050000 0.031905
v 0.040403 0.100000 0.031905
v 0.031052 0.100000 -0.003136
v 0.150000 0.100000 0.000000
v 0.150000 0.100000 0.075000
v 0.150000 -0.100000 0.000000
v 0.150000 -0.100000 0.075000
vt 0.000000 0.000000
vt 0.000000 0.000000
vt 0.000000 0.000000
vt 0.000000 0.000000
vt 0.000000 0.000000
vt 0.000000 0.000000
vt 0.179487 0.000000
vt 0.102564 0.000000
vt 0.179487 0.500000
vt 0.102564 0.500000
vt 0.000000 0.000000
vn 0.0000 1.0000 -0.0000
vn 1.0000 0.0000 0.0000
vn -0.4065 -0.9130 0.0345
vn -0.3659 0.0000 0.9306
vn 0.0264 0.0000 -0.9997
vn -0.5864 0.6183 0.5232
vn -0.6483 0.5637 -0.5117
vn -0.7190 -0.4295 -0.5464
vn -0.7161 -0.4513 0.5325
usemtl None
s off
f 44/58/47 43/59/47 42/60/47 41/61/47
f 45/62/48 43/59/48 44/58/48 46/63/48
f 40/64/49 39/65/49 45/62/49 46/63/49
f 46/63/50 44/58/50 41/66/50 40/64/50
f 42/67/51 43/59/51 45/62/51 39/65/51
s 1
f 41/66/52 42/60/53 39/68/54 40/64/55
o Cube.006_Cube.026
v 0.016619 -0.050000 -0.014410
v 0.031052 -0.050000 -0.003136
v 0.034000 -0.050000 -0.049500
v 0.034000 0.100000 -0.049500
v 0.016619 0.100000 -0.014410
v 0.031052 0.100000 -0.003136
vt 0.064103 0.000000
vt 0.987179 0.000000
vt 0.102564 0.000000
vt 0.000000 0.000000
vt 0.064103 0.500000
vt 0.000000 0.000000
vt 0.987179 0.500000
vn 0.0000 -1.0000 -0.0000
vn 0.0000 1.0000 -0.0000
vn -0.7881 -0.5888 0.1794
vn 0.3415 -0.5522 0.7605
vn 0.3415 0.5522 0.7605
vn -0.7881 0.5888 0.1794
vn 0.2178 0.5395 -0.8133
vn 0.2178 -0.5395 -0.8133
usemtl None
s off
f 47/69/56 49/70/56 48/71/56
f 50/72/57 51/73/57 52/74/57
s 1
f 47/69/58 48/71/59 52/74/60 51/73/61
f 50/72/62 49/70/63 47/69/58 51/73/61
f 52/74/60 48/71/59 49/70/63 50/75/62
o Cube.007_Cube.027
v -0.008800 -0.050000 -0.044268
v -0.008800 -0.050000 -0.019305
v 0.016619 -0.050000 -0.014410
v 0.034000 -0.050000 -0.049500
v -0.008800 0.100000 -0.019305
v -0.008800 0.100000 -0.044268
v 0.034000 0.100000 -0.049500
v 0.016619 0.100000 -0.014410
vt 0.002227 0.000000
vt 0.012821 0.000000
vt 0.012821 0.500000
vt 0.002221 0.500000
vt 0.987179 0.000000
vt 1.000000 0.000000
vt 1.000000 0.500000
vt 0.987179 0.500000
vt 0.000000 0.000000
vt 0.757333 0.588110
vt 0.757333 0.608913
vt 0.000000 0.000000
vt 0.064103 0.500000
vt 0.064103 0.000000
vt 1.000000 0.000000
vt 0.000000 0.000000
vn -0.6078 -0.5840 -0.5380
vn -0.6237 -0.5880 0.5150
vn -0.6237 0.5880 0.5150
vn -0.6078 0.5840 -0.5380
vn 0.6800 -0.5528 -0.4816
vn 0.6800 0.5528 -0.4816
vn 0.3577 0.5929 0.7215
vn 0.3577 -0.5929 0.7215
usemtl None
s 1
f 53/76/64 54/77/65 57/78/66 58/79/67
f 56/80/68 53/81/64 58/82/67 59/83/69
f 60/84/70 59/83/69 58/85/67 57/86/66
f 56/87/68 59/83/69 60/88/70 55/89/71
f 53/76/64 56/90/68 55/91/71 54/77/65
f 55/91/71 60/88/70 57/78/66 54/77/65
o Cube.008_Cube.028
v 0.031052 -0.050000 -0.003136
v 0.034000 -0.050000 -0.049500
v 0.034000 0.100000 -0.049500
v 0.031052 0.100000 -0.003136
v 0.150000 0.100000 0.000000
v 0.150000 0.100000 -0.037500
v 0.150000 -0.100000 0.000000
v 0.150000 -0.100000 -0.037500
vt 0.102564 0.000000
vt 0.987179 0.000000
vt 0.375000 0.593750
vt 0.000000 0.000000
vt 0.987179 0.500000
vt 0.625000 0.593750
vt 0.000000 0.000000
vt 0.000000 0.000000
vt 0.102564 0.500000
vt 0.000000 0.000000
vt 0.000000 0.000000
vt 0.375000 0.625000
vn -0.3908 -0.9204 -0.0137
vn 0.1029 0.0000 -0.9947
vn -0.0264 0.0000 0.9997
vn 0.0000 1.0000 0.0000
vn 1.0000 0.0000 0.0000
vn -0.6037 0.5754 0.5517
vn -0.5282 0.5753 -0.6245
vn -0.6148 -0.4421 -0.6531
vn -0.6904 -0.4398 0.5744
usemtl None
s off
f 61/92/72 62/93/72 68/94/72 67/95/72
f 63/96/73 66/97/73 68/98/73 62/93/73
f 67/95/74 65/99/74 64/100/74 61/92/74
f 65/99/75 66/97/75 63/101/75 64/102/75
f 68/94/76 66/97/76 65/99/76 67/103/76
s 1
f 64/100/77 63/101/78 62/93/79 61/92/80
o Cube.009_Cube.029
v 0.150000 -0.100000 -0.150000
v 0.150000 0.100000 -0.150000
v 0.034000 -0.050000 -0.071100
v 0.034000 -0.050000 -0.049500
v 0.034000 0.100000 -0.071100
v 0.034000 0.100000 -0.049500
v 0.150000 0.100000 -0.037500
v 0.150000 -0.100000 -0.037500
vt 0.974359 0.500000
vt 0.625000 0.500000
vt 0.000000 0.000000
vt 0.974359 0.000000
vt 0.000000 0.000000
vt 0.000000 0.000000
vt 0.987179 0.500000
vt 0.987179 0.000000
vt 0.987013 0.000000
vt 0.721667 0.565750
vt 0.721667 0.583750
vn -0.5624 0.0000 -0.8269
vn -0.1029 0.0000 0.9947
vn -0.3958 -0.9183 0.0000
vn 0.0000 1.0000 0.0000
vn 1.0000 0.0000 0.0000
vn -0.8112 -0.4545 -0.3677
vn -0.6989 -0.4393 0.5644
vn -0.6034 0.5830 0.5441
vn -0.6966 0.6154 -0.3687
usemtl None
s off
f 73/104/81 70/105/81 69/106/81 71/107/81
f 76/108/82 75/109/82 74/110/82 72/111/82
f 71/112/83 69/106/83 76/108/83 72/111/83
f 75/109/84 70/105/84 73/113/84 74/114/84
f 69/106/85 70/105/85 75/109/85 76/108/85
s 1
f 71/107/86 72/111/87 74/110/88 73/104/89
o Cube.010_Cube.030
v -0.150000 -0.100000 -0.150000
v -0.150000 0.100000 -0.150000
v 0.150000 -0.100000 -0.150000
v 0.150000 0.100000 -0.150000
v -0.030600 -0.050000 -0.071100
v 0.034000 -0.050000 -0.071100
v -0.030600 0.100000 -0.071100
v 0.034000 0.100000 -0.071100
vt 0.974359 0.000000
vt 0.000000 0.000000
vt 0.625000 0.500000
vt 0.721667 0.565750
vt 0.974026 0.000000
vt 0.375000 0.250000
vt 0.375000 0.500000
vt 0.000000 0.000000
vt 0.775500 0.565750
vt 0.961538 0.000000
vt 0.961538 0.500000
vt 0.974359 0.500000
vt 0.987013 0.000000
vn 0.5624 0.0000 0.8269
vn 0.0000 -0.8447 0.5353
vn 0.0000 0.0000 -1.0000
vn 0.0000 1.0000 0.0000
vn -0.5513 0.0000 0.8343
vn -0.2193 0.6477 0.7296
vn -0.2076 -0.4134 0.8865
vn 0.2131 -0.4122 0.8858
vn 0.2245 0.6465 0.7291
vn 0.8027 0.5427 -0.2471
vn 0.7528 -0.6240 -0.2094
usemtl None
s off
f 82/115/90 79/116/90 80/117/90 84/118/90
f 79/116/91 81/119/91 77/120/91
f 79/121/92 77/120/92 78/122/92 80/117/92
f 83/123/93 80/117/93 78/122/93
f 78/122/94 77/120/94 81/124/94 83/125/94
s 1
f 83/125/95 81/124/96 82/115/97 84/126/98
f 83/123/95 84/118/98 80/117/99
f 79/116/100 82/127/97 81/119/96
o Cube.011_Cube.031
v -0.150000 -0.100000 -0.150000
v -0.150000 0.100000 -0.150000
v -0.030600 -0.050000 0.004315
v -0.030600 -0.050000 -0.071100
v -0.030600 0.100000 0.004315
v -0.030600 0.100000 -0.071100
v -0.150000 0.100000 -0.037500
v -0.150000 -0.100000 -0.037500
vt 0.375000 0.250000
vt 0.000000 0.000000
vt 0.000000 0.000000
vt 0.625000 0.250000
vt 0.948718 0.500000
vt 0.948718 0.000000
vt 0.961538 0.000000
vt 0.961538 0.500000
vt 0.000000 0.000000
vt 0.000000 0.000000
vt 0.000000 0.000000
vt 0.961039 0.000000
vt 0.000000 0.000000
vn -1.0000 0.0000 0.0000
vn 0.4787 0.5617 0.6748
vn 0.5451 -0.4477 0.7088
vn 0.8068 -0.4582 -0.3731
vn 0.6948 0.6144 -0.3737
vn -0.5132 -0.7200 0.4672
vn -0.6542 0.5972 0.4641
vn -0.3947 0.5527 -0.7339
vn -0.3338 -0.6369 -0.6949
usemtl None
s off
f 85/128/101 92/129/101 91/130/101 86/131/101
s 1
f 89/132/102 87/133/103 88/134/104 90/135/105
f 92/129/106 87/133/103 89/136/102 91/130/107
f 91/130/107 89/136/102 90/137/105 86/131/108
f 90/137/105 88/134/104 85/128/109 86/131/108
f 88/138/104 87/139/103 92/129/106 85/140/109
o Cube.012_Cube.032
v -0.040800 -0.050000 0.036830
v -0.030600 -0.050000 0.004315
v -0.040800 0.100000 0.036830
v -0.030600 0.100000 0.004315
v -0.150000 0.100000 0.000000
v -0.150000 0.100000 -0.037500
v -0.150000 -0.100000 0.000000
v -0.150000 -0.100000 -0.037500
vt 0.375000 0.125000
vt 0.375000 0.156250
vt 0.000000 0.000000
vt 0.000000 0.000000
vt 0.000000 0.000000
vt 0.625000 0.156250
vt 0.000000 0.000000
vt 0.948718 0.500000
vt 0.625000 0.125000
vt 0.487179 0.500000
vt 0.487179 0.000000
vt 0.000000 0.000000
vt 0.000000 0.000000
vt 0.000000 0.000000
vn 0.3839 -0.9217 0.0559
vn -1.0000 0.0000 0.0000
vn 0.0000 1.0000 0.0000
vn 0.8161 -0.4368 -0.3783
vn 0.7287 0.5791 -0.3656
vn 0.3707 0.5762 0.7284
vn 0.4599 -0.4498 0.7656
vn -0.4787 0.5617 -0.6748
vn -0.4039 -0.6761 -0.6161
vn -0.6520 0.5964 0.4682
vn -0.5034 -0.7079 0.4954
usemtl None
s off
f 99/141/110 100/142/110 94/143/110 93/144/110
f 97/145/111 98/146/111 100/142/111 99/141/111
f 95/147/112 96/148/112 98/146/112 97/149/112
s 1
f 94/143/113 96/148/114 95/150/115 93/151/116
f 98/152/117 96/148/114 94/143/113 100/153/118
f 93/144/116 95/150/115 97/145/119 99/154/120
o Cube.013_Cube.033
v -0.150000 -0.100000 0.150000
v -0.150000 0.100000 0.150000
v -0.040800 -0.050000 0.061946
v -0.040800 -0.050000 0.036830
v -0.040800 0.100000 0.036830
v -0.040800 0.100000 0.061946
v -0.150000 0.100000 0.000000
v -0.150000 -0.100000 0.000000
vt 0.000000 0.000000
vt 0.000000 0.000000
vt 0.000000 0.000000
vt 0.000000 0.000000
vt 0.480519 0.000000
vt 0.493506 0.000000
vt 0.875000 0.750000
vt 0.375000 0.000000
vt 0.474359 0.000000
vt 0.474359 0.500000
vt 0.487179 0.000000
vt 0.487179 0.500000
vt 0.784000 0.676622
vt 0.784000 0.655691
vn -1.0000 0.0000 0.0000
vn 0.4163 -0.9092 0.0000
vn 0.6277 0.0000 0.7784
vn 0.3196 0.0000 -0.9476
vn 0.0000 1.0000 0.0000
vn 0.7066 0.6217 0.3379
vn 0.8282 -0.4498 0.3343
vn 0.7623 -0.4343 -0.4798
vn 0.6520 0.5964 -0.4682
usemtl None
s off
f 108/155/121 101/156/121 102/157/121 107/158/121
f 103/159/122 101/156/122 108/155/122 104/160/122
f 102/161/123 101/162/123 103/163/123 106/164/123
f 104/165/124 108/155/124 107/158/124 105/166/124
f 107/158/125 102/157/125 106/167/125 105/168/125
s 1
f 106/164/126 103/163/127 104/165/128 105/166/129
o Cube.014_Cube.034
v -0.150000 -0.100000 0.150000
v -0.150000 -0.100000 -0.150000
v 0.150000 -0.100000 0.150000
v 0.150000 -0.100000 -0.150000
v 0.040403 -0.050000 0.031905
v 0.027577 -0.050000 0.058183
v 0.000740 -0.050000 0.070712
v -0.040800 -0.050000 0.061946
v -0.030600 -0.050000 -0.071100
v 0.034000 -0.050000 -0.071100
vt 0.000000 0.000000
vt 0.000000 0.000000
vt 0.000000 0.000000
vt 0.000000 0.000000
vt 0.000000 0.000000
vt 0.000000 0.000000
vt 0.000000 0.000000
vt 0.000000 0.000000
vt 0.974026 0.000000
vt 0.987013 0.000000
vt 0.000000 0.000000
vt 0.000000 0.000000
vn 0.3821 0.9238 -0.0237
vn 0.4151 0.9098 0.0000
vn -0.4011 0.9160 -0.0094
vn 0.0000 0.8447 -0.5353
vn 0.0000 1.0000 -0.0000
vn 0.2837 0.9489 0.1385
vn 0.1469 0.9377 0.3147
vn 0.0000 0.8459 0.5334
vn -0.0863 0.9085 0.4089
vn 0.0000 -1.0000 0.0000
usemtl None
s off
f 118/169/130 113/170/130 112/171/130
f 113/170/131 111/172/131 112/171/131
f 116/173/132 117/174/132 110/175/132 109/176/132
f 110/175/133 117/177/133 118/178/133
f 110/175/133 118/178/133 112/171/133
f 117/174/134 116/173/134 115/179/134
f 117/174/134 115/179/134 114/180/134
f 117/174/134 114/180/134 113/170/134
f 117/174/134 113/170/134 118/169/134
f 114/180/135 111/172/135 113/170/135
f 114/180/136 115/179/136 111/172/136
f 115/179/137 109/176/137 111/172/137
f 116/173/138 109/176/138 115/179/138
f 110/175/139 112/171/139 111/172/139 109/176/139
l 114 116
