# Blender v2.93.5 OBJ File: ''
# www.blender.org
mtllib peg.mtl
o convex_0.002
v 0.030853 0.080452 0.053090
v -0.012532 -0.080452 0.048569
v -0.012532 0.080452 0.048569
v -0.027001 0.080452 0.067550
v -0.027001 -0.080452 0.048569
v -0.027001 -0.080452 0.067550
v 0.001026 0.043376 0.067552
v 0.030853 -0.080452 0.053090
v -0.027001 0.080452 0.048569
v 0.030853 -0.080452 0.067552
v 0.030853 0.080452 0.067552
vn 0.1036 0.0000 -0.9946
vn -1.0000 0.0000 0.0000
vn -0.0001 -0.0000 1.0000
vn 0.0000 -1.0000 0.0000
vn -0.0000 1.0000 0.0000
vn 1.0000 -0.0000 0.0000
vn -0.0000 -0.0000 1.0000
vn 0.0000 0.0000 -1.0000
usemtl Default_OBJ.002
s off
f 1//1 2//1 3//1
f 4//2 5//2 6//2
f 7//3 4//3 6//3
f 5//4 8//4 6//4
f 4//5 1//5 9//5
f 5//2 4//2 9//2
f 8//6 1//6 10//6
f 6//4 8//4 10//4
f 7//7 6//7 10//7
f 4//7 7//7 11//7
f 1//5 4//5 11//5
f 7//7 10//7 11//7
f 10//6 1//6 11//6
f 1//1 8//1 2//1
f 8//4 5//4 2//4
f 5//8 9//8 2//8
f 2//8 9//8 3//8
f 9//5 1//5 3//5
o convex_3.002
v -0.011635 -0.080452 0.016030
v -0.011635 0.080452 0.001566
v -0.011635 0.080452 0.016030
v -0.011635 -0.080452 0.001566
v -0.025191 -0.080452 -0.000245
v -0.025191 0.080452 -0.000245
v -0.026999 0.080436 0.048564
v -0.012537 0.080452 0.048564
v -0.027001 -0.080452 0.048564
v -0.012537 -0.080452 0.048564
v -0.027001 -0.056039 -0.000245
v -0.026999 0.080436 -0.000245
v -0.027001 -0.080452 -0.000245
vn 1.0000 0.0000 0.0000
vn 0.1324 0.0000 -0.9912
vn -0.0011 1.0000 0.0003
vn 0.0000 -1.0000 0.0000
vn 0.0000 -0.0000 1.0000
vn -0.0000 1.0000 0.0000
vn -0.0000 0.0000 -1.0000
vn -1.0000 0.0000 0.0000
vn -0.0089 1.0000 0.0000
vn 0.9996 0.0000 0.0277
usemtl Default_OBJ.002
s off
f 12//9 13//9 14//9
f 15//10 16//10 17//10
f 17//11 18//11 19//11
f 16//12 15//12 20//12
f 19//13 18//13 20//13
f 20//12 15//12 21//12
f 19//13 20//13 21//13
f 15//10 17//10 13//10
f 17//14 19//14 13//14
f 17//15 16//15 22//15
f 20//16 18//16 22//16
f 18//17 17//17 23//17
f 17//15 22//15 23//15
f 22//16 18//16 23//16
f 21//12 15//12 12//12
f 19//18 21//18 12//18
f 15//9 13//9 12//9
f 16//12 20//12 24//12
f 22//15 16//15 24//15
f 20//16 22//16 24//16
f 13//14 19//14 14//14
f 19//18 12//18 14//18
o convex_4.002
v 0.010966 0.080452 0.013313
v 0.004637 0.080452 0.015120
v 0.008251 -0.080452 0.014215
v -0.011633 0.080452 0.016027
v -0.001690 0.080452 0.016027
v 0.010061 0.080452 -0.005666
v 0.010966 -0.080452 0.013313
v -0.011633 -0.080452 0.001565
v 0.010966 -0.080452 -0.005668
v -0.011633 -0.080452 0.016027
v -0.011633 0.080452 0.001565
v 0.004637 -0.080452 0.015120
v 0.010966 0.080452 -0.005666
v -0.001690 -0.080452 0.016027
v 0.010061 -0.080452 -0.005668
vn 0.2745 0.0008 0.9616
vn 0.0000 1.0000 0.0000
vn 0.0000 -1.0000 0.0000
vn 0.0000 -0.0000 1.0000
vn -1.0000 0.0000 0.0000
vn 1.0000 0.0000 0.0000
vn 0.0000 0.0000 -1.0000
vn 0.1419 -0.0000 0.9899
vn -0.3162 0.0000 -0.9487
vn -0.3163 0.0000 -0.9487
vn 0.2429 -0.0000 0.9700
vn 0.3153 -0.0000 0.9490
vn 0.0000 -1.0000 -0.0001
usemtl Default_OBJ.002
s off
f 25//19 26//19 27//19
f 28//20 29//20 30//20
f 31//21 32//21 33//21
f 29//22 28//22 34//22
f 32//21 31//21 34//21
f 28//23 32//23 34//23
f 28//20 30//20 35//20
f 32//23 28//23 35//23
f 30//20 29//20 25//20
f 31//24 33//24 25//24
f 34//21 31//21 36//21
f 33//25 30//25 37//25
f 30//20 25//20 37//20
f 25//24 33//24 37//24
f 29//22 34//22 38//22
f 34//21 36//21 38//21
f 36//26 29//26 38//26
f 30//25 33//25 39//25
f 33//21 32//21 39//21
f 35//27 30//27 39//27
f 32//28 35//28 39//28
f 25//20 29//20 26//20
f 29//26 36//26 26//26
f 26//29 36//29 27//29
f 31//30 25//30 27//30
f 36//31 31//31 27//31
o convex_1.001_convex_1.003
v -0.037847 0.080452 -0.043634
v -0.036037 0.080452 -0.043634
v 0.000118 0.080452 -0.067137
v -0.037847 -0.080452 -0.043634
v 0.000118 -0.080452 -0.050868
v -0.036037 0.080452 -0.060806
v 0.000118 0.080452 -0.050868
v 0.000118 -0.080452 -0.067137
v -0.036940 -0.080452 -0.059904
v -0.036940 0.080452 -0.059904
v -0.036037 -0.080452 -0.043634
v -0.036037 -0.080452 -0.060806
v -0.037847 0.080452 -0.044541
vn 0.0000 -0.0000 1.0000
vn 0.0000 1.0000 0.0000
vn 1.0000 -0.0000 0.0000
vn -0.7067 0.0000 -0.7075
vn -1.0000 0.0000 0.0000
vn -0.9984 -0.0003 -0.0557
vn 0.1962 -0.0000 0.9806
vn -0.9983 0.0000 -0.0589
vn 0.0000 -1.0000 0.0000
vn -0.1725 0.0000 -0.9850
usemtl Default_OBJ.002
s off
f 41//32 40//32 43//32
f 42//33 41//33 46//33
f 44//34 42//34 46//34
f 42//34 44//34 47//34
f 45//35 48//35 49//35
f 41//32 43//32 50//32
f 48//35 45//35 51//35
f 43//36 40//36 52//36
f 48//37 43//37 52//37
f 46//38 41//38 50//38 44//38
f 49//39 48//39 52//39
f 41//33 42//33 45//33
f 41//33 45//33 49//33
f 41//33 49//33 52//33
f 41//33 52//33 40//33
f 48//40 51//40 47//40
f 48//40 50//40 43//40
f 51//41 45//41 42//41 47//41
f 44//40 50//40 48//40 47//40
l 43 44
o convex_2.001_convex_2.003
v 0.026329 0.080452 -0.055380
v 0.026329 -0.080452 -0.055380
v 0.020909 -0.080452 -0.028271
v 0.000118 0.080452 -0.050864
v 0.037180 0.080452 -0.028271
v 0.000118 -0.080452 -0.050864
v 0.020909 0.080452 -0.028271
v 0.000118 0.080452 -0.067133
v 0.037180 -0.080452 -0.028271
v 0.000118 -0.080452 -0.067133
v 0.020002 -0.080452 -0.029173
v 0.020002 0.080452 -0.029173
vn 0.0000 -0.0000 1.0000
vn 0.0000 1.0000 0.0000
vn -1.0000 0.0000 0.0000
vn -0.7371 -0.0000 0.6757
vn 0.4091 0.0000 -0.9125
vn 0.9284 0.0000 -0.3716
vn 0.0000 -1.0000 0.0000
vn -0.7051 -0.0000 0.7091
usemtl Default_OBJ.002
s off
f 55//42 57//42 59//42
f 57//43 56//43 59//43
f 58//44 56//44 60//44
f 57//42 55//42 61//42
f 58//44 60//44 62//44
f 56//45 58//45 63//45
f 59//43 56//43 64//43
f 56//45 63//45 64//45
f 54//46 62//46 60//46 53//46
f 61//47 54//47 53//47 57//47
f 54//48 61//48 55//48
f 54//48 55//48 63//48
f 54//48 63//48 58//48
f 54//48 58//48 62//48
f 56//43 57//43 53//43
f 56//43 53//43 60//43
f 64//49 63//49 55//49 59//49
l 55 58
o convex_5.001_convex_5.003
v 0.037180 -0.080452 -0.028263
v 0.010966 -0.080452 -0.006574
v 0.020912 0.080452 -0.028263
v 0.037180 0.080452 -0.028263
v 0.013678 -0.080452 0.012407
v 0.010966 0.080452 0.012407
v 0.020912 -0.080452 -0.028263
v 0.029947 -0.080452 -0.000247
v 0.010966 0.080452 -0.006574
v 0.010966 -0.080452 0.012407
v 0.013678 0.080452 0.012407
v 0.029947 0.080452 -0.000247
vn -0.9090 0.0000 -0.4168
vn -0.0000 1.0000 0.0000
vn 0.0000 0.0000 -1.0000
vn 0.6140 -0.0000 0.7893
vn 0.0000 -1.0000 -0.0000
vn -1.0000 0.0000 0.0000
vn 0.0000 -0.0000 1.0000
vn 0.9683 -0.0000 0.2500
usemtl Default_OBJ.002
s off
f 66//50 67//50 71//50
f 67//50 66//50 73//50
f 70//51 67//51 73//51
f 68//52 65//52 71//52 67//52
f 69//53 72//53 76//53 75//53
f 71//54 65//54 72//54 66//54
f 72//54 69//54 74//54
f 72//54 74//54 66//54
f 67//51 70//51 75//51
f 67//51 75//51 76//51
f 67//51 76//51 68//51
f 73//55 66//55 74//55 70//55
f 74//56 69//56 75//56 70//56
f 72//57 65//57 68//57 76//57
l 65 66
l 66 69
