# Blender v2.93.5 OBJ File: ''
# www.blender.org
mtllib hole.mtl
o Cube.001_Cube.045
v -0.019318 -0.050000 0.016231
v -0.023795 -0.050000 0.032872
v 0.001044 -0.050000 0.050577
v 0.023830 -0.050000 0.032620
v 0.020948 -0.050000 0.018689
v 0.000400 -0.050000 0.008200
v 0.001044 0.100000 0.050577
v -0.019318 0.100000 0.016231
v 0.023830 0.100000 0.032620
v -0.023795 0.100000 0.032872
v 0.020948 0.100000 0.018689
v 0.000400 0.100000 0.008200
vt 0.000000 0.000000
vt 0.000000 0.000000
vt 0.000000 0.000000
vt 0.000000 0.000000
vt 0.000000 0.000000
vt 0.000000 0.000000
vt 0.250000 0.000000
vt 0.000000 0.000000
vt 0.000000 0.000000
vt 0.000000 0.000000
vt 0.000000 0.000000
vt 0.000000 0.000000
vt 0.979167 0.500000
vt 0.979167 0.000000
vt 0.489208 0.500000
vt 0.250000 0.500000
vt 0.125000 0.500000
vt 0.708333 0.500000
vt 0.458172 0.000000
vt 0.812500 0.500000
vt 0.812500 0.000000
vt 0.125000 0.000000
vn 0.0000 1.0000 -0.0000
vn 0.0000 -1.0000 0.0000
vn 0.0333 0.6243 -0.7804
vn 0.6230 0.6214 -0.4750
vn 0.6230 -0.6214 -0.4750
vn 0.0333 -0.6243 -0.7804
vn 0.0194 -0.5938 0.8044
vn 0.0194 0.5938 0.8044
vn -0.7541 0.5984 0.2705
vn -0.7541 -0.5984 0.2705
vn -0.5884 0.6194 -0.5197
vn -0.5884 -0.6194 -0.5197
vn 0.7475 -0.6057 0.2726
vn 0.7475 0.6057 0.2726
usemtl None
s off
f 11/1/1 12/2/1 8/3/1
f 1/4/2 6/5/2 3/6/2 2/7/2
f 11/1/1 7/8/1 9/9/1
f 10/10/1 7/8/1 11/1/1 8/3/1
f 5/11/2 4/12/2 3/6/2 6/5/2
s 1
f 12/13/3 11/1/4 5/11/5 6/14/6
f 3/6/7 7/15/8 10/16/9 2/7/10
f 8/17/11 12/2/3 6/5/6 1/4/12
f 4/12/13 9/18/14 7/15/8 3/19/7
f 11/20/4 9/9/14 4/12/13 5/21/5
f 2/7/10 10/16/9 8/17/11 1/22/12
o Cube.002_Cube.046
v -0.020088 -0.050000 -0.036932
v -0.016275 -0.050000 -0.018612
v 0.003500 -0.050000 -0.010591
v 0.019074 -0.050000 -0.020622
v 0.021292 -0.050000 -0.036423
v 0.001000 -0.050000 -0.051400
v 0.001000 0.100000 -0.051400
v 0.003500 0.100000 -0.010591
v 0.019074 0.100000 -0.020622
v -0.020088 0.100000 -0.036932
v 0.021292 0.100000 -0.036423
v -0.016275 0.100000 -0.018612
vt 0.000000 0.000000
vt 0.000000 0.000000
vt 0.000000 0.000000
vt 0.000000 0.000000
vt 0.770833 0.500000
vt 0.000000 0.000000
vt 0.500000 0.000000
vt 0.000000 0.000000
vt 0.000000 0.000000
vt 0.000000 0.000000
vt 0.000000 0.000000
vt 0.000000 0.000000
vt 0.979167 0.500000
vt 0.979167 0.000000
vt 0.645833 0.500000
vt 0.500000 0.500000
vt 0.187500 0.500000
vt 0.333333 0.500000
vt 0.333333 0.000000
vt 0.645833 0.000000
vn 0.0000 1.0000 0.0000
vn 0.0000 -1.0000 0.0000
vn 0.0138 0.5969 -0.8021
vn 0.7319 0.6080 -0.3075
vn 0.7319 -0.6080 -0.3075
vn 0.0138 -0.5969 -0.8021
vn 0.6581 -0.6243 0.4209
vn 0.6581 0.6243 0.4209
vn 0.0734 0.6166 0.7838
vn 0.0734 -0.6166 0.7838
vn -0.7415 0.6011 -0.2980
vn -0.7415 -0.6011 -0.2980
vn -0.6055 0.6149 0.5052
vn -0.6055 -0.6149 0.5052
usemtl None
s off
f 19/23/15 22/24/15 24/25/15
f 19/23/15 21/26/15 23/27/15
f 16/28/16 15/29/16 14/30/16
f 20/31/15 21/26/15 19/23/15 24/25/15
f 16/28/16 18/32/16 17/33/16
f 13/34/16 18/32/16 16/28/16 14/30/16
s 1
f 19/35/17 23/27/18 17/33/19 18/36/20
f 16/28/21 21/37/22 20/38/23 15/29/24
f 22/39/25 19/23/17 18/32/20 13/34/26
f 15/29/24 20/38/23 24/40/27 14/41/28
f 24/40/27 22/24/25 13/34/26 14/30/28
f 17/33/19 23/27/18 21/37/22 16/42/21
o Cube.003_Cube.047
v 0.150000 -0.100000 -0.150000
v 0.150000 0.100000 -0.150000
v 0.001400 -0.050000 -0.070000
v 0.026305 -0.050000 -0.061970
v 0.001400 0.100000 -0.070000
v 0.026305 0.100000 -0.061970
v 0.037500 0.100000 -0.150000
v 0.037500 -0.100000 -0.150000
vt 0.000000 0.000000
vt 0.000000 0.000000
vt 0.000000 0.000000
vt 0.000000 0.000000
vt 0.000000 0.000000
vt 0.489583 0.500000
vt 0.000000 0.000000
vt 0.625000 0.500000
vt 0.541667 0.500000
vt 0.541667 0.000000
vt 0.000000 0.000000
vt 0.489583 0.000000
vn 0.0000 1.0000 -0.0000
vn -0.9115 0.0000 -0.4113
vn 0.5798 0.0000 0.8147
vn 0.0000 -0.8695 0.4939
vn -0.1526 -0.8676 0.4734
vn 0.0000 0.0000 -1.0000
vn 0.0880 -0.4195 0.9034
vn 0.1200 0.6187 0.7764
vn -0.7500 0.5717 0.3327
vn -0.8163 -0.3997 0.4169
vn -0.4493 -0.7580 -0.4727
usemtl None
s off
f 31/43/29 29/44/29 30/45/29
f 31/43/29 30/45/29 26/46/29
f 32/47/30 29/48/30 31/43/30
f 25/49/31 26/50/31 30/51/31 28/52/31
f 28/52/32 32/47/32 25/49/32
f 28/53/33 27/54/33 32/47/33
f 31/43/34 26/46/34 25/49/34 32/47/34
s 1
f 28/53/35 30/51/36 29/48/37 27/54/38
f 32/47/39 27/54/38 29/48/37
o Cube.004_Cube.048
v -0.028425 -0.050000 -0.058800
v 0.001400 -0.050000 -0.070000
v 0.001400 0.100000 -0.070000
v -0.028425 0.100000 -0.058800
v -0.075000 0.100000 -0.150000
v 0.037500 0.100000 -0.150000
v -0.075000 -0.100000 -0.150000
v 0.037500 -0.100000 -0.150000
vt 0.489583 0.500000
vt 0.000000 0.000000
vt 0.000000 0.000000
vt 0.000000 0.000000
vt 0.000000 0.000000
vt 0.000000 0.000000
vt 0.427083 0.500000
vt 0.000000 0.000000
vt 0.427083 0.000000
vt 0.000000 0.000000
vt 0.489583 0.000000
vn 0.9115 0.0000 0.4113
vn 0.0000 1.0000 0.0000
vn -0.8906 0.0000 0.4548
vn 0.0395 -0.8639 0.5022
vn 0.0000 0.0000 -1.0000
vn 0.5311 0.6301 0.5665
vn 0.5413 -0.4100 0.7340
vn 0.6526 -0.6746 -0.3449
vn -0.2934 0.5835 0.7572
vn -0.3175 -0.3870 0.8657
usemtl None
s off
f 35/55/40 40/56/40 38/57/40
f 37/58/41 36/59/41 35/60/41
f 37/58/41 35/60/41 38/57/41
f 36/61/42 37/58/42 39/62/42 33/63/42
f 33/63/43 39/62/43 40/56/43 34/64/43
f 37/58/44 38/57/44 40/56/44 39/62/44
s 1
f 35/55/45 34/65/46 40/56/47
f 34/64/46 35/55/45 36/61/48 33/63/49
o Cube.005_Cube.049
v -0.150000 -0.100000 -0.150000
v -0.150000 0.100000 -0.150000
v -0.040032 -0.050000 -0.036277
v -0.028425 -0.050000 -0.058800
v -0.040032 0.100000 -0.036277
v -0.028425 0.100000 -0.058800
v -0.075000 0.100000 -0.150000
v -0.150000 0.100000 -0.075000
v -0.150000 -0.100000 -0.075000
v -0.075000 -0.100000 -0.150000
vt 0.000000 0.000000
vt 0.000000 0.000000
vt 0.427083 0.500000
vt 0.000000 0.000000
vt 0.000000 0.000000
vt 0.000000 0.000000
vt 0.375000 0.000000
vt 0.000000 0.000000
vt 0.000000 0.000000
vt 0.625000 0.250000
vt 0.375000 0.250000
vt 0.375000 0.500000
vt 0.000000 0.000000
vn 0.0000 1.0000 0.0000
vn 0.3300 -0.8973 0.2931
vn 0.0000 0.0000 -1.0000
vn 0.0000 -1.0000 0.0000
vn -1.0000 0.0000 0.0000
vn 0.4152 0.6063 -0.6782
vn 0.7867 0.6173 0.0014
vn 0.8944 -0.4368 0.0964
vn 0.4819 -0.6594 -0.5770
vn 0.2995 0.5849 0.7538
vn 0.3538 -0.4144 0.8385
vn -0.6546 0.5972 0.4635
vn -0.5603 -0.6507 0.5125
usemtl None
s off
f 47/66/50 45/67/50 46/68/50
f 49/69/51 50/70/51 44/71/51 43/72/51
f 48/73/50 45/67/50 47/66/50 42/74/50
f 42/75/52 47/66/52 50/70/52 41/76/52
f 49/69/53 41/76/53 50/70/53
f 49/69/54 48/73/54 42/75/54 41/76/54
s 1
f 47/66/55 46/68/56 44/71/57 50/70/58
f 44/71/57 46/68/56 45/77/59 43/72/60
f 43/78/60 45/77/59 48/73/61 49/69/62
o Cube.006_Cube.050
v -0.034632 -0.050000 -0.012082
v -0.040032 -0.050000 -0.036277
v -0.034632 0.100000 -0.012082
v -0.040032 0.100000 -0.036277
v -0.150000 0.100000 0.000000
v -0.150000 0.100000 -0.075000
v -0.150000 -0.100000 0.000000
v -0.150000 -0.100000 -0.075000
vt 0.000000 0.000000
vt 0.000000 0.000000
vt 0.000000 0.000000
vt 0.000000 0.000000
vt 0.000000 0.000000
vt 0.000000 0.000000
vt 0.000000 0.000000
vt 0.000000 0.000000
vt 0.291667 0.500000
vt 0.375000 0.500000
vt 0.375000 0.000000
vn 0.0000 1.0000 0.0000
vn -1.0000 0.0000 0.0000
vn 0.4077 -0.9128 -0.0222
vn 0.7470 -0.4276 0.5091
vn 0.6662 0.5715 0.4790
vn -0.5489 0.5720 0.6094
vn -0.4353 -0.6909 0.5772
vn 0.5912 0.6125 -0.5247
vn 0.7179 -0.4486 -0.5323
vn -0.4781 0.5616 -0.6753
vn -0.3838 -0.6596 -0.6462
usemtl None
s off
f 55/79/63 53/80/63 54/81/63 56/82/63
f 57/83/64 55/79/64 56/82/64 58/84/64
f 58/84/65 52/85/65 51/86/65 57/83/65
s 1
f 51/86/66 53/87/67 55/79/68 57/83/69
f 54/88/70 53/80/67 51/86/66 52/89/71
f 56/82/72 54/81/70 52/85/71 58/84/73
o Cube.008_Cube.051
v -0.037027 -0.050000 0.009720
v -0.024200 -0.050000 -0.001400
v -0.034632 -0.050000 -0.012082
v -0.024200 0.100000 -0.001400
v -0.034632 0.100000 -0.012082
v -0.037027 0.100000 0.009720
v -0.150000 0.100000 0.000000
v -0.150000 -0.100000 0.000000
vt 0.000000 0.000000
vt 0.000000 0.000000
vt 0.000000 0.000000
vt 0.000000 0.000000
vt 0.000000 0.000000
vt 0.000000 0.000000
vt 0.000000 0.000000
vt 0.000000 0.000000
vt 0.291667 0.500000
vt 0.291667 0.000000
vt 0.187500 0.500000
vt 0.239583 0.500000
vt 0.187500 0.000000
vn 0.0000 1.0000 0.0000
vn 0.3430 -0.8519 0.3957
vn 0.3446 -0.8764 -0.3365
vn 0.2662 0.6209 -0.7373
vn 0.8179 0.5743 0.0339
vn 0.8844 -0.4654 0.0341
vn 0.3653 -0.4179 -0.8318
vn -0.8431 0.5376 0.0078
vn -0.6932 -0.7207 0.0066
vn 0.3417 -0.4029 0.8490
vn 0.2402 0.6290 0.7393
usemtl None
s off
f 63/90/74 65/91/74 64/92/74
f 63/90/74 64/92/74 62/93/74
f 59/94/75 66/95/75 60/96/75
f 66/95/76 61/97/76 60/96/76
s 1
f 63/98/77 62/93/78 60/96/79 61/99/80
f 65/91/81 63/90/77 61/97/80 66/95/82
f 59/94/83 64/100/84 65/91/81 66/95/82
f 60/96/79 62/101/78 64/100/84 59/102/83
o Cube.009_Cube.052
v -0.043208 -0.050000 0.036543
v -0.037027 -0.050000 0.009720
v -0.043208 0.100000 0.036543
v -0.037027 0.100000 0.009720
v -0.150000 0.100000 0.000000
v -0.150000 0.100000 0.075000
v -0.150000 -0.100000 0.000000
v -0.150000 -0.100000 0.075000
vt 0.000000 0.000000
vt 0.000000 0.000000
vt 0.000000 0.000000
vt 0.000000 0.000000
vt 0.000000 0.000000
vt 0.000000 0.000000
vt 0.000000 0.000000
vt 0.187500 0.500000
vt 0.104167 0.500000
vt 0.104167 0.000000
vn -1.0000 0.0000 0.0000
vn 0.4168 -0.9087 0.0253
vn 0.0000 1.0000 -0.0000
vn -0.5541 0.5730 -0.6038
vn 0.6641 0.5703 -0.4834
vn 0.7452 -0.4242 -0.5145
vn -0.4359 -0.6955 -0.5712
vn 0.7201 -0.4447 0.5326
vn 0.5906 0.6135 0.5241
vn -0.4758 0.5613 0.6771
vn -0.3797 -0.6604 0.6479
usemtl None
s off
f 72/103/85 71/104/85 73/105/85 74/106/85
f 74/106/86 73/105/86 68/107/86 67/108/86
f 69/109/87 70/110/87 71/104/87 72/103/87
s 1
f 71/104/88 70/110/89 68/107/90 73/105/91
f 67/108/92 69/111/93 72/103/94 74/106/95
f 68/107/90 70/110/89 69/111/93 67/112/92
o Cube.010_Cube.053
v -0.150000 -0.100000 0.150000
v -0.150000 0.100000 0.150000
v -0.026700 -0.050000 0.062028
v -0.043208 -0.050000 0.036543
v -0.043208 0.100000 0.036543
v -0.026700 0.100000 0.062028
v -0.150000 0.100000 0.075000
v -0.112500 0.100000 0.150000
v -0.150000 -0.100000 0.075000
v -0.112500 -0.100000 0.150000
vt 0.625000 0.000000
vt 0.000000 0.000000
vt 0.000000 0.000000
vt 0.375000 0.000000
vt 0.375000 0.968750
vt 0.000000 0.000000
vt 0.000000 0.000000
vt 0.625000 0.968750
vt 0.000000 0.000000
vt 0.000000 0.000000
vt 0.000000 0.000000
vt 0.000000 0.000000
vt 0.000000 0.000000
vt 0.041667 0.500000
vt 0.104167 0.500000
vt 0.104167 0.000000
vn -1.0000 0.0000 0.0000
vn 0.0000 0.0000 1.0000
vn 0.0000 1.0000 -0.0000
vn 0.3519 -0.9168 -0.1891
vn 0.0000 -1.0000 0.0000
vn -0.6559 0.5977 -0.4609
vn 0.2579 0.5904 -0.7648
vn 0.3444 -0.4419 -0.8283
vn -0.5390 -0.6719 -0.5079
vn 0.8980 -0.4374 0.0474
vn 0.8034 0.5900 0.0798
vn 0.3019 0.6292 0.7162
vn 0.3817 -0.6689 0.6379
usemtl None
s off
f 76/113/96 81/114/96 83/115/96 75/116/96
f 84/117/97 82/118/97 76/113/97 75/116/97
f 79/119/98 82/120/98 80/121/98
f 79/119/98 76/122/98 82/120/98
f 79/119/98 81/114/98 76/122/98
f 83/115/99 78/123/99 77/124/99 84/125/99
f 75/116/100 83/115/100 84/125/100
s 1
f 81/114/101 79/119/102 78/123/103 83/115/104
f 77/124/105 80/126/106 82/118/107 84/125/108
f 79/127/102 80/121/106 77/124/105 78/128/103
o Cube.011_Cube.054
v -0.026700 -0.050000 0.062028
v 0.000400 -0.050000 0.070000
v 0.000400 0.100000 0.070000
v -0.026700 0.100000 0.062028
v 0.000000 0.100000 0.150000
v -0.112500 0.100000 0.150000
v 0.000000 -0.100000 0.150000
v -0.112500 -0.100000 0.150000
vt 0.000000 0.000000
vt 0.041667 0.000000
vt 0.000000 0.000000
vt 0.000000 0.000000
vt 0.000000 0.000000
vt 0.000000 0.000000
vt 0.000000 0.000000
vt 0.989583 0.500000
vt 0.041667 0.500000
vt 0.000000 0.000000
vn 0.0286 -0.8653 -0.5005
vn 0.0000 0.0000 1.0000
vn 0.0000 1.0000 -0.0000
vn 1.0000 0.0000 0.0050
vn -0.2011 0.6073 -0.7685
vn 0.6456 0.5936 -0.4805
vn 0.6753 -0.4026 -0.6179
vn -0.2068 -0.4013 -0.8923
vn -0.7712 0.5472 0.3251
vn -0.7119 -0.6492 0.2678
vn 0.5758 0.5776 0.5786
usemtl None
s off
f 92/129/109 85/130/109 86/131/109 91/132/109
f 91/132/110 89/133/110 90/134/110 92/129/110
f 88/135/111 89/133/111 87/136/111
f 88/135/111 90/134/111 89/133/111
f 89/133/112 91/132/112 86/131/112
s 1
f 88/137/113 87/136/114 86/131/115 85/130/116
f 90/134/117 88/135/113 85/138/116 92/129/118
f 89/133/119 86/131/115 87/136/114
o Cube.012_Cube.055
v 0.027028 -0.050000 0.062104
v 0.000400 -0.050000 0.070000
v 0.000400 0.100000 0.070000
v 0.027028 0.100000 0.062104
v 0.000000 0.100000 0.150000
v 0.075000 0.100000 0.150000
v 0.000000 -0.100000 0.150000
v 0.075000 -0.100000 0.150000
vt 0.000000 0.000000
vt 0.000000 0.000000
vt 0.000000 0.000000
vt 0.989583 0.000000
vt 0.000000 0.000000
vt 0.000000 0.000000
vt 0.937500 0.000000
vt 0.937500 0.500000
vt 0.000000 0.000000
vt 0.989583 0.500000
vn -0.0391 -0.8633 -0.5031
vn 0.0000 0.0000 1.0000
vn 0.8778 0.0000 -0.4791
vn -1.0000 0.0000 -0.0050
vn 0.0000 1.0000 0.0000
vn 0.3252 -0.3890 -0.8619
vn -0.6749 -0.4003 -0.6199
vn -0.6432 0.5943 -0.4827
vn 0.3082 0.5893 -0.7468
vn -0.5789 0.5771 0.5760
usemtl None
s off
f 93/139/120 100/140/120 99/141/120 94/142/120
f 97/143/121 99/141/121 100/140/121 98/144/121
f 98/144/122 100/140/122 93/145/122 96/146/122
f 97/143/123 94/142/123 99/141/123
f 95/147/124 97/143/124 98/144/124 96/146/124
s 1
f 93/145/125 94/142/126 95/147/127 96/146/128
f 97/143/129 95/148/127 94/142/126
o Cube.013_Cube.056
v 0.150000 -0.100000 0.150000
v 0.150000 0.100000 0.150000
v 0.043216 -0.050000 0.036739
v 0.027028 -0.050000 0.062104
v 0.043216 0.100000 0.036739
v 0.027028 0.100000 0.062104
v 0.075000 0.100000 0.150000
v 0.150000 0.100000 0.112500
v 0.075000 -0.100000 0.150000
v 0.150000 -0.100000 0.112500
vt 0.000000 0.000000
vt 0.625000 0.750000
vt 0.000000 0.000000
vt 0.000000 0.000000
vt 0.937500 0.500000
vt 0.937500 0.000000
vt 0.000000 0.000000
vt 0.000000 0.000000
vt 0.000000 0.000000
vt 0.625000 0.718750
vt 0.375000 0.718750
vt 0.875000 0.500000
vt 0.000000 0.000000
vt 0.875000 0.000000
vt 0.375000 0.750000
vt 0.000000 0.000000
vn 0.0000 0.0000 1.0000
vn -0.8778 0.0000 0.4791
vn 0.0000 1.0000 -0.0000
vn 0.0000 -1.0000 0.0000
vn 0.5786 0.0000 -0.8156
vn -0.2326 -0.9122 -0.3374
vn 1.0000 0.0000 0.0000
vn -0.7931 0.6085 -0.0271
vn -0.1568 0.5748 -0.8031
vn -0.1694 -0.4217 -0.8907
vn -0.8811 -0.4530 -0.1357
usemtl None
s off
f 101/149/130 102/150/130 107/151/130 109/152/130
f 109/152/131 107/151/131 106/153/131 104/154/131
f 105/155/132 106/156/132 107/151/132
f 105/155/132 107/151/132 102/157/132
f 105/155/132 102/157/132 108/158/132
f 101/149/133 109/152/133 110/159/133
f 105/160/134 108/158/134 110/161/134 103/162/134
f 104/154/135 103/162/135 110/161/135 109/152/135
f 110/159/136 108/158/136 102/150/136 101/163/136
s 1
f 106/153/137 105/155/138 103/164/139 104/154/140
o Cube.014_Cube.057
v 0.040281 -0.050000 0.015197
v 0.043216 -0.050000 0.036739
v 0.040281 0.100000 0.015197
v 0.043216 0.100000 0.036739
v 0.150000 0.100000 0.037500
v 0.150000 0.100000 0.112500
v 0.150000 -0.100000 0.037500
v 0.150000 -0.100000 0.112500
vt 0.875000 0.000000
vt 0.812500 0.000000
vt 0.000000 0.000000
vt 0.000000 0.000000
vt 0.000000 0.000000
vt 0.000000 0.000000
vt 0.000000 0.000000
vt 0.000000 0.000000
vt 0.812500 0.500000
vt 0.875000 0.500000
vt 0.000000 0.000000
vn -0.4241 -0.9055 0.0129
vn 0.0000 1.0000 0.0000
vn 0.1992 0.0000 -0.9800
vn -0.5786 0.0000 0.8156
vn 1.0000 0.0000 0.0000
vn -0.6659 0.6276 0.4033
vn -0.5656 0.5617 -0.6037
vn -0.6341 -0.4282 -0.6439
vn -0.7985 -0.4501 0.3996
usemtl None
s off
f 112/165/141 111/166/141 117/167/141 118/168/141
f 113/169/142 114/170/142 116/171/142
f 113/169/142 116/171/142 115/172/142
f 113/173/143 115/172/143 117/167/143 111/166/143
f 118/168/144 116/171/144 114/174/144 112/165/144
f 117/167/145 115/172/145 116/171/145 118/168/145
s 1
f 114/174/146 113/169/147 111/175/148 112/165/149
o Cube.015_Cube.058
v 0.038730 -0.050000 -0.017462
v 0.024600 -0.050000 -0.001400
v 0.040281 -0.050000 0.015197
v 0.024600 0.100000 -0.001400
v 0.040281 0.100000 0.015197
v 0.038730 0.100000 -0.017462
v 0.150000 0.100000 0.037500
v 0.150000 0.100000 -0.037500
v 0.150000 -0.100000 0.037500
v 0.150000 -0.100000 -0.037500
vt 0.666667 0.500000
vt 0.000000 0.000000
vt 0.000000 0.000000
vt 0.666667 0.000000
vt 0.000000 0.000000
vt 0.000000 0.000000
vt 0.000000 0.000000
vt 0.000000 0.000000
vt 0.000000 0.000000
vt 0.000000 0.000000
vt 0.812500 0.500000
vt 0.812500 0.000000
vt 0.000000 0.000000
vt 0.739583 0.000000
vt 0.739583 0.500000
vn -0.1772 0.0000 -0.9842
vn -0.3704 -0.9289 0.0000
vn 0.0000 1.0000 0.0000
vn -0.1992 0.0000 0.9800
vn -0.4351 -0.8149 -0.3828
vn -0.4456 -0.7900 0.4210
vn 1.0000 0.0000 0.0000
vn -0.5046 -0.3681 0.7809
vn -0.3711 0.6450 0.6679
vn -0.8128 0.5824 0.0144
vn -0.8954 -0.4451 0.0137
vn -0.3776 0.6399 -0.6692
vn -0.5074 -0.3823 -0.7722
usemtl None
s off
f 124/176/150 126/177/150 128/178/150 119/179/150
f 127/180/151 120/181/151 128/178/151
f 124/182/152 122/183/152 123/184/152
f 127/180/153 125/185/153 123/186/153 121/187/153
f 120/181/154 119/179/154 128/178/154
f 125/185/152 126/177/152 124/182/152 123/184/152
f 121/188/155 120/189/155 127/180/155
f 128/178/156 126/177/156 125/185/156 127/180/156
s 1
f 121/188/157 123/186/158 122/190/159 120/189/160
f 122/190/159 124/182/161 119/179/162 120/181/160
o Cube.016_Cube.059
v 0.041248 -0.050000 -0.035927
v 0.038730 -0.050000 -0.017462
v 0.041248 0.100000 -0.035927
v 0.038730 0.100000 -0.017462
v 0.150000 0.100000 -0.075000
v 0.150000 0.100000 -0.037500
v 0.150000 -0.100000 -0.075000
v 0.150000 -0.100000 -0.037500
vt 0.000000 0.000000
vt 0.625000 0.562500
vt 0.000000 0.000000
vt 0.000000 0.000000
vt 0.666667 0.000000
vt 0.604167 0.000000
vt 0.375000 0.562500
vt 0.000000 0.000000
vt 0.375000 0.593750
vt 0.666667 0.500000
vt 0.604167 0.500000
vt 0.000000 0.000000
vn 0.0000 1.0000 -0.0000
vn -0.4179 -0.9083 -0.0188
vn 1.0000 0.0000 0.0000
vn 0.1772 0.0000 0.9842
vn -0.3381 0.0000 -0.9411
vn -0.5720 0.5626 0.5969
vn -0.6176 0.6069 -0.5002
vn -0.7393 -0.4401 -0.5096
vn -0.6422 -0.4304 0.6342
usemtl None
s off
f 134/191/163 133/192/163 131/193/163 132/194/163
f 130/195/164 129/196/164 135/197/164 136/198/164
f 135/197/165 133/192/165 134/191/165 136/199/165
f 136/198/166 134/191/166 132/200/166 130/195/166
f 131/201/167 133/192/167 135/202/167 129/196/167
s 1
f 132/200/168 131/193/169 129/196/170 130/195/171
o Cube.017_Cube.060
v 0.150000 -0.100000 -0.150000
v 0.150000 0.100000 -0.150000
v 0.026305 -0.050000 -0.061970
v 0.041248 -0.050000 -0.035927
v 0.026305 0.100000 -0.061970
v 0.041248 0.100000 -0.035927
v 0.150000 0.100000 -0.075000
v 0.150000 -0.100000 -0.075000
vt 0.000000 0.000000
vt 0.625000 0.500000
vt 0.000000 0.000000
vt 0.000000 0.000000
vt 0.604167 0.000000
vt 0.541667 0.000000
vt 0.604167 0.500000
vt 0.000000 0.000000
vt 0.000000 0.000000
vt 0.541667 0.500000
vt 0.000000 0.000000
vn 1.0000 0.0000 0.0000
vn -0.3693 -0.9277 0.0546
vn 0.3381 0.0000 0.9411
vn 0.0000 1.0000 0.0000
vn -0.5798 0.0000 -0.8147
vn -0.2794 0.5871 0.7597
vn -0.7939 0.5826 -0.1739
vn -0.8772 -0.4407 -0.1903
vn -0.3870 -0.4666 0.7953
usemtl None
s off
f 137/203/172 138/204/172 143/205/172 144/206/172
f 140/207/173 139/208/173 137/203/173 144/206/173
f 144/206/174 143/205/174 142/209/174 140/207/174
f 143/205/175 138/204/175 141/210/175 142/211/175
f 141/212/176 138/204/176 137/203/176 139/208/176
s 1
f 142/209/177 141/210/178 139/213/179 140/207/180
o Cube.018_Cube.061
v 0.150000 -0.100000 -0.150000
v -0.043208 -0.050000 0.036543
v -0.040032 -0.050000 -0.036277
v 0.001400 -0.050000 -0.070000
v 0.041248 -0.050000 -0.035927
v 0.043216 -0.050000 0.036739
v 0.000400 -0.050000 0.070000
v -0.150000 -0.100000 -0.075000
v 0.075000 -0.100000 0.150000
v -0.150000 -0.100000 0.075000
v -0.075000 -0.100000 -0.150000
v -0.112500 -0.100000 0.150000
v 0.150000 -0.100000 0.112500
vt 0.000000 0.000000
vt 0.000000 0.000000
vt 0.000000 0.000000
vt 0.000000 0.000000
vt 0.000000 0.000000
vt 0.000000 0.000000
vt 0.000000 0.000000
vt 0.000000 0.000000
vt 0.000000 0.000000
vt 0.000000 0.000000
vt 0.000000 0.000000
vt 0.000000 0.000000
vt 0.000000 0.000000
vn 0.1968 0.9531 -0.2301
vn 0.4081 0.9129 -0.0111
vn 0.4241 0.9056 0.0000
vn 0.0000 -1.0000 0.0000
vn 0.0000 0.8480 -0.5300
vn -0.4189 0.9080 -0.0060
vn 0.0000 1.0000 -0.0000
vn -0.3007 0.9269 0.2248
vn 0.2076 0.9151 0.3457
vn 0.0000 0.8480 0.5300
vn -0.2890 0.9059 -0.3095
usemtl None
s off
f 148/214/181 149/215/181 145/216/181
f 149/215/182 150/217/182 145/216/182
f 150/217/183 157/218/183 145/216/183
f 157/218/184 153/219/184 156/220/184
f 157/218/184 156/220/184 154/221/184
f 157/218/184 154/221/184 152/222/184
f 157/218/184 152/222/184 155/223/184
f 157/218/184 155/223/184 145/216/184
f 155/223/185 148/214/185 145/216/185
f 154/221/186 146/224/186 147/225/186 152/222/186
f 147/225/187 146/224/187 151/226/187
f 154/221/188 156/220/188 151/226/188 146/224/188
f 147/225/187 149/215/187 148/214/187
f 150/217/187 149/215/187 147/225/187 151/226/187
f 151/226/189 153/219/189 157/218/189 150/217/189
f 156/220/190 153/219/190 151/226/190
f 152/222/191 147/225/191 148/214/191 155/223/191
