# Blender v2.93.5 OBJ File: ''
# www.blender.org
mtllib peg.mtl
o convex_9
v -0.000323 0.080510 -0.006908
v -0.018665 -0.080510 -0.014042
v -0.018665 0.080510 -0.014042
v -0.019686 0.080510 0.001244
v -0.000323 0.080510 0.001244
v -0.019686 0.080510 -0.014042
v -0.019686 -0.080510 0.001244
v -0.000323 -0.080510 -0.006908
v -0.000323 -0.080510 0.001244
v -0.019686 -0.080510 -0.014042
vn 0.3625 0.0000 -0.9320
vn 0.0000 1.0000 0.0000
vn 0.0000 -0.0000 1.0000
vn -1.0000 -0.0000 0.0000
vn 0.0000 -1.0000 0.0000
vn 1.0000 -0.0000 0.0000
vn 0.0000 0.0000 -1.0000
usemtl Default_OBJ.006
s off
f 1//1 2//1 3//1
f 4//2 5//2 6//2
f 5//3 4//3 7//3
f 4//4 6//4 7//4
f 7//5 2//5 8//5
f 6//2 5//2 1//2
f 5//6 8//6 1//6
f 8//1 2//1 1//1
f 5//3 7//3 9//3
f 8//6 5//6 9//6
f 7//5 8//5 9//5
f 6//7 2//7 10//7
f 2//5 7//5 10//5
f 7//4 6//4 10//4
f 2//7 6//7 3//7
f 6//2 1//2 3//2
o convex_2.001_convex_2.007
v -0.023760 0.080510 -0.062956
v -0.026814 -0.080494 -0.060918
v -0.042107 0.080510 -0.034424
v -0.024777 0.080510 -0.034424
v -0.042107 -0.080494 -0.034424
v 0.001715 0.080510 -0.068055
v 0.001715 -0.080510 -0.068055
v 0.001715 -0.080510 -0.052767
v 0.001715 0.080510 -0.052767
v -0.024777 -0.080494 -0.034424
vn 0.0000 -0.0000 1.0000
vn 1.0000 0.0000 0.0000
vn -0.0004 -1.0000 0.0000
vn 0.0000 1.0000 0.0000
vn 0.0000 -1.0000 0.0009
vn 0.5693 -0.0000 0.8222
vn -0.8532 0.0048 -0.5216
vn -0.0007 -1.0000 -0.0004
vn -0.2210 -0.0041 -0.9753
usemtl Default_OBJ.006
s off
f 14//8 13//8 15//8
f 17//9 16//9 18//9
f 15//10 17//10 18//10
f 16//11 14//11 19//11
f 18//9 16//9 19//9
f 14//8 15//8 20//8
f 15//12 18//12 20//12
f 19//13 14//13 20//13 18//13
f 14//11 16//11 11//11
f 14//11 11//11 13//11
f 12//14 15//14 13//14 11//14
f 17//15 15//15 12//15
f 17//16 12//16 11//16 16//16
o convex_3.001_convex_3.006
v 0.027190 0.080510 -0.060918
v 0.027190 -0.080510 -0.060918
v 0.025151 0.080510 -0.034424
v 0.001715 0.080510 -0.052767
v 0.025151 -0.080510 -0.034424
v 0.001715 -0.080510 -0.068055
v 0.041460 -0.080510 -0.034424
v 0.001715 -0.080510 -0.052767
v 0.041460 0.080510 -0.034424
v 0.001715 0.080510 -0.068055
vn 0.0000 -1.0000 0.0000
vn -1.0000 0.0000 0.0000
vn -0.6163 -0.0000 0.7875
vn 0.2698 0.0000 -0.9629
vn 0.0000 1.0000 0.0000
vn 0.0000 -0.0000 1.0000
vn 0.8804 0.0000 -0.4742
usemtl Default_OBJ.006
s off
f 26//17 25//17 28//17
f 28//18 24//18 30//18 26//18
f 23//19 24//19 28//19 25//19
f 26//20 30//20 21//20 22//20
f 23//21 29//21 21//21
f 29//22 23//22 25//22 27//22
f 26//17 22//17 27//17
f 26//17 27//17 25//17
f 22//23 21//23 29//23 27//23
f 30//21 24//21 23//21 21//21
o convex_10.001
v -0.000323 0.080510 0.001244
v 0.023113 0.080510 0.001244
v 0.039422 0.080510 -0.017100
v 0.023113 -0.080510 0.001244
v -0.000323 -0.080510 -0.006909
v 0.021078 0.080510 -0.017100
v 0.021078 -0.080510 -0.017100
v -0.000323 -0.080510 0.001244
v -0.000323 0.080510 -0.006909
v 0.039422 -0.080510 -0.017100
vn -0.4299 0.0000 -0.9029
vn 0.0000 0.0000 -1.0000
vn 0.0000 -1.0000 0.0000
vn -1.0000 0.0000 0.0000
vn 0.0000 -0.0000 1.0000
vn 0.7473 -0.0000 0.6644
vn 0.0000 1.0000 0.0000
usemtl Default_OBJ.006
s off
f 35//24 36//24 37//24
f 36//25 33//25 37//25
f 35//26 34//26 38//26
f 38//27 31//27 39//27 35//27
f 36//24 35//24 39//24
f 37//25 33//25 40//25
f 32//28 31//28 38//28 34//28
f 33//29 32//29 34//29 40//29
f 32//30 33//30 36//30
f 35//26 37//26 40//26
f 35//26 40//26 34//26
f 39//30 31//30 32//30 36//30
o convex_8.001
v -0.019686 -0.080510 -0.015064
v -0.024784 -0.080494 -0.034424
v -0.024784 0.080510 -0.034424
v -0.019688 0.080510 0.001244
v -0.042103 0.080510 -0.034424
v -0.042103 -0.080494 -0.034424
v -0.037010 0.080510 -0.010986
v -0.019686 -0.080510 0.001244
v -0.019688 0.080510 -0.015064
v -0.037010 -0.080494 -0.010986
v -0.022745 0.080510 0.001244
v -0.022745 -0.080494 0.001244
vn 0.9670 0.0000 -0.2546
vn 0.0000 -1.0000 -0.0008
vn -0.0007 -1.0000 0.0000
vn 0.9671 0.0000 -0.2546
vn 0.0000 0.0000 -1.0000
vn 1.0000 0.0000 0.0000
vn -0.9772 -0.0000 0.2123
vn -0.6509 -0.0000 0.7592
vn -0.0011 -1.0000 0.0002
vn -0.0000 1.0000 0.0000
vn -0.0052 -1.0000 0.0061
vn 0.0000 -0.0000 1.0000
usemtl Default_OBJ.006
s off
f 41//31 42//31 43//31
f 42//32 41//32 46//32
f 46//33 41//33 48//33
f 41//34 43//34 49//34
f 43//35 42//35 46//35 45//35
f 48//36 41//36 49//36 44//36
f 45//37 46//37 50//37 47//37
f 47//38 50//38 52//38 51//38
f 48//39 50//39 46//39
f 45//40 47//40 51//40
f 45//40 51//40 44//40
f 45//40 44//40 49//40
f 45//40 49//40 43//40
f 52//41 50//41 48//41
f 52//42 48//42 44//42 51//42
l 44 47
l 43 44
o convex_0.001_convex_0.007
v 0.000696 0.080510 0.053217
v -0.021722 -0.080510 0.036913
v 0.000696 -0.080510 0.053217
v -0.021722 0.080510 0.036913
v 0.000696 -0.080510 0.068506
v -0.026821 0.080510 0.059330
v -0.038030 0.080510 0.036916
v 0.000696 0.080510 0.068506
v -0.038030 -0.080510 0.036916
v -0.026821 -0.080510 0.059330
vn 0.5882 0.0000 -0.8087
vn 1.0000 0.0000 0.0000
vn -0.0002 0.0000 -1.0000
vn 0.0000 -1.0000 -0.0000
vn 0.0000 1.0000 0.0000
vn -0.8944 -0.0000 0.4473
vn -0.3163 -0.0000 0.9486
usemtl Default_OBJ.006
s off
f 54//43 53//43 55//43
f 53//43 54//43 56//43
f 55//44 53//44 57//44
f 57//44 53//44 60//44
f 61//45 59//45 56//45 54//45
f 57//46 62//46 54//46 55//46
f 58//47 56//47 59//47
f 58//48 59//48 61//48 62//48
f 60//49 58//49 62//49 57//49
f 53//47 56//47 58//47 60//47
f 54//46 62//46 61//46
o convex_4.001_convex_4.006
v -0.017650 -0.080510 0.018573
v -0.017650 -0.080510 0.001244
v -0.017648 0.080510 0.001244
v -0.039049 0.080510 0.036913
v -0.021725 0.080510 0.036913
v -0.039049 -0.080494 0.036913
v -0.021725 -0.080494 0.036913
v -0.022745 -0.080494 0.001244
v -0.017648 0.080510 0.018576
v -0.022745 0.080510 0.001244
v -0.033952 0.080510 0.012459
v -0.033952 -0.080494 0.012459
vn 1.0000 -0.0000 0.0000
vn -0.0007 -1.0000 0.0000
vn 0.0000 -1.0000 0.0009
vn -0.0000 0.0000 -1.0000
vn 0.0000 -0.0000 1.0000
vn 0.9762 -0.0000 0.2169
vn 0.9762 -0.0000 0.2170
vn -0.0011 -1.0000 -0.0002
vn -0.0031 -1.0000 -0.0031
vn -0.9790 0.0000 -0.2040
vn -0.7074 0.0000 -0.7069
vn 0.0000 1.0000 0.0000
usemtl Default_OBJ.006
s off
f 63//50 64//50 65//50
f 64//51 63//51 68//51
f 68//52 63//52 69//52
f 65//53 64//53 70//53
f 63//50 65//50 71//50
f 66//54 68//54 69//54 67//54
f 69//55 63//55 71//55
f 67//56 69//56 71//56
f 65//53 70//53 72//53
f 68//57 74//57 64//57
f 74//58 70//58 64//58
f 74//59 68//59 66//59 73//59
f 70//60 74//60 73//60 72//60
f 72//61 73//61 66//61
f 72//61 66//61 67//61
f 72//61 67//61 71//61
f 72//61 71//61 65//61
l 65 66
o convex_1.001_convex_1.008
v 0.027189 -0.080510 0.060349
v 0.000696 0.080510 0.068504
v 0.039422 0.080510 0.036913
v 0.000696 -0.080510 0.053219
v 0.039422 -0.080510 0.036913
v 0.022095 0.080510 0.036913
v 0.000696 -0.080510 0.068504
v 0.000696 0.080510 0.053219
v 0.022095 -0.080510 0.036913
v 0.027189 0.080510 0.060349
vn -0.6061 0.0000 -0.7954
vn 0.0000 -1.0000 -0.0000
vn -1.0000 -0.0000 0.0000
vn 0.8865 -0.0000 0.4627
vn 0.0000 1.0000 0.0000
vn 0.0000 0.0000 -1.0000
vn 0.2942 -0.0000 0.9557
usemtl Default_OBJ.006
s off
f 80//62 78//62 82//62
f 79//63 78//63 83//63
f 78//62 80//62 83//62
f 81//64 76//64 82//64 78//64
f 77//65 84//65 75//65 79//65
f 82//66 76//66 84//66 80//66
f 84//66 77//66 80//66
f 78//63 79//63 75//63
f 78//63 75//63 81//63
f 83//67 80//67 77//67 79//67
f 84//68 76//68 81//68 75//68
l 76 77
o convex_7.001
v 0.003753 0.080510 0.009398
v 0.019041 0.080510 0.018569
v 0.023117 0.080510 0.001244
v 0.019041 -0.080510 0.018569
v 0.003753 -0.080510 0.001244
v 0.037384 0.080510 0.018569
v 0.023117 -0.080510 0.001244
v 0.003753 0.080510 0.001244
v 0.037384 -0.080510 0.018569
v 0.003753 -0.080510 0.009398
vn 0.0000 -0.0000 1.0000
vn 0.0000 1.0000 0.0000
vn 0.0000 0.0000 -1.0000
vn -1.0000 -0.0000 0.0000
vn 0.0000 -1.0000 0.0000
vn 0.7719 0.0000 -0.6357
vn -0.5144 -0.0000 0.8575
usemtl Default_OBJ.006
s off
f 86//69 88//69 90//69
f 87//70 86//70 90//70
f 89//71 87//71 91//71
f 87//71 89//71 92//71
f 90//69 88//69 93//69
f 94//72 85//72 92//72 89//72
f 89//73 88//73 94//73
f 91//74 87//74 90//74 93//74
f 92//70 85//70 86//70 87//70
f 89//73 91//73 93//73
f 89//73 93//73 88//73
f 86//75 85//75 94//75 88//75
o convex_11.001
v 0.022097 0.080510 -0.017100
v 0.039421 0.080510 -0.017100
v 0.025156 0.080510 -0.034424
v 0.022097 -0.080510 -0.017100
v 0.025156 -0.080510 -0.034424
v 0.041460 0.080510 -0.034424
v 0.039421 -0.080510 -0.017100
v 0.041460 -0.080510 -0.034424
v 0.022097 0.080510 -0.019138
v 0.022097 -0.080510 -0.019138
vn 0.0000 -0.0000 1.0000
vn 0.0000 1.0000 -0.0000
vn 0.0000 0.0000 -1.0000
vn -1.0000 0.0000 0.0000
vn -0.9806 0.0000 -0.1962
vn 0.9931 -0.0000 0.1169
vn 0.0000 -1.0000 -0.0000
usemtl Default_OBJ.006
s off
f 96//76 95//76 98//76
f 97//77 96//77 100//77
f 99//78 97//78 100//78
f 96//76 98//76 101//76
f 99//78 100//78 102//78
f 98//79 95//79 103//79
f 98//79 103//79 104//79
f 104//80 103//80 97//80 99//80
f 96//77 97//77 103//77
f 96//77 103//77 95//77
f 100//81 96//81 101//81 102//81
f 104//82 101//82 98//82
f 102//82 101//82 104//82 99//82
l 98 99
o convex_6.001_convex_6.003
v 0.038402 0.080510 0.018569
v 0.023118 0.080510 0.036913
v 0.020059 0.080510 0.020609
v 0.023118 -0.080510 0.036913
v 0.039422 0.080510 0.036913
v 0.020059 -0.080510 0.018569
v 0.039422 -0.080510 0.036913
v 0.038402 -0.080510 0.018569
v 0.020059 0.080510 0.018569
v 0.020059 -0.080510 0.020609
vn 0.0000 -0.0000 1.0000
vn 0.0000 0.0000 -1.0000
vn -1.0000 0.0000 0.0000
vn 0.0000 -1.0000 0.0000
vn -0.9829 -0.0000 0.1844
vn 0.9985 0.0000 -0.0555
vn -0.0000 1.0000 0.0000
usemtl Default_OBJ.006
s off
f 106//83 108//83 109//83
f 109//83 108//83 111//83
f 110//84 105//84 112//84
f 105//84 110//84 113//84
f 114//85 107//85 113//85 110//85
f 110//86 108//86 114//86
f 106//87 107//87 114//87 108//87
f 112//88 105//88 109//88 111//88
f 111//86 108//86 110//86 112//86
f 106//89 113//89 107//89
f 105//89 113//89 106//89 109//89
o convex_5.001_convex_5.007
v -0.017648 -0.080510 0.017550
v 0.003753 -0.080510 0.009397
v -0.017648 0.080510 0.017550
v 0.003753 0.080510 0.001244
v 0.003753 -0.080510 0.001244
v -0.017648 0.080510 0.001244
v -0.017648 -0.080510 0.001244
v 0.003753 0.080510 0.009397
vn -1.0000 0.0000 0.0000
vn 1.0000 0.0000 0.0000
vn 0.0000 0.0000 -1.0000
vn 0.0000 1.0000 0.0000
vn 0.0000 -1.0000 0.0000
vn 0.3560 -0.0000 0.9345
usemtl Default_OBJ.006
s off
f 117//90 120//90 115//90
f 115//90 120//90 121//90
f 119//91 118//91 116//91
f 121//92 120//92 118//92 119//92
f 116//91 118//91 122//91
f 120//93 117//93 122//93 118//93
f 116//94 115//94 121//94 119//94
f 122//95 117//95 115//95 116//95
l 117 118
